<svg version="1.2" baseProfile="tiny-ps" xmlns="http://www.w3.org/2000/svg" viewBox="0 0 2048 2048" width="500" height="500">
	<title>cachiql (1)-svg-svg</title>
	<style>
		tspan { white-space:pre }
		.shp0 { fill: #000000 } 
		.shp1 { fill: #117ebd } 
	</style>
	<path id="Shape 6" fill-rule="evenodd" class="shp0" d="M1023 2019C470.55 2019 24 1573.12 24 1021.5C24 856.81 63.8 701.55 134.35 564.76C76.37 688.19 43.98 826.07 43.98 971.63C43.98 1501.18 472.67 1929.23 1003.02 1929.23C1533.37 1929.23 1962.06 1501.18 1962.06 971.63C1962.06 564.91 1709.18 218.07 1351.59 79.04C1742.22 214.49 2022 584.87 2022 1021.5C2022 1573.12 1575.45 2019 1023 2019Z" />
	<path id="Shape 1" fill-rule="evenodd" class="shp1" d="M1003.02 1907.28C485.93 1907.28 67.96 1489.49 67.96 972.62C67.96 455.76 485.93 37.96 1003.02 37.96C1087.2 37.96 1168.75 49.04 1246.3 69.81C1185.27 56.79 1121.93 49.93 1056.97 49.93C559.76 49.93 157.87 451.23 157.87 947.69C157.87 1444.14 559.76 1845.44 1056.97 1845.44C1394.99 1845.44 1688.97 1659.96 1842.55 1385.19C1690.3 1694.69 1371.88 1907.28 1003.02 1907.28Z" />
	<path id="CachiQL" fill-rule="evenodd" class="shp0" d="M575.13 1173L395.91 1173C385.92 1173 377.43 1169.51 370.44 1162.53C363.45 1155.54 359.95 1147.06 359.95 1137.09L359.95 993.45C359.95 983.48 363.45 975 370.44 968.01C377.43 961.03 385.92 957.54 395.91 957.54L575.13 957.54L575.13 981.78L395.91 981.78C392.72 981.78 389.92 982.98 387.52 985.37C385.32 987.56 384.22 990.26 384.22 993.45L384.22 1137.09C384.22 1140.28 385.32 1143.08 387.52 1145.47C389.92 1147.66 392.72 1148.76 395.91 1148.76L575.13 1148.76L575.13 1173ZM782.22 1173L641.36 1173C631.37 1173 622.78 1169.51 615.59 1162.53C608.6 1155.34 605.1 1146.76 605.1 1136.79L605.1 1073.95L757.35 1073.95L757.35 1035.64C757.35 1032.45 756.15 1029.76 753.75 1027.56C751.56 1025.17 748.86 1023.97 745.66 1023.97L605.1 1023.97L605.1 999.43L745.66 999.43C755.85 999.43 764.44 1003.02 771.43 1010.21C778.62 1017.19 782.22 1025.67 782.22 1035.64L782.22 1173ZM641.36 1148.46L757.35 1148.46L757.35 1098.49L629.68 1098.49L629.68 1136.79C629.68 1139.98 630.78 1142.78 632.97 1145.17C635.37 1147.36 638.17 1148.46 641.36 1148.46ZM986.92 1173L846.06 1173C836.07 1173 827.48 1169.51 820.29 1162.53C813.3 1155.34 809.8 1146.76 809.8 1136.79L809.8 1035.64C809.8 1025.67 813.3 1017.19 820.29 1010.21C827.48 1003.02 836.07 999.43 846.06 999.43L986.32 999.43L986.32 1023.97L846.06 1023.97C842.86 1023.97 840.06 1025.17 837.67 1027.56C835.47 1029.76 834.37 1032.45 834.37 1035.64L834.37 1136.79C834.37 1139.98 835.47 1142.78 837.67 1145.17C840.06 1147.36 842.86 1148.46 846.06 1148.46L986.92 1148.46L986.92 1173ZM1039.07 1173L1014.49 1173L1014.49 942.58L1039.07 942.58L1039.07 999.43L1155.35 999.43C1165.14 999.43 1173.63 1003.02 1180.82 1010.21C1188.01 1017.19 1191.61 1025.67 1191.61 1035.64L1191.61 1173L1167.04 1173L1167.04 1035.64C1167.04 1032.45 1165.84 1029.76 1163.44 1027.56C1161.25 1025.17 1158.55 1023.97 1155.35 1023.97L1051.05 1023.97C1047.86 1023.97 1045.06 1025.17 1042.66 1027.56C1040.27 1029.76 1039.07 1032.45 1039.07 1035.64L1039.07 1173ZM1240.17 1173L1215.59 1173L1215.59 999.43L1240.17 999.43L1240.17 1173ZM1240.17 967.12L1215.59 967.12L1215.59 942.58L1240.17 942.58L1240.17 967.12ZM1522.48 1173L1314.49 1173C1304.5 1173 1296.01 1169.51 1289.02 1162.53C1282.03 1155.54 1278.53 1147.06 1278.53 1137.09L1278.53 993.45C1278.53 983.48 1282.03 975 1289.02 968.01C1296.01 961.03 1304.5 957.54 1314.49 957.54L1458.35 957.54C1468.34 957.54 1476.83 961.03 1483.82 968.01C1490.81 975 1494.31 983.48 1494.31 993.45L1494.31 1148.76L1522.48 1148.76L1522.48 1173ZM1314.49 1148.76L1458.35 1148.76C1461.54 1148.76 1464.24 1147.66 1466.44 1145.47C1468.84 1143.08 1470.04 1140.28 1470.04 1137.09L1470.04 993.45C1470.04 990.26 1468.84 987.56 1466.44 985.37C1464.24 982.98 1461.54 981.78 1458.35 981.78L1314.49 981.78C1311.3 981.78 1308.5 982.98 1306.1 985.37C1303.9 987.56 1302.8 990.26 1302.8 993.45L1302.8 1137.09C1302.8 1140.28 1303.9 1143.08 1306.1 1145.47C1308.5 1147.66 1311.3 1148.76 1314.49 1148.76ZM1760.15 1173L1544.36 1173L1544.36 957.24L1568.64 957.24L1568.64 1148.76L1760.15 1148.76L1760.15 1173Z" />
	<path id="TEAM " fill="#000000" aria-label="TEAM"  d="M726.13 923L705.88 923L705.88 763.25L625.88 763.25L625.88 743L805.88 743L805.88 763.25L726.13 763.25L726.13 923ZM989.38 923L825.13 923L825.13 743L989.38 743L989.38 763.25L845.38 763.25L845.38 822.75L961.13 822.75L961.13 843.25L845.38 843.25L845.38 902.75L989.38 902.75L989.38 923ZM1036.88 923L1016.63 923L1016.63 773Q1016.63 760.5 1025.38 751.75Q1034.13 743 1046.63 743L1166.63 743Q1179.13 743 1187.88 751.75Q1196.63 760.5 1196.63 773L1196.63 923L1176.38 923L1176.38 857.25L1036.88 857.25L1036.88 923ZM1036.88 773L1036.88 837L1176.38 837L1176.38 773Q1176.38 769 1173.38 766.25Q1170.63 763.25 1166.63 763.25L1046.63 763.25Q1042.63 763.25 1039.63 766.25Q1036.88 769 1036.88 773ZM1245.38 923L1225.13 923L1225.13 743L1252.88 743L1327.63 832L1402.38 743L1430.13 743L1430.13 923L1409.88 923L1409.88 766L1327.63 863.75L1245.38 766L1245.38 923Z" />
</svg>