<?xml version="1.0" standalone="no"?>
<!DOCTYPE svg PUBLIC "-//W3C//DTD SVG 20010904//EN"
 "http://www.w3.org/TR/2001/REC-SVG-20010904/DTD/svg10.dtd">
<svg version="1.0" xmlns="http://www.w3.org/2000/svg"
 width="512.000000pt" height="512.000000pt" viewBox="0 0 512.000000 512.000000"
 preserveAspectRatio="xMidYMid meet">

<g transform="translate(0.000000,512.000000) scale(0.100000,-0.100000)"
fill="#000000" stroke="none">
<path d="M0 3670 c0 -1002 3 -1450 10 -1450 6 0 22 11 36 25 50 50 74 56 196
49 75 -4 128 -2 158 6 62 16 122 23 95 11 -15 -7 -7 -10 35 -11 30 -1 66 -3
80 -4 14 -2 35 0 46 5 12 4 24 5 27 3 3 -3 31 -7 62 -9 46 -3 56 -1 51 11 -4
9 2 14 17 14 20 0 20 1 -5 14 -15 8 -42 16 -60 18 -19 2 2 7 50 12 59 6 87 5
95 -3 6 -6 21 -11 34 -11 16 0 23 -6 23 -20 0 -24 28 -24 47 0 10 12 11 8 6
-23 -3 -20 -1 -37 4 -37 5 0 31 34 59 75 27 42 50 71 52 66 2 -5 -32 -83 -76
-173 -111 -228 -138 -308 -152 -459 -7 -68 -16 -128 -21 -134 -5 -5 -9 -30 -9
-56 0 -66 -21 -119 -83 -207 -76 -108 -76 -110 -92 -236 -10 -83 -22 -129 -42
-170 -15 -31 -31 -56 -36 -56 -11 0 -7 15 28 98 18 42 25 76 23 105 l-3 42
-23 -63 c-22 -58 -78 -139 -90 -128 -2 3 5 26 17 51 25 54 26 62 5 44 -22 -18
-60 -97 -68 -140 -7 -39 9 -129 29 -169 8 -14 29 -42 49 -64 20 -21 33 -42 30
-47 -8 -14 -71 -10 -111 6 -21 9 -67 45 -104 80 -63 61 -79 73 -79 59 0 -12
136 -146 162 -160 15 -8 46 -14 70 -14 48 0 61 -7 71 -34 13 -33 -17 -63 -77
-77 -48 -10 -66 -9 -148 10 -96 22 -219 27 -293 11 -35 -7 -37 -9 -17 -15 18
-6 20 -10 11 -21 -6 -8 -19 -14 -28 -14 -9 -1 -26 -9 -39 -19 -22 -19 -22 -23
-22 -240 l0 -221 183 0 184 0 11 25 c19 42 14 83 -13 111 -14 14 -26 36 -27
50 -3 26 -13 32 -21 12 -3 -7 -6 -1 -6 15 -1 15 -7 27 -13 28 -19 0 -62 59
-61 80 1 10 -7 21 -18 24 -20 7 -27 25 -9 25 6 0 10 7 10 15 0 18 17 20 23 3
3 -10 10 -8 25 6 12 10 19 22 16 27 -8 14 65 39 99 33 18 -3 -3 7 -45 22 -74
27 -98 44 -60 44 9 0 49 -9 87 -20 47 -14 99 -21 161 -21 l92 0 -15 -47 c-18
-54 -23 -258 -10 -364 l9 -68 679 0 679 0 -10 26 c-6 15 -19 38 -29 53 -10 14
-25 48 -34 74 -15 45 -15 48 0 43 10 -4 6 7 -13 31 -15 21 -43 58 -61 82 -51
68 -39 66 35 -7 68 -67 92 -114 92 -182 0 -12 7 -43 16 -71 l16 -49 295 0 295
0 -7 39 c-6 35 -4 40 26 62 69 51 142 132 166 185 25 56 29 83 23 184 -2 30 1
71 6 90 l8 35 8 -55 c4 -30 10 -96 14 -147 4 -51 11 -90 16 -87 5 3 8 48 7
100 -1 52 0 97 3 100 10 9 67 -141 76 -200 8 -52 8 -57 -8 -53 -24 6 -34 -2
-54 -41 -24 -46 -14 -50 19 -7 41 50 72 45 44 -7 -10 -19 -9 -20 10 -15 39 10
21 -11 -29 -35 -27 -13 -49 -26 -50 -31 0 -9 78 2 103 15 9 5 17 5 17 0 0 -5
-11 -14 -25 -20 -44 -20 -102 -25 -155 -12 -55 13 -75 9 -41 -9 30 -17 103
-24 154 -17 47 7 184 98 300 197 31 28 57 44 57 37 0 -8 -20 -45 -45 -82 -46
-70 -55 -114 -35 -161 6 -15 9 -8 9 28 1 30 6 50 15 53 7 3 32 32 56 64 41 57
72 76 104 64 9 -3 40 -9 69 -13 48 -7 50 -8 27 -18 -56 -24 -105 -102 -114
-180 l-7 -63 146 0 145 0 0 74 c0 92 10 167 21 160 5 -3 9 -27 9 -54 0 -58 16
-97 42 -105 10 -4 18 -11 18 -16 0 -9 22 -7 50 4 8 3 24 8 35 10 16 3 13 7
-17 22 -21 10 -38 21 -38 25 0 3 24 6 53 7 28 1 63 6 77 12 21 8 15 10 -36 10
-60 1 -60 1 -93 48 l-33 46 40 -34 c29 -25 52 -35 79 -37 l38 -2 -69 64 c-39
36 -79 67 -90 69 -20 3 -19 4 4 14 14 6 34 15 45 19 18 6 18 7 2 11 -10 3 -31
0 -48 -6 -27 -9 -28 -9 -19 9 12 23 14 68 2 55 -5 -6 -15 -37 -23 -70 -11 -50
-14 -55 -17 -30 -6 49 18 166 45 217 29 52 70 78 140 86 24 2 40 9 37 14 -9
13 -89 1 -141 -22 -47 -21 -58 -17 -41 14 14 24 11 58 -4 67 -35 22 57 68 105
53 18 -5 20 -4 9 7 -8 9 -38 14 -78 15 -36 1 -68 4 -71 7 -22 23 78 51 128 37
73 -21 89 -31 90 -59 l0 -26 10 23 c5 13 6 29 2 34 -3 6 -1 8 4 5 10 -6 23 13
23 32 0 4 -15 5 -32 3 -18 -2 -51 4 -73 12 l-40 15 82 -3 c57 -2 80 0 77 8 -3
7 -20 10 -42 8 -20 -2 -48 1 -62 7 -23 9 -21 10 18 10 100 2 154 61 166 184 4
37 20 119 36 183 24 97 36 125 70 169 46 59 100 101 150 115 41 12 55 1 45
-31 -5 -13 -8 -26 -8 -29 1 -11 -52 -97 -76 -124 -14 -16 -39 -37 -56 -47 -17
-11 -23 -19 -14 -19 29 0 100 62 124 109 23 44 24 44 25 17 0 -38 -40 -90 -98
-127 -51 -32 -83 -36 -105 -15 -37 38 -86 -262 -57 -350 7 -22 22 -52 32 -67
27 -38 120 -105 170 -123 48 -17 51 -17 43 -4 -3 5 -23 14 -44 20 -21 5 -46
20 -57 31 l-19 22 45 -6 c33 -4 52 -14 73 -37 26 -29 37 -57 18 -45 -5 3 -12
1 -16 -5 -3 -5 -28 -10 -56 -10 -43 0 -54 5 -90 37 -23 21 -45 36 -48 34 -9
-6 -48 66 -66 119 l-15 45 5 -70 c3 -38 15 -104 26 -145 22 -83 126 -292 148
-298 10 -4 12 1 7 14 -4 11 9 2 28 -18 19 -21 39 -38 45 -38 5 0 14 -12 19
-27 9 -23 10 -12 9 52 -1 71 2 87 30 140 31 60 54 87 84 97 13 5 14 -3 7 -64
-5 -39 -13 -80 -19 -92 -9 -19 -9 -19 10 2 11 13 26 51 32 84 9 43 21 72 43
96 27 31 31 43 34 106 2 43 -3 88 -11 116 -15 45 -15 45 -10 -45 4 -69 2 -99
-10 -127 -30 -72 -40 -47 -34 90 6 125 20 202 37 202 14 0 70 -146 70 -182 0
-35 -22 -152 -38 -205 -11 -36 -3 -84 16 -91 7 -2 12 5 13 15 0 10 6 0 13 -22
7 -23 19 -41 29 -43 17 -4 24 13 9 22 -5 3 -17 36 -27 73 -16 59 -17 75 -6
142 7 41 17 84 21 95 8 20 9 20 9 -2 1 -23 2 -22 44 12 24 20 46 33 49 30 3
-3 21 -1 39 5 l34 9 -32 1 c-18 1 -33 6 -33 11 0 7 19 10 45 9 55 -3 56 -4
125 -174 29 -71 68 -161 88 -200 37 -75 85 -195 79 -201 -2 -2 -13 3 -25 11
-13 10 -28 39 -38 75 -9 33 -19 60 -23 60 -11 0 -48 -64 -61 -103 -18 -57 -49
-73 -111 -59 -34 8 -56 9 -67 2 -14 -8 -13 -9 9 -10 51 0 64 -30 67 -156 l4
-114 164 0 164 0 0 2560 0 2560 -69 0 -68 0 -5 -142 c-6 -151 -11 -176 -51
-222 -22 -25 -34 -29 -103 -37 -44 -4 -183 -11 -311 -15 -276 -9 -288 -6 -299
63 -4 25 -3 114 1 199 l7 154 -278 0 -277 0 7 -83 c4 -46 6 -167 5 -268 -2
-254 1 -381 12 -401 5 -9 10 -36 10 -60 1 -29 5 -18 10 37 22 210 24 197 26
-190 1 -256 -1 -392 -7 -377 -5 13 -12 116 -14 230 -5 207 -9 242 -29 242 -7
0 -8 -79 -4 -252 3 -139 2 -277 -2 -305 -4 -29 -4 -56 1 -61 4 -4 -35 -21 -88
-37 -62 -19 -99 -36 -106 -48 -5 -11 -16 -16 -25 -13 -13 5 -14 -4 -10 -66 l6
-73 -14 70 c-12 57 -12 97 -4 215 l11 145 -42 208 c-23 115 -39 215 -36 223 3
9 1 12 -5 9 -6 -4 -8 2 -4 17 10 39 -31 135 -102 236 -113 162 -186 231 -292
271 -29 11 -76 37 -104 59 -137 103 -266 133 -409 96 -33 -8 -62 -13 -64 -11
-5 5 154 57 174 57 8 0 10 5 6 12 -4 6 -6 36 -5 65 l2 53 -700 0 c-658 0 -700
-1 -704 -17 -4 -17 -5 -17 -6 0 -1 16 -36 17 -581 17 l-580 0 0 -1450z m2904
963 c9 -18 14 -33 12 -33 -7 0 -86 112 -86 122 0 14 55 -53 74 -89z m-384 77
c0 -5 8 -7 18 -3 9 3 14 3 10 -2 -5 -5 -47 -9 -95 -9 -102 -1 -145 -18 -252
-99 -45 -34 -58 -41 -41 -22 57 66 128 112 199 131 55 15 161 18 161 4z m1217
-67 c-2 -16 -4 -3 -4 27 0 30 2 43 4 28 2 -16 2 -40 0 -55z m-1293 -3 c-9 -9
-139 -60 -152 -60 -12 1 51 33 103 51 59 21 62 22 49 9z m345 -25 c186 -73
185 -72 261 -175 113 -154 130 -220 137 -525 6 -248 3 -271 -63 -575 -52 -240
-64 -285 -94 -349 -49 -104 -99 -143 -290 -230 l-164 -73 -85 6 c-47 4 -91 10
-97 14 -31 18 -150 218 -168 282 -12 41 -40 90 -52 90 -6 0 -17 -12 -24 -27
-12 -26 -13 -27 -21 -8 -16 41 -9 149 15 218 l23 68 -28 -27 c-16 -15 -34 -43
-40 -62 -12 -36 -8 -162 6 -196 6 -14 4 -17 -6 -14 -19 6 -26 47 -28 158 -1
65 -4 90 -11 80 -8 -12 -10 -11 -10 7 0 23 -23 158 -40 228 -5 22 -11 65 -14
95 l-5 55 14 -60 14 -60 -6 75 c-3 48 0 86 8 105 7 17 12 33 11 37 -1 4 6 4
16 1 16 -6 16 -5 0 14 -30 33 -21 33 50 -3 51 -27 84 -36 141 -41 89 -7 92 11
4 21 -83 9 -103 25 -33 27 l55 1 -45 12 c-52 15 -120 43 -120 50 0 2 28 -4 63
-15 73 -22 127 -25 127 -6 0 7 -15 21 -32 30 -33 15 -33 16 -7 16 52 2 109
-67 109 -129 0 -18 4 -29 10 -25 16 10 12 73 -7 112 -23 50 -64 73 -180 103
-44 11 -58 30 -23 30 28 0 25 18 -5 26 -42 10 -16 27 34 21 66 -8 211 -56 212
-70 13 -127 11 -193 -4 -223 -8 -16 -18 -48 -22 -72 -4 -26 -26 -71 -56 -116
-37 -55 -53 -90 -64 -143 -8 -38 -21 -86 -30 -106 -17 -40 -20 -77 -6 -77 4 0
16 -29 26 -65 12 -44 26 -72 43 -85 49 -39 205 -71 252 -51 l25 10 -29 0 c-24
1 -27 3 -16 16 10 12 9 16 -3 21 -8 3 -21 5 -28 3 -32 -4 -50 3 -83 31 -42 37
-63 88 -40 97 26 10 312 -13 328 -26 8 -7 36 -11 68 -9 l53 3 -86 23 c-116 31
-257 52 -356 52 -45 0 -85 5 -88 10 -4 6 6 10 24 10 17 0 38 8 48 19 10 10 27
23 38 29 11 6 14 12 8 12 -27 0 -11 17 28 30 49 16 56 30 38 71 -17 42 -15
101 5 179 10 36 24 118 31 183 13 101 13 123 1 150 -8 18 -15 26 -15 19 -1 -7
-15 3 -32 22 -38 44 -91 77 -127 80 -15 2 -45 7 -67 11 -36 8 -38 9 -15 15 21
5 18 8 -28 19 -28 7 -55 17 -58 22 -3 5 -1 24 5 42 6 17 20 64 31 104 11 40
25 75 32 79 7 4 8 3 4 -4 -4 -7 -3 -19 2 -29 9 -14 11 -14 21 6 7 12 9 26 6
32 -6 9 31 149 39 149 2 0 2 -28 0 -62 l-4 -63 18 52 c9 28 20 55 25 59 11 11
8 26 -4 18 -16 -10 6 29 26 46 8 7 48 30 88 51 82 44 69 51 -28 14 -36 -13
-65 -22 -65 -20 0 3 28 19 61 36 104 52 254 58 368 14z m-665 -97 c-5 -7 -16
-40 -25 -73 -13 -45 -18 -52 -18 -30 -1 30 32 115 44 115 3 0 3 -6 -1 -12z
m-73 -414 c-17 -71 -36 -156 -43 -189 -9 -43 -13 -52 -16 -34 -5 43 72 368 85
355 2 -2 -10 -62 -26 -132z m-54 -16 c-14 -56 -28 -123 -32 -148 -4 -25 -11
-52 -17 -60 -7 -12 -8 -11 -4 5 3 11 8 52 12 90 6 69 51 232 60 222 3 -3 -6
-52 -19 -109z m140 70 c-3 -7 -5 -2 -5 12 0 14 2 19 5 13 2 -7 2 -19 0 -25z
m1241 -218 l-1 -55 -7 55 c-5 30 -8 78 -8 105 l1 50 7 -50 c5 -27 8 -75 8
-105z m31 -152 c-1 -92 -4 -143 -9 -128 -12 37 -12 280 0 280 6 0 10 -57 9
-152z m-1449 -43 c-17 -59 -24 -52 -9 9 6 26 14 44 17 42 2 -3 -1 -26 -8 -51z
m1428 -145 c1 -39 -2 -49 -8 -35 -5 11 -8 58 -8 105 1 78 1 81 8 35 5 -27 8
-75 8 -105z m-51 33 c-2 -21 -4 -4 -4 37 0 41 2 58 4 38 2 -21 2 -55 0 -75z
m-1380 -15 c-2 -13 -4 -5 -4 17 -1 22 1 32 4 23 2 -10 2 -28 0 -40z m1474
-208 c13 -116 18 -435 7 -417 -4 7 -8 53 -8 102 0 50 -5 106 -10 125 -22 73
-32 260 -18 334 l13 71 2 -55 c1 -30 8 -102 14 -160z m-1522 88 c-7 -23 -10
-61 -6 -100 15 -162 17 -214 7 -183 -19 53 -24 263 -9 330 12 55 14 57 17 25
2 -19 -2 -51 -9 -72z m1618 -90 c-2 -18 -4 -6 -4 27 0 33 2 48 4 33 2 -15 2
-42 0 -60z m-1600 -20 c-2 -18 -4 -6 -4 27 0 33 2 48 4 33 2 -15 2 -42 0 -60z
m-77 -223 c-5 -49 -10 -110 -10 -135 -1 -35 -3 -40 -10 -25 -5 11 -8 45 -8 75
0 44 2 50 9 30 7 -20 8 -17 7 20 -2 55 15 185 20 150 1 -14 -2 -65 -8 -115z
m1559 -225 c7 -30 11 -113 10 -185 0 -71 0 -164 1 -205 l3 -75 7 60 c4 33 9
141 10 240 4 267 16 106 24 -320 5 -279 4 -349 -8 -390 -29 -104 -49 -248 -43
-325 5 -76 22 -138 34 -126 3 3 10 84 13 179 l7 172 0 -195 0 -195 61 -135
c73 -164 92 -220 98 -285 l4 -50 -16 49 c-10 33 -18 45 -24 36 -5 -8 -10 3
-15 31 -9 58 -55 160 -68 152 -6 -3 -7 -1 -3 5 4 6 -12 55 -35 109 -73 172
-70 155 -72 426 -1 137 1 251 6 254 4 2 8 -33 8 -79 2 -82 2 -82 9 -28 14 99
12 170 -5 170 -17 0 -17 -8 -19 420 -1 151 -7 344 -14 429 -6 85 -8 159 -4
165 4 6 10 -47 13 -119 4 -71 12 -155 18 -185z m-1426 210 c4 -41 3 -56 -3
-40 -8 25 -14 117 -6 109 2 -2 6 -33 9 -69z m1517 9 c0 -12 9 -53 21 -91 11
-39 18 -72 15 -75 -3 -3 -7 0 -10 8 -2 8 -11 34 -19 59 -23 67 -31 120 -18
120 6 0 11 -10 11 -21z m-1923 -31 c-3 -7 -5 -2 -5 12 0 14 2 19 5 13 2 -7 2
-19 0 -25z m156 -162 c1 -88 0 -147 -4 -132 -10 38 -14 123 -10 236 5 126 9
91 14 -104z m205 124 c0 -22 -1 -22 -8 5 -4 17 -8 39 -8 50 0 16 2 15 8 -5 4
-14 8 -36 8 -50z m1721 -114 c1 -89 -6 -64 -12 44 -3 65 -3 82 3 55 5 -22 9
-67 9 -99z m-1890 24 c-1 -38 -6 -67 -10 -64 -10 6 -12 58 -3 103 10 50 15 36
13 -39z m438 -25 c10 -34 -13 -4 -26 34 -17 51 -13 72 5 26 8 -22 18 -49 21
-60z m-260 63 c-3 -8 -6 -5 -6 6 -1 11 2 17 5 13 3 -3 4 -12 1 -19z m1520 -10
c-3 -7 -5 -2 -5 12 0 14 2 19 5 13 2 -7 2 -19 0 -25z m-1553 -75 c27 -82 57
-203 50 -203 -14 0 -84 217 -84 263 0 32 8 17 34 -60z m1650 -5 c17 -40 31
-126 20 -115 -9 9 -44 147 -37 147 2 0 10 -15 17 -32z m-84 -72 c0 -65 -6 -56
-13 19 -4 39 -3 54 3 45 5 -8 10 -37 10 -64z m60 -5 c0 -41 -18 -10 -25 39
l-5 45 14 -30 c9 -16 15 -41 16 -54z m-1534 -158 c-7 -7 -46 106 -45 130 1 12
12 -11 25 -52 14 -41 23 -76 20 -78z m909 81 c-47 -68 -164 -177 -237 -221
-29 -18 -72 -35 -95 -38 -38 -4 -114 10 -165 30 -11 4 -18 3 -18 -5 0 -6 -5
-8 -11 -4 -6 3 -8 17 -5 29 4 14 1 25 -7 28 -8 3 -7 10 7 26 14 16 31 21 64
21 25 0 75 7 111 16 89 22 333 129 361 159 39 41 36 18 -5 -41z m-594 -13 l21
-36 -23 22 c-13 12 -33 37 -43 55 l-19 33 21 -19 c12 -10 31 -35 43 -55z
m1261 -381 c-7 -152 -17 -177 -25 -59 -5 74 5 383 14 459 6 46 16 -303 11
-400z m-1701 140 c43 -119 69 -202 68 -220 0 -8 -7 3 -15 25 -43 122 -47 130
-54 110 -8 -23 -49 91 -81 225 -41 172 -13 126 82 -140z m1766 168 c-2 -18 -4
-4 -4 32 0 36 2 50 4 33 2 -18 2 -48 0 -65z m-260 -5 c-2 -16 -4 -5 -4 22 0
28 2 40 4 28 2 -13 2 -35 0 -50z m115 -408 c3 -97 2 -134 -2 -95 -5 36 -10
171 -13 300 -4 180 -4 202 2 95 5 -77 11 -212 13 -300z m-272 220 c7 -78 24
-174 50 -275 54 -207 96 -449 75 -428 -3 3 -17 70 -31 149 -14 79 -41 205 -59
279 -41 162 -56 273 -53 395 1 49 3 70 5 45 1 -25 7 -99 13 -165z m-374 128
c-14 -28 -49 -64 -188 -192 -36 -34 -88 -93 -114 -132 -53 -79 -60 -85 -60
-58 0 10 3 19 6 19 4 0 7 6 8 13 1 6 4 26 6 42 4 19 3 23 -2 10 -4 -11 -14
-20 -22 -20 -8 0 -22 -14 -30 -32 -14 -31 -37 -49 -48 -38 -3 2 11 31 30 62
20 32 45 77 57 101 12 23 30 48 41 54 28 18 25 26 -12 31 -25 3 -20 4 17 6 28
1 66 8 86 15 38 13 195 122 219 152 20 23 24 1 6 -33z m-901 -55 c23 -50 46
-150 31 -137 -8 8 -65 189 -59 189 2 0 15 -24 28 -52z m1745 -60 c30 -20 78
-45 105 -54 57 -19 184 -83 267 -137 59 -38 103 -89 143 -168 13 -25 45 -70
70 -100 54 -63 127 -185 150 -249 9 -25 23 -84 31 -132 8 -48 22 -109 33 -135
10 -26 24 -73 30 -103 7 -30 40 -109 73 -175 96 -189 180 -371 165 -355 -13
14 -37 56 -138 247 -22 43 -45 82 -50 87 -19 20 -16 -1 6 -54 33 -74 32 -113
-1 -139 -15 -12 -38 -21 -53 -21 -23 0 -21 3 16 20 56 25 61 50 29 129 -14 34
-22 69 -19 78 5 12 3 14 -7 8 -8 -5 -11 -4 -6 3 3 6 2 14 -4 17 -6 4 -28 42
-50 85 -39 78 -69 110 -102 110 -9 0 -20 5 -24 11 -4 8 9 10 42 8 l49 -4 33
-65 32 -65 -5 45 c-6 45 -58 170 -71 170 -4 0 -4 -16 -1 -36 5 -30 4 -34 -8
-24 -8 7 -15 21 -15 32 0 18 -4 17 -32 -11 -35 -34 -49 -27 -25 11 28 43 30
85 8 129 -12 22 -21 46 -21 54 0 38 -111 286 -149 335 -22 28 -41 55 -41 60 0
4 -34 45 -75 91 -41 46 -75 90 -75 96 0 7 -10 19 -22 27 -24 15 -178 67 -178
60 0 -2 25 -16 57 -31 31 -15 51 -29 44 -31 -6 -2 -51 15 -99 38 -48 22 -112
47 -142 53 -38 9 -56 18 -58 30 -3 15 0 16 23 7 14 -5 38 -10 51 -10 14 0 64
-14 111 -30 47 -17 88 -29 90 -27 2 3 -36 19 -84 36 -48 18 -95 38 -105 44
-34 26 -88 100 -88 120 0 18 4 15 18 -12 9 -19 42 -52 72 -73z m37 10 c9 -10
12 -18 7 -18 -13 0 -97 69 -108 87 -10 18 75 -40 101 -69z m-1828 -23 c0 -5
-4 -3 -9 5 -5 8 -9 22 -9 30 0 16 17 -16 18 -35z m561 5 c24 -8 24 -8 -5 -9
-16 0 -37 4 -45 9 -12 8 -11 10 5 9 11 -1 31 -5 45 -9z m-833 -57 c-3 -10 -5
-2 -5 17 0 19 2 27 5 18 2 -10 2 -26 0 -35z m1710 -35 c-2 -13 -4 -5 -4 17 -1
22 1 32 4 23 2 -10 2 -28 0 -40z m-22 -11 c3 -21 10 -35 16 -32 5 4 9 -38 9
-106 0 -62 -2 -110 -5 -108 -9 10 -35 196 -34 249 1 58 4 58 14 -3z m-1340
-78 c13 -51 23 -94 21 -97 -4 -4 -29 71 -46 138 -23 92 -22 87 -11 69 6 -10
22 -59 36 -110z m-164 23 c-8 -13 -10 -5 -10 33 1 48 1 49 10 17 6 -21 6 -39
0 -50z m-37 16 c-17 -162 -76 -459 -89 -446 -2 2 5 41 16 87 11 46 29 143 40
215 29 191 30 196 34 196 2 0 2 -24 -1 -52z m-178 -100 c-8 -46 -24 -117 -35
-158 -10 -41 -26 -102 -34 -135 -31 -120 -66 -229 -66 -209 -1 12 9 53 20 90
12 38 32 116 44 174 13 58 32 141 43 185 11 44 24 98 28 120 3 22 9 35 11 28
2 -6 -3 -49 -11 -95z m418 86 c3 -8 2 -12 -4 -9 -6 3 -10 10 -10 16 0 14 7 11
14 -7z m-1324 -18 c0 -2 -13 -6 -29 -8 -17 -2 -28 -1 -25 4 5 8 54 12 54 4z
m1577 -11 c-4 -8 -2 -17 3 -20 6 -4 10 -1 10 4 0 6 5 11 11 11 7 0 9 -10 4
-27 -8 -34 -25 -54 -25 -30 0 9 -4 17 -10 17 -11 0 -14 43 -3 53 11 12 15 8
10 -8z m718 -72 c-20 -197 -111 -485 -225 -712 -33 -67 -62 -121 -65 -121 -4
0 48 117 88 196 14 27 32 72 40 99 8 28 34 103 56 168 35 100 65 226 95 400
11 62 19 42 11 -30z m-2438 51 c-3 -3 -12 -4 -19 -1 -8 3 -5 6 6 6 11 1 17 -2
13 -5z m980 -89 c-19 -93 -51 -214 -94 -360 -25 -80 -38 -147 -41 -203 -4 -80
-3 -86 33 -158 28 -58 61 -101 137 -180 56 -57 99 -106 97 -109 -9 -8 -174
160 -206 209 -61 92 -76 148 -70 261 4 79 14 127 45 227 22 70 55 191 73 270
34 143 52 174 26 43z m953 70 c-7 -9 -15 -13 -18 -10 -3 2 1 11 8 20 7 9 15
13 18 10 3 -2 -1 -11 -8 -20z m20 -69 c0 -2 -8 -10 -17 -17 -16 -13 -17 -12
-4 4 13 16 21 21 21 13z m1037 -113 c-2 -21 -4 -6 -4 32 0 39 2 55 4 38 2 -18
2 -50 0 -70z m-1903 50 c-19 -87 -99 -374 -101 -366 -3 9 48 220 82 338 17 57
30 76 19 28z m1603 -40 c14 -24 23 -46 20 -49 -2 -3 -13 10 -24 29 -11 19 -29
47 -39 63 -17 27 -17 28 -1 15 10 -8 30 -34 44 -58z m603 27 c-17 -22 -37 -43
-43 -47 -11 -6 4 15 47 65 33 37 30 25 -4 -18z m-2089 -121 c-31 -126 -42
-259 -28 -329 l7 -35 -16 35 c-9 19 -18 60 -21 90 -5 53 -1 78 45 255 11 44
24 94 28 110 5 19 9 24 11 14 2 -9 -10 -72 -26 -140z m284 55 c4 -48 3 -74 -4
-78 -7 -5 -11 12 -11 52 0 33 -3 75 -6 93 -4 24 -2 29 4 19 5 -8 13 -47 17
-86z m-384 -57 c-16 -56 -39 -145 -50 -197 -17 -83 -20 -89 -20 -48 -1 55 19
145 59 271 17 50 31 98 31 107 1 8 4 5 6 -8 3 -12 -9 -69 -26 -125z m311 -82
c14 -33 39 -82 56 -109 18 -28 32 -56 32 -64 0 -7 22 -37 49 -65 62 -67 71
-85 71 -144 0 -56 -26 -116 -67 -158 -41 -41 -50 -61 -78 -170 -22 -89 -127
-358 -147 -380 -6 -6 -7 -5 -3 5 3 8 -9 40 -27 70 l-33 54 53 50 c56 53 137
187 149 247 9 46 38 101 69 130 41 38 64 92 64 149 0 62 -9 80 -71 146 -28 31
-52 67 -58 91 -6 22 -20 52 -31 66 -41 52 -82 155 -86 220 l-5 62 20 -70 c10
-39 30 -97 43 -130z m918 65 c-13 -55 -25 -98 -27 -96 -3 2 5 50 18 105 12 56
24 99 27 96 2 -2 -6 -49 -18 -105z m119 56 c-6 -26 -13 -45 -16 -43 -2 3 1 26
8 51 6 26 13 45 16 43 2 -3 -1 -26 -8 -51z m478 -8 c-3 -7 -5 -2 -5 12 0 14 2
19 5 13 2 -7 2 -19 0 -25z m709 -79 c29 -58 51 -75 30 -24 -19 46 -20 56 -3
30 27 -40 113 -255 102 -255 -8 0 -97 155 -126 218 -16 36 -37 75 -47 86 -16
20 -16 20 1 6 10 -7 29 -35 43 -61z m-581 -146 c-3 -24 -10 -45 -14 -47 -4 -3
-4 16 0 42 4 26 9 72 10 102 l3 55 4 -55 c2 -30 1 -74 -3 -97z m-1854 96 c-5
-13 -10 -19 -10 -12 -1 15 10 45 15 40 3 -2 0 -15 -5 -28z m1826 -46 c-2 -16
-4 -3 -4 27 0 30 2 43 4 28 2 -16 2 -40 0 -55z m90 30 c-3 -10 -5 -4 -5 12 0
17 2 24 5 18 2 -7 2 -21 0 -30z m201 9 c16 -11 29 -92 26 -156 -3 -57 -14 -75
-14 -23 0 21 -4 37 -10 37 -5 0 -9 5 -7 11 1 6 -3 13 -9 16 -6 2 -25 -35 -43
-84 -18 -48 -40 -106 -49 -128 -18 -41 -20 -99 -8 -240 l7 -80 -17 35 c-10 21
-19 70 -22 125 -4 83 -1 101 36 230 22 77 44 156 47 175 4 19 12 44 18 55 6
11 10 23 9 28 -3 9 20 9 36 -1z m-1024 -56 c-3 -15 -8 -25 -11 -23 -2 3 -1 17
3 31 3 15 8 25 11 23 2 -3 1 -17 -3 -31z m-936 -43 c23 -35 38 -63 34 -63 -12
0 -68 80 -77 110 -9 30 -9 30 43 -47z m742 -42 c-17 -89 -64 -166 -155 -253
-63 -60 -112 -122 -196 -246 -129 -193 -163 -238 -190 -253 -11 -5 9 27 44 73
35 46 99 135 142 198 44 63 101 143 127 176 65 83 205 316 213 355 12 55 26 9
15 -50z m-861 30 c-6 -18 -13 -30 -15 -28 -2 2 1 18 7 36 6 18 13 30 15 28 2
-2 -1 -18 -7 -36z m1646 -34 c4 -41 3 -57 -4 -52 -6 3 -11 31 -11 62 0 70 6
66 15 -10z m-2001 -9 c-4 -18 -10 -58 -14 -88 -6 -45 -8 -48 -9 -18 -1 39 17
138 26 138 2 0 1 -15 -3 -32z m2129 -36 c-11 -25 -17 -68 -17 -134 -1 -116
-16 -114 -26 4 -8 84 -4 108 26 153 24 36 35 21 17 -23z m-2036 -24 c-3 -8 -6
-5 -6 6 -1 11 2 17 5 13 3 -3 4 -12 1 -19z m1447 -12 c-3 -15 -8 -25 -11 -23
-2 3 -1 17 3 31 3 15 8 25 11 23 2 -3 1 -17 -3 -31z m-319 -93 c-5 -56 -10
-81 -16 -72 -5 8 -9 29 -9 48 0 29 -2 32 -16 20 -11 -9 -7 5 10 45 14 32 26
61 27 65 0 3 3 0 6 -7 3 -8 2 -52 -2 -99z m-576 39 c19 -37 24 -64 22 -111 -2
-38 -13 -17 -16 31 -1 24 -10 60 -18 81 -21 48 -13 48 12 -1z m1841 -14 c0
-28 -3 -48 -6 -45 -10 10 -12 97 -2 97 4 0 8 -23 8 -52z m-1996 -65 c9 -18 14
-33 12 -33 -6 0 -36 55 -36 66 0 11 5 3 24 -33z m806 -130 c-34 -64 -92 -164
-130 -220 -38 -57 -71 -112 -75 -123 -3 -11 -10 -20 -15 -20 -17 0 14 64 80
164 87 132 106 167 79 150 -8 -4 -8 0 0 15 13 24 23 28 15 6 -15 -39 9 -7 52
70 26 47 49 83 52 80 2 -2 -24 -57 -58 -122z m-825 72 c32 -19 62 -36 69 -38
6 -2 8 -8 4 -11 -9 -10 -86 27 -123 58 -43 37 -18 32 50 -9z m-100 -160 c55
-52 62 -62 36 -48 -19 10 -80 62 -135 116 -93 91 -96 94 -36 48 36 -27 97 -79
135 -116z m1552 123 c-3 -8 -6 -5 -6 6 -1 11 2 17 5 13 3 -3 4 -12 1 -19z m63
-42 c12 -59 0 -166 -25 -221 -28 -60 -86 -313 -96 -420 -14 -138 -32 -176 -24
-50 9 130 22 213 62 365 24 94 37 170 42 250 l7 115 11 -75 12 -75 -4 83 c-2
45 -2 82 0 82 2 0 9 -24 15 -54z m460 -2 c0 -49 -2 -55 -15 -44 -17 14 -21 70
-5 70 6 0 9 3 9 8 -2 12 1 22 6 22 3 0 5 -25 5 -56z m-2026 -34 c22 -21 33
-38 25 -37 -23 4 -82 43 -114 77 l-30 32 40 -16 c22 -9 58 -34 79 -56z m47 9
c13 -26 7 -24 -22 7 -17 19 -19 23 -6 18 10 -3 22 -15 28 -25z m749 -49 c-6
-11 -13 -20 -16 -20 -2 0 0 9 6 20 6 11 13 20 16 20 2 0 0 -9 -6 -20z m879
-50 c0 -13 -1 -13 -8 0 -5 8 -12 26 -15 40 l-7 25 15 -25 c9 -14 15 -32 15
-40z m848 18 c-3 -7 -5 -2 -5 12 0 14 2 19 5 13 2 -7 2 -19 0 -25z m-829 -98
c14 -30 29 -57 33 -60 14 -9 23 -160 10 -160 -6 0 -11 13 -11 29 0 31 -21 101
-64 216 -30 81 -10 64 32 -25z m839 -7 c-2 -16 -4 -5 -4 22 0 28 2 40 4 28 2
-13 2 -35 0 -50z m-557 -92 c22 -111 25 -156 11 -131 -22 36 -54 257 -36 238
3 -3 14 -51 25 -107z m-2595 38 c-7 -11 -33 -22 -75 -33 -14 -3 -2 5 25 19 57
28 58 29 50 14z m671 -36 c-15 -30 -64 -79 -106 -106 -49 -34 -40 -16 20 36
33 29 67 63 76 75 21 31 27 27 10 -5z m2474 7 c0 -6 -26 -39 -57 -74 -32 -36
-71 -86 -88 -112 -16 -26 -35 -50 -42 -52 -19 -5 70 124 129 188 60 65 58 64
58 50z m-1076 -53 c-17 -51 -28 -63 -18 -19 11 43 24 75 29 70 3 -2 -2 -26
-11 -51z m570 -2 c5 -29 4 -36 -3 -25 -6 8 -11 28 -11 44 0 39 6 31 14 -19z
m-400 -39 c26 -21 30 -31 34 -88 3 -47 0 -74 -12 -96 -9 -18 -18 -32 -19 -32
-1 0 -3 22 -3 49 -1 27 -7 58 -14 70 -6 12 -13 32 -15 43 -3 11 -11 28 -20 38
-8 9 -15 29 -15 43 0 25 1 26 18 12 9 -9 30 -26 46 -39z m924 -88 c-1 -85 -2
-88 -7 -33 -3 33 -4 75 -2 93 6 61 11 32 9 -60z m-102 25 c-18 -33 -21 -17 -5
24 6 15 13 23 16 16 2 -6 -3 -24 -11 -40z m-858 -135 c2 -60 8 -108 12 -108
12 0 108 151 124 195 9 23 15 32 15 20 1 -48 -77 -177 -180 -296 -59 -70 -71
-96 -100 -219 -13 -56 -17 -66 -18 -40 -1 32 26 148 45 195 7 18 6 19 -11 5
-19 -15 -19 -15 -1 15 11 17 38 55 62 86 l42 55 -13 110 c-7 60 -14 114 -15
119 -6 27 3 27 17 0 12 -21 18 -62 21 -137z m-1607 79 c21 -35 27 -93 7 -81
-8 5 -9 0 -6 -14 8 -31 -7 -36 -22 -8 -7 13 -35 36 -64 52 -82 44 -83 46 -34
64 70 27 96 24 119 -13z m331 19 c84 -22 108 -36 108 -63 0 -36 -23 -74 -72
-119 -24 -22 -50 -49 -58 -60 -14 -18 -14 -18 5 -3 11 8 44 34 73 58 82 68 65
22 -26 -67 -43 -43 -89 -93 -102 -112 l-25 -35 48 39 c26 21 47 41 47 45 0 6
90 79 118 95 11 7 12 4 4 -11 -14 -26 -127 -127 -179 -161 -23 -15 -51 -43
-62 -63 -12 -20 -28 -42 -36 -49 -19 -16 -19 -30 -1 -30 7 0 31 25 52 56 35
52 131 131 143 118 3 -2 -17 -26 -43 -53 -26 -26 -48 -58 -49 -70 -1 -14 -24
-42 -58 -72 -63 -54 -80 -62 -55 -24 18 28 21 39 6 30 -5 -3 -24 -7 -42 -9
-18 -2 -56 -7 -84 -11 -54 -8 -94 5 -94 29 0 16 31 29 127 51 43 10 79 25 90
37 18 21 18 21 -4 10 -12 -7 -56 -17 -98 -23 -55 -9 -85 -18 -106 -36 -29 -25
-29 -25 -29 -3 0 12 12 40 28 61 l27 39 75 -5 c93 -7 75 11 -21 21 l-65 6 -24
-36 c-22 -32 -40 -46 -40 -31 0 3 12 33 26 66 14 34 23 63 20 66 -8 9 -38 -45
-51 -94 -9 -31 -14 -39 -14 -23 -1 13 7 51 17 83 16 55 24 65 119 148 55 49
127 118 158 154 32 36 66 65 76 65 10 0 42 -6 71 -14z m389 -194 c33 -142 36
-182 8 -102 -27 75 -46 162 -53 240 -6 75 -5 71 45 -138z m-878 109 c21 -42
21 -47 1 -30 -20 16 -44 63 -44 86 0 16 1 15 13 -2 8 -11 21 -35 30 -54z
m1717 -11 c0 -23 -7 -54 -15 -71 -9 -16 -13 -34 -10 -39 3 -5 1 -11 -5 -15
-14 -9 -23 40 -17 96 7 57 13 69 33 69 10 0 14 -12 14 -40z m-806 -58 c4 -49
3 -71 -4 -67 -5 3 -10 38 -10 77 0 89 5 85 14 -10z m457 -9 c64 -107 66 -112
46 -93 -20 18 -107 158 -107 171 0 19 11 6 61 -78z m-671 34 c-19 -18 -27 -23
-20 -12 27 38 43 55 49 50 3 -3 -10 -20 -29 -38z m635 -57 c35 -69 55 -91 122
-135 24 -15 40 -32 37 -40 -4 -10 -19 -7 -65 13 -64 27 -134 89 -162 143 l-18
34 23 -28 c82 -101 127 -129 78 -49 -36 57 -87 176 -64 147 8 -11 31 -49 49
-85z m-474 -170 c6 -30 23 -88 37 -129 28 -81 33 -120 25 -198 -4 -39 -10 -54
-23 -58 -41 -13 -70 7 -126 87 l-56 80 4 80 c4 91 16 108 79 108 32 0 36 -3
32 -19 -3 -11 2 -30 11 -43 15 -22 16 -19 10 42 -4 36 -15 90 -26 119 -10 30
-21 80 -23 110 -5 53 -4 51 20 -34 13 -49 30 -115 36 -145z m334 188 c16 -24
22 -38 14 -31 -15 12 -53 73 -46 73 2 0 17 -19 32 -42z m-444 13 c-11 -20 -77
-81 -88 -81 -4 0 15 23 42 50 54 55 61 59 46 31z m-951 -100 c33 -51 59 -95
57 -97 -5 -6 -81 105 -107 156 -30 61 -23 51 50 -59z m135 38 c9 -17 15 -33
13 -35 -3 -2 -12 12 -21 31 -21 43 -13 47 8 4z m-30 -20 c-3 -4 -2 -9 3 -11
18 -7 51 -77 56 -118 6 -44 6 -44 -5 -11 -6 19 -26 53 -45 75 -34 39 -43 66
-24 66 7 0 7 7 0 23 -11 21 -10 21 4 3 9 -10 13 -22 11 -27z m1336 4 c13 -16
12 -17 -3 -4 -17 13 -22 21 -14 21 2 0 10 -8 17 -17z m-2108 -20 c-7 -2 -19
-2 -25 0 -7 3 -2 5 12 5 14 0 19 -2 13 -5z m1484 -68 c-27 -79 -64 -128 -118
-156 -54 -27 -70 -20 -22 11 27 18 47 45 73 97 60 122 102 153 67 48z m980
-17 c-3 -7 -5 -2 -5 12 0 14 2 19 5 13 2 -7 2 -19 0 -25z m-2590 -10 c-3 -7
-5 -2 -5 12 0 14 2 19 5 13 2 -7 2 -19 0 -25z m2371 -76 c23 -34 10 -26 -38
25 -40 42 -41 44 -11 22 19 -14 41 -35 49 -47z m170 1 c1 -32 -2 -65 -8 -73
-7 -11 -10 4 -10 51 0 55 5 79 15 79 1 0 3 -26 3 -57z m227 -45 c-10 -35 -19
-74 -22 -88 -4 -24 -3 -24 11 -5 47 63 48 63 40 25 -3 -19 -12 -42 -19 -50 -7
-8 -10 -21 -8 -27 5 -14 -13 -16 -68 -7 -32 5 -37 10 -34 30 1 14 6 28 10 32
4 4 4 -4 0 -18 -6 -22 -5 -23 8 -10 15 16 86 177 88 201 1 9 3 7 6 -3 2 -10
-3 -46 -12 -80z m-1191 11 c-10 -11 -28 -26 -39 -31 -12 -7 -7 3 14 26 36 37
59 42 25 5z m376 -75 c0 -8 6 -14 13 -14 17 0 57 -71 57 -101 0 -28 -67 -129
-85 -129 -9 0 -10 12 -4 48 4 26 5 87 2 136 -5 66 -3 87 5 82 7 -4 12 -14 12
-22z m-901 -124 c5 -41 6 -93 1 -115 -4 -22 -8 -35 -9 -30 -1 6 -8 2 -15 -7
-11 -15 -14 1 -20 111 -5 89 -3 137 5 157 l12 29 8 -35 c5 -19 13 -69 18 -110z
m37 28 c18 -53 20 -105 4 -122 -5 -4 -11 11 -14 35 -12 104 -15 139 -12 139 3
0 12 -24 22 -52z m187 7 c-3 -9 -8 -14 -10 -11 -3 3 -2 9 2 15 9 16 15 13 8
-4z m-342 -103 c14 -72 5 -77 -17 -9 -11 37 -14 64 -9 83 9 29 9 29 12 4 2
-14 8 -49 14 -78z m219 -62 c0 -14 12 -43 26 -64 24 -34 24 -37 5 -27 -28 16
-47 56 -54 116 -5 46 -4 48 9 25 7 -14 13 -36 14 -50z m498 9 c43 -8 72 -18
72 -26 0 -22 -44 -43 -90 -43 -99 0 -120 29 -22 31 51 1 54 2 27 10 -28 9
-147 6 -275 -7 -51 -5 -54 -4 -35 10 11 9 40 16 67 16 29 0 52 6 60 15 15 18
78 16 196 -6z"/>
<path d="M2745 3989 c-44 -11 -82 -35 -72 -46 4 -3 63 -1 132 7 69 7 151 10
183 7 52 -6 55 -5 32 7 -24 13 -171 37 -214 35 -12 -1 -39 -5 -61 -10z"/>
<path d="M2800 3867 c-35 -12 -80 -66 -80 -96 0 -19 52 -42 91 -40 l24 1 -25
8 c-22 7 -23 8 -4 9 31 1 84 22 84 32 0 5 -17 9 -37 9 -35 0 -36 1 -17 15 29
22 49 18 121 -20 89 -47 107 -45 58 5 -66 67 -151 98 -215 77z"/>
<path d="M2295 3780 c3 -5 8 -10 11 -10 2 0 4 5 4 10 0 6 -5 10 -11 10 -5 0
-7 -4 -4 -10z"/>
<path d="M2730 3443 c0 -11 49 -90 50 -80 0 11 -39 87 -45 87 -3 0 -5 -3 -5
-7z"/>
<path d="M2595 3370 c28 -12 73 -12 80 0 4 6 -14 10 -47 9 -39 0 -48 -3 -33
-9z"/>
<path d="M2380 3132 c0 -5 11 -19 25 -32 23 -21 30 -22 127 -18 57 2 112 10
123 17 17 10 13 11 -25 7 -70 -9 -196 -10 -209 -2 -6 4 -11 14 -11 22 0 8 -7
14 -15 14 -8 0 -15 -4 -15 -8z"/>
<path d="M2246 3021 c-6 -9 12 -51 22 -51 5 0 19 -20 31 -45 27 -54 36 -57 28
-10 -5 30 -3 35 13 35 33 0 11 29 -41 54 -27 13 -51 21 -53 17z"/>
<path d="M3412 2410 c0 -28 25 -133 26 -110 1 8 -5 42 -12 75 -8 33 -14 49
-14 35z"/>
<path d="M3443 2220 c0 -25 2 -35 4 -22 2 12 2 32 0 45 -2 12 -4 2 -4 -23z"/>
<path d="M2510 2591 c0 -5 7 -15 17 -22 15 -13 15 -12 4 9 -12 23 -21 28 -21
13z"/>
<path d="M2585 2480 c-3 -6 1 -7 9 -4 18 7 21 14 7 14 -6 0 -13 -4 -16 -10z"/>
<path d="M1915 1034 c-19 -15 -22 -21 -9 -15 18 9 52 41 43 41 -2 0 -17 -12
-34 -26z"/>
<path d="M3865 1820 c3 -5 11 -10 16 -10 6 0 7 5 4 10 -3 6 -11 10 -16 10 -6
0 -7 -4 -4 -10z"/>
<path d="M3401 1274 c0 -11 3 -14 6 -6 3 7 2 16 -1 19 -3 4 -6 -2 -5 -13z"/>
<path d="M2034 808 c-103 -106 -128 -143 -40 -58 61 59 133 140 124 140 -2 0
-40 -37 -84 -82z"/>
<path d="M1903 718 c-6 -7 -21 -33 -33 -58 -12 -25 -29 -53 -38 -62 -15 -18
-7 -24 15 -10 14 9 76 132 70 138 -2 3 -9 -1 -14 -8z"/>
<path d="M1985 686 c-17 -7 -35 -20 -42 -28 -9 -11 4 -9 53 8 36 12 68 24 71
28 12 11 -52 5 -82 -8z"/>
<path d="M1985 580 c31 -16 62 -27 67 -23 14 8 -70 52 -101 53 -16 0 -7 -9 34
-30z"/>
<path d="M4931 5058 c1 -72 5 -68 12 10 2 28 0 52 -4 52 -5 0 -9 -28 -8 -62z"/>
<path d="M4964 5025 c0 -55 1 -76 3 -47 2 29 2 74 0 100 -2 26 -3 2 -3 -53z"/>
<path d="M4952 4909 c-1 -9 -5 -32 -8 -50 -4 -28 -3 -31 6 -16 6 9 9 32 7 50
-2 17 -5 25 -5 16z"/>
<path d="M428 2105 c-69 -25 -84 -43 -83 -98 2 -73 23 -80 155 -51 88 19 137
40 151 67 19 34 3 40 -26 8 -28 -29 -75 -43 -75 -22 0 10 38 34 73 47 22 8 22
27 -1 47 -23 21 -139 22 -194 2z"/>
<path d="M841 1773 c-14 -48 -14 -95 -2 -73 11 18 25 110 18 110 -4 0 -11 -17
-16 -37z"/>
<path d="M777 1677 c-43 -56 -58 -69 -71 -58 -25 21 -72 15 -118 -14 -39 -25
-45 -32 -36 -48 8 -16 7 -17 -9 -9 -19 10 -43 6 -43 -8 0 -14 93 -70 117 -70
24 0 32 25 11 33 -13 6 16 11 40 8 8 -1 20 3 28 10 11 9 18 8 34 -6 19 -18 20
-17 20 9 0 15 14 59 31 97 36 82 34 106 -4 56z"/>
<path d="M165 1670 c-11 -4 -53 -14 -92 -20 l-73 -13 0 -58 c0 -70 4 -72 130
-72 107 0 144 15 148 60 2 23 -2 35 -16 44 -11 7 -18 18 -15 24 2 7 -7 19 -21
29 -28 18 -32 18 -61 6z"/>
<path d="M781 1524 c0 -11 3 -14 6 -6 3 7 2 16 -1 19 -3 4 -6 -2 -5 -13z"/>
<path d="M668 1385 c-26 -82 -34 -123 -29 -142 9 -34 13 -28 45 80 17 54 26
105 24 132 -3 42 -5 39 -40 -70z"/>
<path d="M771 1458 c-11 -30 -11 -31 8 -14 11 10 17 24 14 32 -7 20 -10 18
-22 -18z"/>
<path d="M4141 1373 c-23 -27 -41 -52 -41 -58 1 -11 66 60 81 88 16 30 2 19
-40 -30z"/>
<path d="M4155 1330 c-51 -51 -53 -65 -7 -31 23 16 70 81 60 81 -2 0 -26 -22
-53 -50z"/>
<path d="M315 1330 c-4 -6 10 -10 35 -10 25 0 39 4 35 10 -3 6 -19 10 -35 10
-16 0 -32 -4 -35 -10z"/>
<path d="M350 1270 c0 -13 30 -13 50 0 11 7 7 10 -17 10 -18 0 -33 -4 -33 -10z"/>
<path d="M526 1097 c-35 -51 -72 -145 -61 -155 6 -6 3 -11 44 73 42 88 62 135
57 135 -2 0 -20 -24 -40 -53z"/>
<path d="M3985 897 c-3 -12 -2 -51 3 -87 l10 -65 1 88 c1 87 -4 107 -14 64z"/>
<path d="M3932 783 c-12 -37 -22 -78 -22 -91 0 -42 29 -81 79 -107 38 -19 58
-38 87 -85 53 -87 54 -78 4 35 -13 28 -33 82 -47 120 -24 69 -24 69 -19 22 7
-62 -10 -53 -20 11 -7 41 -9 44 -15 22 -5 -17 -8 -5 -9 40 -2 104 -12 112 -38
33z"/>
<path d="M4657 776 c-15 -11 -17 -28 -15 -119 2 -58 6 -103 11 -100 4 2 7 14
8 26 1 20 2 20 8 -3 12 -45 22 5 10 58 -20 98 -22 122 -9 137 15 18 11 19 -13
1z"/>
<path d="M4713 733 c1 -24 -1 -44 -6 -46 -5 -1 -3 -31 3 -65 14 -70 4 -112
-27 -112 -10 0 -25 -5 -33 -10 -12 -8 -9 -10 13 -10 17 0 38 10 54 26 24 24
25 30 18 87 -4 34 -6 76 -6 94 0 17 -4 42 -9 55 -9 19 -10 16 -7 -19z"/>
<path d="M4786 583 c-2 -10 -7 -32 -11 -49 -3 -17 -20 -46 -37 -65 l-31 -34
-134 3 c-73 1 -133 -1 -133 -5 0 -4 65 -10 145 -12 151 -3 355 22 323 40 -9 5
-39 2 -72 -6 -31 -8 -67 -15 -79 -15 -21 0 -20 2 7 23 24 20 30 33 34 80 4 55
-1 75 -12 40z"/>
<path d="M585 570 c-3 -5 -1 -10 4 -10 6 0 11 5 11 10 0 6 -2 10 -4 10 -3 0
-8 -4 -11 -10z"/>
<path d="M460 550 c0 -13 23 -17 50 -9 21 6 22 7 5 9 -11 1 -28 3 -37 5 -10 2
-18 0 -18 -5z"/>
<path d="M0 519 c0 -5 5 -7 10 -4 5 3 10 8 10 11 0 2 -4 4 -10 4 -5 0 -10 -5
-10 -11z"/>
<path d="M3812 455 c10 -10 108 -43 108 -37 0 13 -62 42 -87 42 -15 0 -24 -2
-21 -5z"/>
<path d="M4398 397 c-29 -31 -92 -136 -86 -142 4 -5 69 78 101 129 24 37 14
45 -15 13z"/>
<path d="M4818 403 c7 -3 16 -2 19 1 4 3 -2 6 -13 5 -11 0 -14 -3 -6 -6z"/>
<path d="M4815 379 c-39 -12 -126 -13 -247 -4 -65 5 -98 4 -98 -3 0 -16 244
-27 319 -14 35 6 68 15 74 21 13 13 -5 13 -48 0z"/>
<path d="M4216 290 c41 -95 49 -109 39 -65 -10 40 -39 105 -59 130 -8 11 1
-18 20 -65z"/>
<path d="M4434 304 c-28 -14 -69 -43 -90 -65 l-39 -40 65 36 c36 20 74 45 85
54 35 31 43 32 90 11 26 -12 52 -19 58 -16 7 2 4 5 -5 5 -9 1 -23 8 -32 16
-27 27 -77 27 -132 -1z"/>
<path d="M4785 319 c-19 -7 -19 -8 2 -8 12 -1 28 -4 37 -7 9 -3 16 -2 16 4 0
14 -32 20 -55 11z"/>
<path d="M4076 258 l-17 -33 20 24 c18 20 27 41 18 41 -1 0 -11 -15 -21 -32z"/>
<path d="M4454 246 c-28 -19 -82 -64 -122 -100 -76 -70 -125 -99 -212 -127
l-55 -17 133 -1 c142 -1 133 -4 132 47 0 4 -8 7 -18 8 -9 1 -21 2 -26 3 -4 0
10 20 33 43 22 24 41 46 41 50 0 6 108 90 139 107 9 5 13 12 10 15 -3 3 -28
-10 -55 -28z"/>
<path d="M4615 261 c3 -6 22 -11 42 -11 44 0 41 5 -10 14 -27 5 -37 4 -32 -3z"/>
<path d="M2770 196 c-4 -13 -21 -33 -35 -44 l-27 -21 30 2 c17 1 29 4 27 6 -2
2 2 10 10 18 14 13 21 63 10 63 -3 0 -10 -11 -15 -24z"/>
<path d="M3297 183 c-4 -3 -7 -11 -7 -17 0 -6 5 -5 12 2 6 6 9 14 7 17 -3 3
-9 2 -12 -2z"/>
<path d="M3908 153 c7 -3 16 -2 19 1 4 3 -2 6 -13 5 -11 0 -14 -3 -6 -6z"/>
<path d="M540 78 c0 -51 13 -89 25 -76 9 9 -6 128 -16 128 -5 0 -9 -24 -9 -52z"/>
<path d="M3081 69 c-13 -39 -14 -69 -2 -69 10 0 27 88 18 96 -2 3 -10 -9 -16
-27z"/>
<path d="M3875 90 l-40 -7 40 0 c22 -1 54 3 70 7 l30 8 -30 -1 c-16 0 -48 -3
-70 -7z"/>
<path d="M2640 86 c0 -2 7 -6 15 -10 8 -3 15 -1 15 4 0 6 -7 10 -15 10 -8 0
-15 -2 -15 -4z"/>
<path d="M3265 40 c-27 -27 -34 -40 -23 -40 16 0 68 54 68 71 0 14 -3 12 -45
-31z"/>
<path d="M3636 72 c-2 -4 -1 -23 4 -42 l8 -35 1 43 c1 41 -3 50 -13 34z"/>
<path d="M3012 30 c0 -19 2 -27 5 -17 2 9 2 25 0 35 -3 9 -5 1 -5 -18z"/>
<path d="M2952 28 c-14 -14 -16 -28 -3 -28 5 0 11 9 14 20 6 23 5 24 -11 8z"/>
<path d="M4350 23 c0 -13 5 -23 10 -23 13 0 13 11 0 30 -8 12 -10 11 -10 -7z"/>
</g>
</svg>
