<svg version="1.2" baseProfile="tiny-ps" xmlns="http://www.w3.org/2000/svg" viewBox="0 0 2048 2048" width="700" height="700">
	<title>cachiql (1)-svg-svg</title>
	<style>
		tspan { white-space:pre }
		.shp0 { fill: #ffffff } 
		.shp1 { fill: #000000 } 
		.shp2 { fill: #117ebd } 
	</style>
	<path id="Shape 7" class="shp0" d="M1024 2048C457.73 2048 0 1590.27 0 1024C0 457.73 457.73 0 1024 0C1590.27 0 2048 457.73 2048 1024C2048 1590.27 1590.27 2048 1024 2048Z" />
	<path id="Shape 6" fill-rule="evenodd" class="shp1" d="M1023 2019C470.55 2019 24 1573.12 24 1021.5C24 856.81 63.8 701.55 134.35 564.76C76.37 688.19 43.98 826.07 43.98 971.63C43.98 1501.18 472.67 1929.23 1003.02 1929.23C1533.37 1929.23 1962.06 1501.18 1962.06 971.63C1962.06 564.91 1709.18 218.07 1351.59 79.04C1742.22 214.49 2022 584.87 2022 1021.5C2022 1573.12 1575.45 2019 1023 2019Z" />
	<path id="Shape 1" fill-rule="evenodd" class="shp2" d="M1003.02 1907.28C485.93 1907.28 67.96 1489.49 67.96 972.62C67.96 455.76 485.93 37.96 1003.02 37.96C1087.2 37.96 1168.75 49.04 1246.3 69.81C1185.27 56.79 1121.93 49.93 1056.97 49.93C559.76 49.93 157.87 451.23 157.87 947.69C157.87 1444.14 559.76 1845.44 1056.97 1845.44C1394.99 1845.44 1688.97 1659.96 1842.55 1385.19C1690.3 1694.69 1371.88 1907.28 1003.02 1907.28Z" />
	<path id="CachiQL" fill-rule="evenodd" class="shp1" d="M578.13 1074L398.91 1074C388.92 1074 380.43 1070.51 373.44 1063.53C366.45 1056.54 362.95 1048.06 362.95 1038.09L362.95 894.45C362.95 884.48 366.45 876 373.44 869.01C380.43 862.03 388.92 858.54 398.91 858.54L578.13 858.54L578.13 882.78L398.91 882.78C395.72 882.78 392.92 883.98 390.52 886.37C388.32 888.56 387.22 891.26 387.22 894.45L387.22 1038.09C387.22 1041.28 388.32 1044.08 390.52 1046.47C392.92 1048.66 395.72 1049.76 398.91 1049.76L578.13 1049.76L578.13 1074ZM785.22 1074L644.36 1074C634.37 1074 625.78 1070.51 618.59 1063.53C611.6 1056.34 608.1 1047.76 608.1 1037.79L608.1 974.95L760.35 974.95L760.35 936.64C760.35 933.45 759.15 930.76 756.75 928.56C754.56 926.17 751.86 924.97 748.66 924.97L608.1 924.97L608.1 900.43L748.66 900.43C758.85 900.43 767.44 904.02 774.43 911.21C781.62 918.19 785.22 926.67 785.22 936.64L785.22 1074ZM644.36 1049.46L760.35 1049.46L760.35 999.49L632.68 999.49L632.68 1037.79C632.68 1040.98 633.78 1043.78 635.97 1046.17C638.37 1048.36 641.17 1049.46 644.36 1049.46ZM989.92 1074L849.06 1074C839.07 1074 830.48 1070.51 823.29 1063.53C816.3 1056.34 812.8 1047.76 812.8 1037.79L812.8 936.64C812.8 926.67 816.3 918.19 823.29 911.21C830.48 904.02 839.07 900.43 849.06 900.43L989.32 900.43L989.32 924.97L849.06 924.97C845.86 924.97 843.06 926.17 840.67 928.56C838.47 930.76 837.37 933.45 837.37 936.64L837.37 1037.79C837.37 1040.98 838.47 1043.78 840.67 1046.17C843.06 1048.36 845.86 1049.46 849.06 1049.46L989.92 1049.46L989.92 1074ZM1042.07 1074L1017.49 1074L1017.49 843.58L1042.07 843.58L1042.07 900.43L1158.35 900.43C1168.14 900.43 1176.63 904.02 1183.82 911.21C1191.01 918.19 1194.61 926.67 1194.61 936.64L1194.61 1074L1170.04 1074L1170.04 936.64C1170.04 933.45 1168.84 930.76 1166.44 928.56C1164.25 926.17 1161.55 924.97 1158.35 924.97L1054.05 924.97C1050.86 924.97 1048.06 926.17 1045.66 928.56C1043.27 930.76 1042.07 933.45 1042.07 936.64L1042.07 1074ZM1243.17 1074L1218.59 1074L1218.59 900.43L1243.17 900.43L1243.17 1074ZM1243.17 868.12L1218.59 868.12L1218.59 843.58L1243.17 843.58L1243.17 868.12ZM1525.48 1074L1317.49 1074C1307.5 1074 1299.01 1070.51 1292.02 1063.53C1285.03 1056.54 1281.53 1048.06 1281.53 1038.09L1281.53 894.45C1281.53 884.48 1285.03 876 1292.02 869.01C1299.01 862.03 1307.5 858.54 1317.49 858.54L1461.35 858.54C1471.34 858.54 1479.83 862.03 1486.82 869.01C1493.81 876 1497.31 884.48 1497.31 894.45L1497.31 1049.76L1525.48 1049.76L1525.48 1074ZM1317.49 1049.76L1461.35 1049.76C1464.54 1049.76 1467.24 1048.66 1469.44 1046.47C1471.84 1044.08 1473.04 1041.28 1473.04 1038.09L1473.04 894.45C1473.04 891.26 1471.84 888.56 1469.44 886.37C1467.24 883.98 1464.54 882.78 1461.35 882.78L1317.49 882.78C1314.3 882.78 1311.5 883.98 1309.1 886.37C1306.9 888.56 1305.8 891.26 1305.8 894.45L1305.8 1038.09C1305.8 1041.28 1306.9 1044.08 1309.1 1046.47C1311.5 1048.66 1314.3 1049.76 1317.49 1049.76ZM1763.15 1074L1547.36 1074L1547.36 858.24L1571.64 858.24L1571.64 1049.76L1763.15 1049.76L1763.15 1074Z" />
</svg>