<?xml version="1.0" standalone="no"?>
<!DOCTYPE svg PUBLIC "-//W3C//DTD SVG 20010904//EN"
 "http://www.w3.org/TR/2001/REC-SVG-20010904/DTD/svg10.dtd">
<svg version="1.0" xmlns="http://www.w3.org/2000/svg"
 width="512.000000pt" height="512.000000pt" viewBox="0 0 512.000000 512.000000"
 preserveAspectRatio="xMidYMid meet">

<g transform="translate(0.000000,512.000000) scale(0.100000,-0.100000)"
fill="#000000" stroke="none">
<path d="M636 5087 c-7 -19 -17 -45 -21 -58 -4 -13 -21 -51 -38 -84 -55 -110
-98 -229 -107 -303 -5 -40 -12 -77 -14 -81 -3 -4 -10 -38 -16 -74 -8 -55 -8
-73 5 -103 l15 -36 -48 28 c-141 81 -269 192 -356 308 l-51 69 -3 -61 -3 -61
82 -78 c88 -84 185 -159 260 -199 25 -14 52 -37 58 -52 38 -83 54 -358 37
-627 -6 -97 -5 -131 8 -180 9 -32 16 -90 16 -127 0 -38 11 -125 25 -194 14
-69 25 -138 25 -154 0 -38 37 -154 70 -220 15 -30 30 -75 34 -100 3 -25 11
-60 17 -78 19 -57 4 -58 -27 -2 -27 50 -29 52 -32 26 -4 -29 1 -29 -92 -9 -43
10 -9 -13 48 -32 29 -9 56 -23 59 -31 3 -8 9 -12 13 -9 13 8 32 -22 56 -93 21
-61 22 -65 4 -42 -11 14 -22 33 -26 43 -7 22 -4 23 -371 -19 l-263 -29 0 -694
0 -694 47 6 c151 18 660 89 737 103 208 36 379 54 394 42 15 -13 -230 -52
-895 -144 l-283 -39 0 -113 0 -114 53 7 c28 3 99 13 156 21 57 8 105 13 108
11 5 -6 -89 -22 -219 -38 l-98 -11 0 -384 0 -384 533 0 534 0 24 26 c61 66
239 164 374 207 71 22 166 37 318 51 45 3 49 2 59 -23 16 -43 5 -125 -25 -168
-14 -21 -31 -50 -36 -66 l-11 -27 430 0 429 0 4 22 4 23 8 -22 c9 -27 22 -30
28 -6 4 17 5 17 6 1 1 -14 10 -18 45 -18 l44 0 -3 97 c-2 62 -1 87 5 68 4 -16
8 -50 9 -75 1 -25 4 -55 7 -67 l6 -23 807 0 806 0 114 101 c63 55 125 114 138
131 24 34 30 58 13 58 -6 0 -10 37 -10 90 0 71 -4 99 -20 130 -22 43 -32 51
-29 22 1 -9 1 -26 0 -36 -1 -18 -3 -18 -23 4 l-23 25 -5 -55 -6 -55 -17 54
c-9 30 -17 86 -17 125 -1 39 -7 88 -14 109 -8 22 -10 37 -4 37 18 0 -14 31
-51 49 -20 10 -66 25 -102 35 -36 10 -85 30 -108 46 l-43 28 128 -5 c71 -2
151 -9 178 -14 27 -5 51 -8 53 -6 1 2 -3 17 -11 33 -17 34 -176 577 -199 678
-33 146 5 36 114 -331 103 -347 116 -383 139 -393 53 -24 221 -144 350 -250
74 -62 143 -116 153 -121 16 -9 17 104 17 2311 l0 2320 -99 0 -98 0 -6 -29
c-3 -16 -35 -105 -70 -197 -36 -93 -88 -233 -117 -312 -29 -79 -54 -141 -56
-139 -2 2 12 51 32 108 89 253 184 541 184 553 0 11 -21 14 -93 14 l-92 1
-164 -492 c-170 -512 -212 -635 -312 -926 l-60 -174 32 -91 c17 -50 55 -136
84 -191 59 -112 70 -144 84 -261 5 -44 21 -120 36 -169 28 -98 51 -338 43
-461 -7 -113 -76 -214 -146 -214 -24 0 -28 14 -31 100 -1 47 1 61 9 50 5 -8
10 -23 10 -32 0 -9 5 -20 11 -24 9 -5 10 11 5 59 -5 42 -4 67 3 72 6 3 11 1
11 -4 0 -18 28 -12 43 9 l14 21 6 -22 c3 -11 10 -18 15 -15 7 4 9 240 3 379
-2 55 -19 25 -26 -45 -9 -99 -21 -141 -46 -164 -15 -14 -19 -26 -15 -49 l6
-30 -35 37 c-48 52 -51 73 -21 167 21 66 26 101 25 174 -1 51 -4 83 -6 73 -9
-36 -32 40 -39 127 -5 81 -5 81 11 51 9 -18 28 -43 42 -55 l26 -24 -5 65 c-4
51 -15 85 -50 155 -25 50 -56 119 -69 155 -20 55 -24 61 -29 40 -10 -40 -1
-89 31 -180 46 -129 45 -133 -7 -30 l-48 95 -1 120 c-1 66 2 127 6 135 5 8 33
90 63 182 31 91 67 197 81 234 14 37 45 135 70 218 41 141 42 149 20 124 -13
-16 -28 -28 -33 -28 -13 0 -26 -34 -53 -137 -23 -92 -28 -98 -69 -94 -9 1 -11
-1 -5 -6 12 -10 11 -30 -3 -66 -7 -16 -12 -33 -12 -38 0 -5 -4 -9 -10 -9 -5 0
-9 -3 -8 -7 1 -5 -4 -21 -11 -38 -7 -16 -13 -43 -13 -60 1 -21 -2 -25 -8 -15
-8 12 -10 10 -10 -7 0 -13 -6 -23 -13 -23 -7 0 -23 -11 -35 -25 -23 -27 -29
-40 -12 -30 5 3 10 2 10 -3 0 -13 -47 -35 -59 -28 -6 4 -11 14 -11 22 0 8 -4
14 -9 14 -5 0 -18 39 -30 88 -20 81 -70 237 -71 218 0 -24 125 -508 128 -493
12 60 61 -66 60 -155 0 -38 -2 -68 -4 -68 -2 0 -16 19 -30 42 -16 25 -31 71
-40 119 -7 43 -21 95 -29 116 -9 21 -32 101 -51 178 -56 223 -109 401 -163
542 -63 167 -65 171 -151 278 -40 50 -79 104 -88 120 -8 17 -28 46 -43 65 -15
19 -44 67 -65 105 -20 39 -60 107 -88 153 -47 77 -53 82 -85 82 -38 0 -38 1
26 -72 17 -20 39 -52 48 -70 l16 -33 -21 25 c-12 14 -45 53 -73 87 l-52 62
-94 0 -94 1 64 -68 c143 -153 296 -373 340 -492 11 -30 29 -70 40 -89 14 -24
16 -31 5 -22 -8 7 -33 47 -54 89 -72 140 -121 227 -148 257 -27 32 -24 23 11
-35 67 -111 77 -132 58 -122 -11 6 -28 27 -38 46 -20 37 -39 50 -28 19 6 -16
4 -16 -16 2 -19 16 -24 17 -31 5 -14 -22 -12 -43 6 -68 24 -35 74 -191 74
-233 0 -45 -26 -61 -51 -30 -23 28 -31 15 -13 -20 16 -32 35 -44 99 -64 53
-15 135 -62 135 -76 0 -6 -6 -5 -17 1 -33 19 -126 51 -131 45 -3 -3 -3 -5 0
-5 3 0 49 -20 103 -45 l97 -45 -23 37 c-21 36 -41 57 -91 96 -13 10 -16 17 -9
17 8 0 3 10 -13 25 -14 13 -26 30 -26 36 0 7 -6 20 -14 28 -13 16 -39 81 -31
81 2 0 18 -26 36 -57 17 -32 60 -87 95 -123 35 -36 70 -82 78 -101 8 -19 24
-43 37 -54 57 -52 175 -245 165 -271 -5 -13 37 -103 64 -139 4 -5 20 -39 35
-75 15 -36 71 -157 125 -270 149 -312 215 -486 224 -600 3 -36 3 -54 0 -40
-26 127 -192 546 -210 528 -5 -6 42 -123 62 -154 17 -25 46 -125 39 -132 -3
-3 -7 4 -11 14 -14 45 -48 114 -69 140 -40 50 -36 21 6 -48 56 -91 63 -128 38
-197 -19 -54 -43 -92 -39 -61 12 83 -43 10 -70 -95 -7 -27 -23 -61 -34 -75
-31 -35 -50 -76 -42 -89 4 -6 4 -11 -1 -12 -4 0 -20 -2 -35 -4 -16 -2 -28 1
-28 6 0 5 -11 9 -25 9 -17 0 -25 -6 -25 -17 -1 -31 -30 17 -30 48 0 15 -5 31
-11 34 -6 4 -8 14 -5 22 4 9 1 13 -6 10 -18 -6 -10 -99 10 -119 7 -7 13 -28
13 -47 l1 -36 8 30 8 30 1 -29 c0 -16 16 -52 35 -80 19 -28 37 -62 40 -76 6
-23 5 -23 -6 -6 -7 10 -30 41 -51 67 -35 46 -40 49 -85 49 -42 1 -45 2 -29 14
12 9 14 16 8 21 -6 3 -11 1 -11 -4 0 -20 -32 -11 -53 15 -22 29 -89 63 -122
64 -13 0 -5 -9 25 -26 54 -31 90 -63 90 -80 0 -20 21 -28 31 -13 5 8 9 9 9 3
0 -6 14 -14 32 -18 35 -7 98 -68 124 -119 l16 -32 -38 35 c-21 19 -44 41 -52
48 -12 11 -34 16 -54 13 -5 0 -8 4 -8 9 0 6 5 10 12 10 6 0 9 3 5 6 -3 3 -14
1 -24 -5 -10 -6 -14 -11 -9 -11 5 0 3 -6 -3 -14 -10 -11 -7 -17 10 -30 13 -8
25 -13 28 -9 3 3 0 8 -6 10 -21 8 -15 20 9 18 29 -2 34 -45 5 -45 -13 0 -17
-5 -13 -15 6 -17 -19 -21 -29 -5 -3 6 -10 10 -16 10 -13 0 -11 -37 2 -45 6 -4
8 -13 5 -20 -2 -7 2 -21 9 -32 7 -10 16 -37 20 -59 4 -21 9 -47 12 -58 3 -11
1 -16 -5 -12 -5 3 -12 20 -16 37 -4 22 -11 30 -23 27 -23 -5 -19 -57 8 -111
11 -21 17 -42 14 -48 -4 -5 -1 -17 7 -26 11 -15 11 -16 -5 -10 -11 4 -31 10
-45 13 -27 5 -27 5 3 -12 31 -18 70 -54 126 -120 33 -38 33 -38 -19 8 -53 47
-237 151 -256 145 -5 -2 25 -25 67 -52 42 -27 75 -50 73 -52 -2 -2 -35 10 -72
27 -38 17 -76 29 -85 27 -10 -3 -41 2 -70 9 -52 14 -83 13 -37 -1 33 -10 187
-100 223 -130 l30 -26 -29 11 c-16 6 -50 26 -75 44 -60 44 -109 68 -121 61 -6
-3 -25 8 -42 24 -36 34 -49 25 -24 -14 9 -14 12 -25 7 -25 -11 0 -33 26 -48
59 l-12 26 6 -30 c3 -16 12 -42 19 -56 17 -33 103 -103 167 -136 66 -33 52
-41 -17 -10 -31 15 -81 51 -114 84 -50 49 -63 69 -82 128 -12 39 -27 75 -32
80 -10 10 -9 4 22 -117 9 -38 12 -68 7 -68 -5 0 -6 -15 -3 -32 5 -24 -5 -12
-33 43 -40 76 -52 91 -84 102 -16 6 -17 2 -12 -31 4 -20 9 -46 11 -57 3 -14 0
-12 -11 7 -8 15 -20 69 -25 120 -5 51 -17 111 -25 133 -18 50 -18 106 -1 170
10 38 14 45 19 30 4 -11 2 -38 -3 -60 -9 -41 -5 -59 10 -36 6 11 9 10 13 -5 4
-16 5 -16 6 3 1 20 54 120 70 133 3 3 7 10 7 15 1 6 5 20 9 33 6 21 -2 27 -27
23 -5 0 -8 22 -8 50 0 36 -5 55 -16 64 -13 9 -15 18 -8 38 9 26 10 26 37 12
27 -14 28 -13 22 5 -4 12 -2 20 4 20 6 0 11 12 11 26 0 14 4 23 10 19 6 -3 8
-16 5 -28 -2 -12 2 -35 10 -52 l14 -30 -4 38 c-4 39 -4 39 17 21 19 -18 20
-18 34 1 8 10 14 21 14 25 0 11 94 33 135 32 38 -2 44 1 57 29 l15 31 47 -49
47 -48 -20 48 c-12 27 -21 56 -20 65 0 11 2 12 6 5 7 -20 23 -15 23 7 0 14 5
18 17 13 11 -4 14 -3 9 6 -5 7 -15 9 -25 6 -30 -12 -52 -14 -46 -4 4 5 10 7
15 4 4 -3 13 2 20 10 7 8 20 15 29 15 9 0 21 4 27 9 5 4 21 11 37 15 23 5 27
3 27 -14 0 -11 -4 -20 -10 -20 -5 0 -10 -5 -10 -11 0 -5 5 -7 12 -3 6 4 17 -1
24 -10 11 -16 13 -16 19 3 3 11 1 29 -5 41 -7 12 -7 26 -2 36 7 13 11 12 24
-8 8 -13 21 -41 28 -63 25 -78 29 -83 29 -37 1 24 -10 69 -24 104 -29 70 -34
118 -11 99 19 -16 23 -8 35 84 7 47 19 90 30 105 29 40 70 126 80 167 8 33 10
35 16 16 4 -13 12 -20 21 -16 8 3 14 -1 14 -8 0 -10 5 -8 17 4 16 16 16 18 -4
45 -12 16 -45 87 -73 158 -28 71 -78 183 -110 249 -54 110 -65 126 -137 190
-43 39 -90 78 -103 87 l-25 17 23 0 c35 1 79 -25 104 -62 28 -40 108 -132 108
-124 0 14 -105 174 -130 198 -15 15 -47 33 -71 41 -98 34 -216 67 -247 71 -50
6 -20 -18 53 -42 l60 -19 -68 -1 c-46 -1 -85 6 -125 20 -31 12 -73 24 -92 26
-34 5 -33 4 17 -23 29 -15 51 -29 50 -31 -3 -3 -101 28 -137 44 -20 8 -59 5
-92 -9 -48 -18 -32 -30 31 -23 35 4 67 3 77 -3 19 -10 5 -15 -71 -25 -11 -1
-26 -6 -33 -11 -37 -23 -151 -18 -256 11 -12 3 -17 1 -14 -8 3 -8 19 -17 36
-21 98 -24 101 -26 39 -27 -32 -1 -67 4 -78 9 -28 15 -149 25 -149 13 0 -6
-13 -13 -30 -16 -18 -4 -30 -13 -30 -22 0 -23 -40 -19 -96 10 -27 14 -56 27
-64 30 -22 9 40 -54 72 -73 20 -11 26 -22 22 -34 -4 -14 0 -18 20 -18 14 0 28
-5 32 -12 9 -14 -111 -5 -130 11 -7 6 -17 7 -21 3 -5 -4 -5 -2 -1 5 7 12 -31
39 -41 29 -3 -2 -17 0 -32 5 -33 13 -141 38 -141 33 0 -2 12 -10 28 -18 25
-14 26 -15 5 -16 -13 0 -45 9 -73 19 -39 15 -50 16 -50 6 0 -7 22 -21 48 -29
56 -19 92 -42 92 -59 0 -7 -4 -6 -11 3 -15 22 -2 -52 22 -120 27 -78 24 -81
-20 -13 -37 57 -118 124 -104 85 4 -9 11 -20 17 -24 8 -5 7 -11 -1 -19 -10
-10 -16 -4 -29 27 -9 21 -19 43 -22 48 -3 5 3 6 13 2 18 -7 18 -6 0 14 -10 11
-14 20 -10 20 4 0 1 8 -7 18 -23 26 -41 79 -32 94 4 7 -2 4 -14 -6 -28 -24
-28 -50 -1 -87 11 -16 17 -29 13 -29 -3 0 -2 -6 4 -12 6 -7 19 -37 31 -66 l20
-54 -27 7 c-15 4 -42 7 -60 6 -24 -1 -31 2 -26 10 5 8 3 9 -6 4 -7 -4 -15 -3
-19 4 -11 16 -75 27 -69 11 8 -24 -113 -137 -177 -165 -36 -16 -55 -29 -48
-33 7 -4 -23 -16 -67 -28 -43 -11 -77 -16 -74 -12 3 4 10 8 16 8 15 0 81 32
96 46 31 31 4 22 -101 -31 -33 -17 -59 -35 -59 -40 1 -20 -43 -34 -89 -29 -29
4 -49 2 -53 -5 -4 -6 -1 -11 6 -11 29 -1 -64 -34 -175 -61 -110 -27 -185 -55
-174 -65 2 -2 19 2 38 10 43 17 163 40 181 33 7 -2 -13 -10 -44 -17 -32 -7
-58 -16 -58 -20 0 -4 -17 -10 -38 -14 -43 -6 -162 -63 -162 -76 0 -5 25 2 55
16 30 14 63 24 73 22 10 -2 -14 -18 -61 -41 -44 -20 -83 -34 -88 -31 -6 3 -1
21 12 42 l21 37 -27 -25 c-14 -14 -45 -62 -68 -108 -32 -65 -42 -99 -47 -155
-6 -67 -7 -70 -18 -44 -7 16 -12 39 -12 52 0 13 -5 36 -11 52 -6 15 -15 78
-19 138 -11 156 -29 299 -46 380 -8 39 -22 144 -31 235 -24 256 -6 362 102
618 26 61 64 138 84 170 48 74 167 199 277 293 48 41 101 86 118 101 l31 27
-257 1 -258 0 -14 -33z m2480 -9 l29 -33 -32 29 c-31 28 -38 36 -30 36 2 0 16
-15 33 -32z m-2196 -7 c-8 -5 -26 -12 -40 -15 l-25 -7 25 15 c14 9 32 15 40
15 13 0 13 -1 0 -8z m2394 -467 c9 -24 7 -28 -9 -14 -17 14 -20 30 -6 30 5 0
12 -7 15 -16z m106 -130 c28 -42 56 -88 61 -103 8 -24 6 -23 -21 9 -64 73 -82
101 -90 135 -4 19 -6 35 -4 35 1 0 26 -34 54 -76z m-42 -169 c-3 -3 -9 2 -12
12 -6 14 -5 15 5 6 7 -7 10 -15 7 -18z m-293 -230 c56 -18 10 -19 -70 -1 l-60
14 45 0 c25 0 63 -5 85 -13z m-427 -72 c-10 -2 -26 -2 -35 0 -10 3 -2 5 17 5
19 0 27 -2 18 -5z m-43 -112 c26 -6 31 -9 15 -9 -14 -1 -43 3 -65 7 -26 6 -31
9 -15 9 14 1 43 -3 65 -7z m570 -112 c-39 -12 -250 -39 -290 -38 -40 2 -18 7
119 29 61 10 131 18 156 18 42 0 43 0 15 -9z m-1071 -34 c18 -12 31 -35 42
-74 31 -111 37 -124 85 -177 27 -30 49 -61 49 -69 0 -18 72 -108 160 -200 37
-38 81 -97 98 -130 18 -33 45 -74 61 -91 16 -17 35 -44 44 -60 8 -16 39 -56
68 -89 52 -60 88 -124 89 -158 0 -11 25 -47 56 -80 84 -93 113 -162 95 -222
-9 -28 -9 -29 -10 -5 -2 49 -21 -2 -21 -57 0 -28 -4 -55 -10 -58 -5 -3 -10 0
-10 7 0 10 -3 9 -9 -1 -8 -13 -12 -13 -27 0 -15 13 -16 12 -9 -11 l7 -25 -24
23 c-48 44 -135 54 -203 23 -59 -26 -92 -71 -106 -142 -11 -54 -14 -60 -33
-55 -14 3 -29 -3 -45 -19 -13 -14 -29 -25 -35 -25 -7 0 -47 18 -89 40 -99 53
-147 59 -215 30 -55 -24 -92 -60 -92 -90 0 -10 -7 -21 -16 -24 -8 -3 -12 -10
-9 -16 8 -14 -26 -1 -47 18 -10 8 -18 25 -18 38 0 13 -4 26 -10 29 -6 3 -7 -1
-4 -10 12 -29 -20 -11 -34 20 -38 82 0 286 69 378 33 43 39 59 39 100 0 43 -2
48 -15 37 -9 -8 -15 -30 -15 -59 0 -41 -5 -51 -37 -82 -25 -23 -34 -28 -29
-15 14 39 28 287 21 353 -6 53 -10 63 -16 43 -17 -58 -8 49 16 194 14 83 25
169 25 193 0 23 5 63 12 88 9 35 9 66 -1 145 -9 72 -9 105 -2 114 9 11 15 54
21 137 0 4 10 19 22 34 17 22 27 26 54 22 18 -3 44 -13 58 -22z m1065 -20 c-8
-7 -190 -35 -224 -34 l-30 1 33 9 c63 19 233 37 221 24z m293 -27 c38 -11 134
-85 124 -96 -3 -2 -21 9 -41 26 -53 47 -100 57 -275 57 -142 -1 -162 -3 -238
-29 -46 -15 -86 -25 -89 -23 -9 9 203 71 267 78 81 9 200 3 252 -13z m-1551
-123 c-6 -24 -11 -60 -11 -80 0 -24 -4 -34 -11 -29 -13 8 -5 105 14 156 16 46
22 10 8 -47z m1404 -6 c5 -7 -5 -9 -31 -5 -50 8 -56 16 -11 16 20 0 39 -5 42
-11z m-120 -8 c-22 -4 -56 -11 -75 -15 -24 -6 -32 -5 -25 2 12 13 47 19 100
19 l40 0 -40 -6z m-1862 -28 c-7 -2 -21 -2 -30 0 -10 3 -4 5 12 5 17 0 24 -2
18 -5z m1823 -101 c-4 -3 -14 2 -24 12 -16 18 -16 18 6 6 13 -6 21 -14 18 -18z
m-1757 -176 c-10 -9 -109 -56 -109 -51 0 6 91 54 104 55 5 0 7 -2 5 -4z m-143
-25 c-3 -5 -50 -38 -103 -74 -54 -36 -124 -89 -155 -117 -32 -29 -58 -47 -58
-42 0 6 28 36 63 67 53 48 58 56 35 51 -16 -4 -28 -2 -28 4 0 5 9 10 19 10 11
0 66 25 123 55 113 59 112 59 104 46z m149 -91 c-44 -4 -91 -10 -105 -15 -14
-4 -22 -4 -18 0 13 13 72 23 138 23 l65 -1 -80 -7z m-458 -6 c-3 -3 -12 -4
-19 -1 -8 3 -5 6 6 6 11 1 17 -2 13 -5z m273 2 c0 -2 -35 -27 -77 -54 -43 -28
-100 -67 -128 -87 l-50 -37 54 52 c75 71 201 151 201 126z m-417 -33 c-7 -2
-21 -2 -30 0 -10 3 -4 5 12 5 17 0 24 -2 18 -5z m3376 -123 c12 -40 19 -75 17
-77 -5 -6 -56 148 -56 167 1 27 17 -11 39 -90z m-451 49 c-3 -8 -7 -3 -11 10
-4 17 -3 21 5 13 5 -5 8 -16 6 -23z m-2718 -94 c-13 -14 -26 -22 -29 -19 -3 3
5 14 19 24 34 27 38 25 10 -5z m-315 -106 c8 -52 27 -158 42 -236 28 -143 40
-167 69 -142 11 9 20 6 39 -14 17 -16 42 -27 73 -31 26 -4 89 -27 139 -53 100
-49 92 -40 152 -173 9 -20 10 -12 5 44 -6 65 -6 69 12 61 11 -4 30 -7 43 -6
13 0 30 -4 37 -10 11 -9 14 -6 14 15 0 39 27 32 40 -11 20 -60 30 -62 30 -5 0
38 4 52 14 52 8 0 16 -5 18 -11 2 -6 21 6 43 27 52 49 98 67 165 65 49 -1 58
-5 83 -33 15 -18 27 -38 27 -45 0 -7 5 -13 11 -13 13 0 3 34 -23 78 -11 18
-18 35 -15 38 8 8 45 -49 53 -82 l8 -29 7 25 c7 24 7 24 14 -8 6 -28 11 -33
29 -28 20 5 21 2 18 -78 -5 -115 8 -151 82 -245 62 -78 77 -107 92 -181 3 -19
15 -52 25 -72 23 -44 25 -72 4 -44 -14 19 -15 18 -15 -11 0 -38 -9 -63 -22
-63 -6 0 -8 13 -6 30 3 17 1 30 -4 30 -4 0 -8 -11 -8 -25 0 -39 -17 -30 -25
13 -11 67 -22 64 -21 -7 1 -73 4 -67 -63 -123 -30 -25 -34 -23 -29 16 2 20 0
32 -5 29 -6 -4 -7 -47 -3 -105 4 -70 3 -97 -5 -93 -5 4 -19 -1 -30 -11 -10 -9
-19 -12 -19 -7 0 6 7 16 15 23 19 15 19 50 2 74 -10 14 -20 16 -37 11 -31 -10
-103 -83 -105 -106 -1 -9 -18 -38 -38 -62 -34 -41 -37 -51 -37 -106 0 -95 -21
-84 -56 29 -18 57 -17 60 3 60 13 0 14 3 6 11 -21 21 -43 -13 -37 -57 5 -37 4
-38 -10 -20 -9 11 -16 25 -16 31 0 18 -36 56 -44 47 -4 -4 -6 -2 -4 3 3 11
-83 147 -89 141 -3 -2 8 -28 23 -58 32 -64 45 -130 21 -110 -8 7 -18 25 -22
40 -4 15 -19 46 -35 70 -21 32 -27 52 -24 77 2 19 0 37 -6 40 -5 3 -10 15 -10
26 0 12 -5 19 -12 16 -7 -2 -13 -13 -12 -25 0 -12 -3 -19 -8 -16 -4 3 -8 12
-8 20 0 8 -14 39 -31 69 -22 40 -41 59 -73 74 -64 31 -144 95 -178 140 -16 23
-35 41 -41 41 -7 0 -6 -4 2 -9 12 -8 12 -12 2 -24 -10 -12 -7 -27 14 -79 37
-87 40 -100 14 -54 -46 83 -117 267 -152 391 -54 193 -161 892 -131 863 3 -3
11 -48 19 -99z m475 97 c0 -2 -8 -10 -17 -17 -16 -13 -17 -12 -4 4 13 16 21
21 21 13z m170 -55 c0 -34 -16 -15 -25 29 -7 33 -6 34 9 15 8 -11 16 -31 16
-44z m-220 16 c0 -1 -30 -32 -67 -67 l-68 -65 65 68 c60 62 70 72 70 64z
m3117 -79 c-3 -8 -6 -5 -6 6 -1 11 2 17 5 13 3 -3 4 -12 1 -19z m-2383 -50
c-4 -29 -11 -60 -16 -68 -8 -15 -2 64 9 103 9 35 13 15 7 -35z m-677 -4 c-3
-3 -12 -4 -19 -1 -8 3 -5 6 6 6 11 1 17 -2 13 -5z m2253 -38 c0 -11 -19 -15
-25 -6 -3 5 1 10 9 10 9 0 16 -2 16 -4z m-2100 -91 c0 -2 -9 -9 -20 -15 -12
-6 -20 -7 -20 -1 0 5 8 12 18 14 9 3 18 5 20 6 1 0 2 -1 2 -4z m2560 -66 c0
-21 -4 -39 -10 -39 -5 0 -10 21 -10 46 0 27 4 43 10 39 6 -3 10 -24 10 -46z
m-877 9 c9 -31 2 -33 -11 -3 -6 14 -8 25 -3 25 5 0 11 -10 14 -22z m-1498
-154 c-34 -28 -65 -47 -65 -39 0 6 81 65 89 65 3 -1 -7 -12 -24 -26z m-118
-60 c-3 -3 -12 -4 -19 -1 -8 3 -5 6 6 6 11 1 17 -2 13 -5z m-139 -31 c-10 -2
-26 -2 -35 0 -10 3 -2 5 17 5 19 0 27 -2 18 -5z m2812 -140 c59 -125 60 -150
1 -39 -28 53 -38 86 -27 86 2 0 14 -21 26 -47z m-3394 -42 c19 -14 21 -18 7
-12 -27 14 -63 59 -63 80 1 9 7 2 14 -15 8 -17 27 -41 42 -53z m-221 39 c13
-5 14 -9 5 -9 -8 0 -24 4 -35 9 -13 5 -14 9 -5 9 8 0 24 -4 35 -9z m3600 -94
c19 -54 40 -107 46 -118 6 -11 9 -22 6 -24 -7 -7 -97 210 -97 231 0 29 7 14
45 -89z m159 -31 c5 -13 4 -17 -3 -10 -15 16 -81 128 -81 138 0 12 73 -100 84
-128z m416 -380 c45 -143 125 -399 177 -570 52 -171 102 -334 112 -362 18 -50
12 -74 -7 -35 -5 9 -58 175 -116 367 -59 193 -149 485 -201 650 -113 364 -125
404 -124 424 1 17 34 -80 159 -474z m-620 373 c6 -10 7 -18 3 -18 -9 0 -63 74
-63 87 0 9 44 -42 60 -69z m-53 -23 l16 -30 -23 20 -23 20 11 -21 c12 -22 42
-51 49 -46 4 3 63 -67 63 -75 0 -3 -18 11 -40 30 -56 47 -110 119 -116 153
l-5 29 26 -25 c15 -14 34 -38 42 -55z m-265 20 c44 -8 108 -36 108 -47 0 -10
-13 -10 -25 1 -6 4 -32 14 -60 20 -49 12 -85 35 -85 53 0 5 7 3 15 -5 8 -9 29
-18 47 -22z m259 -105 c20 -19 53 -50 75 -68 l39 -33 -38 27 c-43 31 -56 28
-29 -7 31 -41 83 -131 79 -136 -7 -6 -101 140 -102 160 -1 10 -13 29 -28 43
-26 24 -97 127 -97 141 0 4 15 -15 33 -42 17 -27 48 -65 68 -85z m-3114 -55
c14 -38 48 -119 75 -179 49 -107 88 -209 88 -230 0 -5 -15 10 -32 34 -18 25
-40 52 -49 61 -9 9 -24 40 -34 68 -9 28 -19 51 -22 51 -20 0 90 -252 123 -281
11 -10 28 -19 39 -21 10 -2 28 -17 40 -35 11 -17 34 -54 52 -82 l32 -51 -38 0
c-52 0 -121 38 -153 85 -15 22 -35 72 -44 110 -9 39 -29 111 -44 160 -95 305
-95 305 -90 430 l2 50 14 -50 c8 -27 26 -81 41 -120z m3303 85 c11 -22 18 -40
15 -40 -2 0 -14 18 -25 40 -11 22 -18 40 -15 40 2 0 14 -18 25 -40z m690 20
c11 -6 25 -20 31 -32 l11 -21 -31 22 c-47 34 -54 54 -11 31z m-1042 -72 c58
-86 54 -88 -12 -5 -21 26 -34 47 -28 47 6 0 24 -19 40 -42z m-333 -6 c-3 -3
-11 0 -18 7 -9 10 -8 11 6 5 10 -3 15 -9 12 -12z m686 -19 c13 -21 28 -45 33
-53 8 -13 7 -13 -8 -1 -17 14 -61 91 -52 91 2 0 15 -17 27 -37z m-766 -9 l30
-26 -32 16 c-17 9 -35 20 -38 26 -11 18 9 10 40 -16z m553 -36 c12 -27 17 -48
12 -48 -4 0 -15 21 -24 47 -26 74 -20 75 12 1z m543 26 c5 -15 8 -29 5 -31 -2
-2 -8 10 -14 26 -13 38 -5 41 9 5z m-1849 -31 c37 -39 68 -92 68 -115 0 -7
-12 7 -26 32 -14 25 -42 62 -62 83 -20 20 -32 37 -26 37 5 0 26 -17 46 -37z
m1054 -85 c12 -18 -96 46 -134 80 -30 26 -21 23 46 -19 45 -28 85 -56 88 -61z
m-1106 37 c0 -11 -14 7 -31 40 -7 13 -3 12 10 -5 11 -14 21 -29 21 -35z m1314
39 c3 -8 2 -12 -4 -9 -6 3 -10 10 -10 16 0 14 7 11 14 -7z m1 -72 c5 -22 63
-151 92 -207 9 -16 34 -55 57 -85 87 -116 81 -137 -7 -25 -32 41 -66 98 -76
128 -10 29 -27 69 -36 87 -9 18 -30 65 -46 104 -22 54 -24 65 -9 46 10 -14 22
-35 25 -48z m120 6 c16 -24 22 -38 14 -31 -15 12 -53 73 -46 73 2 0 17 -19 32
-42z m-710 7 c39 -32 28 -32 -15 0 -19 14 -30 25 -24 25 5 0 23 -11 39 -25z
m-756 -40 c0 -5 -6 1 -14 15 -8 14 -14 30 -14 35 0 6 6 -1 14 -15 8 -14 14
-29 14 -35z m551 11 c0 -5 -7 -1 -15 10 -8 10 -14 24 -14 29 0 6 6 1 14 -9 8
-11 15 -24 15 -30z m1475 -83 c79 -256 257 -830 271 -872 20 -64 17 -73 -10
-21 -28 53 -103 293 -221 705 -91 319 -87 305 -80 305 2 0 21 -53 40 -117z
m-395 62 c14 -19 14 -19 -2 -6 -10 7 -18 18 -18 24 0 6 1 8 3 6 1 -2 9 -13 17
-24z m-175 -72 c5 -48 5 -48 -14 17 -25 79 -25 80 -6 53 8 -12 17 -43 20 -70z
m-251 35 c20 -16 36 -37 36 -46 0 -12 -7 -9 -27 13 -16 17 -41 40 -58 52 -23
17 -25 21 -9 17 12 -3 38 -19 58 -36z m46 17 c13 -14 21 -25 18 -25 -2 0 -15
11 -28 25 -13 14 -21 25 -18 25 2 0 15 -11 28 -25z m-586 -25 c32 -36 42 -50
33 -50 -2 0 -23 20 -47 45 -24 25 -39 45 -33 45 6 0 27 -18 47 -40z m131 -5
c19 -15 18 -15 -12 -1 -17 9 -35 21 -39 27 -8 13 21 -1 51 -26z m736 9 c13
-14 17 -23 9 -19 -13 5 -46 45 -37 45 2 0 14 -11 28 -26z m-800 -20 c23 -25
27 -33 13 -26 -18 9 -61 62 -51 62 2 0 19 -16 38 -36z m232 -59 c37 -36 64
-65 59 -65 -24 0 -151 120 -152 144 0 10 7 5 93 -79z m386 45 c11 -24 11 -24
-3 -6 -9 11 -16 24 -16 30 0 12 5 7 19 -24z m282 3 c13 -16 12 -17 -3 -4 -17
13 -22 21 -14 21 2 0 10 -8 17 -17z m-76 -51 c-7 -7 -45 29 -45 41 0 6 11 0
25 -13 14 -13 23 -26 20 -28z m-849 -22 l59 -19 -45 0 c-46 0 -65 11 -105 59
l-20 25 27 -23 c14 -13 52 -32 84 -42z m-245 36 c-28 -15 -64 -10 -39 5 7 5
24 9 38 8 l25 0 -24 -13z m634 -17 c9 -17 15 -33 13 -35 -3 -2 -12 12 -21 31
-21 43 -13 47 8 4z m-2601 -61 c14 -32 24 -58 21 -58 -6 0 -65 116 -65 127 0
16 21 -16 44 -69z m2447 26 c65 -51 82 -73 22 -28 -60 44 -95 74 -88 74 4 0
33 -21 66 -46z m329 -99 c0 -11 11 -44 25 -74 14 -30 23 -56 21 -59 -9 -9 -45
62 -52 102 -3 23 -17 65 -30 95 -13 29 -24 59 -23 65 1 18 58 -107 59 -129z
m310 80 c0 -5 -5 -3 -10 5 -5 8 -10 20 -10 25 0 6 5 3 10 -5 5 -8 10 -19 10
-25z m-1355 0 c-34 -28 -54 -33 -34 -9 11 14 42 31 59 33 3 1 -8 -10 -25 -24z
m1403 0 c-3 -3 -9 2 -12 12 -6 14 -5 15 5 6 7 -7 10 -15 7 -18z m-2235 -55
c-15 -24 -29 -37 -31 -31 -2 7 8 31 24 54 15 23 29 36 31 30 2 -6 -8 -30 -24
-53z m1258 40 c41 -11 95 -20 122 -20 49 0 63 -13 25 -24 -45 -12 -100 -6
-141 16 -31 16 -61 21 -116 22 -67 1 -71 2 -45 13 41 17 70 16 155 -7z m905
-27 c21 -26 33 -44 27 -40 -14 9 -77 87 -70 87 3 0 22 -21 43 -47z m-131 -128
c39 -89 22 -78 -26 16 -23 46 -50 96 -60 111 -11 14 -19 30 -19 34 0 17 81
-107 105 -161z m-1255 141 c0 -2 -8 -10 -17 -17 -16 -13 -17 -12 -4 4 13 16
21 21 21 13z m1301 -91 c39 -52 85 -103 102 -114 37 -24 20 -28 -23 -6 -24 12
-117 133 -151 196 -22 42 4 14 72 -76z m118 -20 c0 -11 -50 45 -81 90 -11 17
3 5 31 -25 28 -30 51 -59 50 -65z m-387 25 c35 -43 99 -143 76 -120 -17 17
-138 181 -138 187 0 4 4 3 8 -2 4 -6 28 -35 54 -65z m-2622 35 c13 -14 21 -25
18 -25 -2 0 -15 11 -28 25 -13 14 -21 25 -18 25 2 0 15 -11 28 -25z m95 -40
c21 -30 36 -57 33 -60 -5 -5 -56 63 -78 104 -20 39 5 15 45 -44z m2335 40 c16
-9 19 -14 9 -15 -8 0 -24 7 -35 15 -24 18 -7 19 26 0z m-1054 -13 c-10 -2 -22
0 -28 6 -6 6 0 7 19 4 21 -5 23 -7 9 -10z m-1231 -28 c9 -15 12 -23 6 -20 -11
7 -35 46 -28 46 3 0 12 -12 22 -26z m506 -52 c-12 -23 -41 -48 -41 -35 0 10
37 53 46 53 2 0 0 -8 -5 -18z m-547 -107 c5 -40 5 -39 -13 10 -10 28 -21 64
-24 80 -5 25 -3 24 12 -10 10 -22 21 -58 25 -80z m2501 82 c17 -17 37 -41 45
-52 14 -19 14 -19 -5 -5 -37 26 -67 55 -76 73 -15 27 3 20 36 -16z m-30 -24
l28 -38 -31 29 c-18 17 -32 33 -32 38 0 15 7 9 35 -29z m388 -63 c-6 -6 -83
76 -83 89 0 5 20 -11 44 -37 25 -26 42 -49 39 -52z m-2814 50 c0 -10 -3 -8 -9
5 -12 27 -12 43 0 25 5 -8 9 -22 9 -30z m1751 10 c9 -17 8 -20 -12 -21 -23 0
-23 0 -2 -9 14 -6 24 -21 29 -47 3 -21 15 -58 26 -82 28 -65 16 -62 -15 3
l-27 56 -25 -23 c-14 -13 -26 -33 -27 -45 -1 -12 -3 -22 -4 -22 -2 0 -15 27
-30 60 -14 33 -30 60 -34 60 -13 0 -12 -2 18 -76 l28 -67 -23 -15 c-25 -17
-30 -37 -6 -28 9 4 22 1 30 -5 15 -12 57 -3 49 11 -5 8 50 4 82 -5 6 -2 29
-30 51 -62 22 -32 61 -83 88 -113 26 -30 34 -42 16 -26 -37 34 -43 25 -10 -13
15 -18 12 -16 -10 5 -18 17 -54 66 -80 110 -53 89 -71 98 -126 64 -19 -11
-106 -39 -193 -61 -94 -24 -189 -55 -235 -77 -52 -25 -78 -33 -78 -25 0 10
-11 12 -40 7 -43 -7 -50 0 -22 23 12 10 14 16 5 19 -7 3 -13 15 -13 27 0 16 3
18 9 8 13 -20 20 49 8 76 -7 17 -16 21 -32 17 -24 -6 -39 15 -29 41 4 9 0 15
-10 15 -12 0 -16 -10 -16 -39 0 -22 5 -43 10 -46 6 -3 10 -12 9 -18 0 -9 -2
-9 -6 1 -2 6 -9 12 -15 12 -6 0 -28 14 -49 31 l-40 31 7 -43 c7 -44 7 -44 -13
-26 -14 12 -19 26 -15 40 5 21 5 22 -16 4 -19 -18 -21 -18 -30 -1 -25 45 50
116 154 143 43 12 202 31 299 37 47 2 80 13 152 49 139 70 193 81 213 45z
m550 5 c17 -9 30 -18 30 -21 0 -4 -59 23 -69 32 -10 9 13 3 39 -11z m300 -26
c0 -6 -4 -7 -10 -4 -5 3 -10 11 -10 16 0 6 5 7 10 4 6 -3 10 -11 10 -16z
m-1626 -25 c-27 -20 -80 -67 -119 -104 -62 -60 -119 -100 -141 -100 -4 0 27
32 69 71 74 68 94 99 63 99 -8 0 -27 -15 -42 -32 -15 -18 -36 -39 -47 -47 -19
-13 -18 -11 4 28 24 44 95 105 111 95 14 -9 9 -26 -7 -20 -13 4 -14 2 -5 -14
12 -23 25 -26 36 -8 4 7 3 8 -4 4 -7 -4 -12 -5 -12 -2 0 3 17 13 38 23 20 9
39 20 42 23 6 9 31 18 49 19 8 1 -8 -15 -35 -35z m-588 -13 c-24 -25 -28 -39
-33 -110 -6 -84 -23 -103 -23 -25 0 69 19 132 48 154 35 28 41 15 8 -19z m251
-13 c-3 -7 -5 -2 -5 12 0 14 2 19 5 13 2 -7 2 -19 0 -25z m2118 12 c10 -11 16
-20 13 -20 -3 0 -13 9 -23 20 -10 11 -16 20 -13 20 3 0 13 -9 23 -20z m-30
-58 c-8 -8 -26 11 -41 41 l-15 32 30 -35 c16 -19 28 -36 26 -38z m-176 3 c0
-5 -6 1 -14 15 -8 14 -14 30 -14 35 0 6 6 -1 14 -15 8 -14 14 -29 14 -35z
m-2356 -35 l5 -55 -13 40 c-16 47 -19 93 -6 80 5 -6 11 -35 14 -65z m514 30
c-12 -22 -23 -35 -25 -30 -4 12 26 70 37 70 5 0 0 -18 -12 -40z m1959 -2 l29
-33 -32 29 c-18 17 -33 31 -33 33 0 8 8 1 36 -29z m-231 -8 c17 -10 82 -69
145 -131 115 -112 133 -135 30 -40 -77 73 -83 63 -10 -19 34 -38 67 -70 73
-70 6 0 8 -3 4 -6 -11 -11 -74 36 -103 77 -15 22 -61 72 -102 110 -41 38 -71
69 -67 69 3 0 33 -25 66 -57 32 -31 62 -54 65 -51 10 11 -119 118 -136 113 -9
-3 -25 2 -36 10 -18 14 -18 14 11 15 17 0 44 -9 60 -20z m335 0 c8 -5 11 -10
5 -10 -5 0 -17 5 -25 10 -8 5 -10 10 -5 10 6 0 17 -5 25 -10z m-119 -75 c7 5
10 4 5 -3 -8 -13 62 -69 111 -87 33 -12 34 -14 12 -14 -44 -2 -166 87 -211
153 -18 26 -14 24 24 -13 29 -27 51 -41 59 -36z m-271 43 c18 -13 34 -31 36
-40 3 -26 26 -54 135 -166 56 -57 91 -99 78 -92 -13 7 -58 47 -99 89 -41 42
-97 95 -125 119 -27 24 -44 40 -36 36 8 -4 3 8 -12 28 -42 54 -33 64 23 26z
m-2344 -144 c74 -122 114 -201 94 -189 -6 3 -22 29 -36 56 -13 27 -40 73 -58
102 -44 70 -112 197 -91 172 9 -11 50 -75 91 -141z m240 -16 l-11 -30 -7 44
c-3 23 -13 63 -22 87 -28 77 -17 79 18 3 30 -65 32 -77 22 -104z m2409 6 c33
-31 50 -49 37 -41 -47 30 -173 150 -188 180 -12 23 -3 16 37 -27 30 -31 81
-82 114 -112z m75 100 c0 -7 -58 25 -65 36 -3 5 10 1 29 -11 20 -12 36 -23 36
-25z m30 26 c19 -11 29 -19 22 -20 -14 0 -72 28 -72 35 0 9 15 4 50 -15z
m-2483 -66 c-3 -3 -13 8 -21 25 -23 43 -19 52 5 13 12 -18 19 -35 16 -38z
m1693 40 c0 -2 -9 0 -20 6 -11 6 -20 13 -20 16 0 2 9 0 20 -6 11 -6 20 -13 20
-16z m55 16 c13 -6 15 -9 5 -9 -8 0 -22 4 -30 9 -18 12 -2 12 25 0z m274 -2
c-8 -10 29 -53 77 -89 61 -45 66 -64 9 -30 -42 24 -49 26 -39 9 4 -7 -2 -5
-14 6 -12 10 -20 21 -19 25 4 12 -30 51 -39 43 -5 -4 -1 2 9 14 9 11 15 24 12
27 -3 4 -2 5 1 3 3 -2 5 -6 3 -8z m-2243 -49 c15 -26 -6 -15 -37 18 l-34 36
32 -22 c18 -12 35 -27 39 -32z m2449 -59 c11 -14 -4 -2 -34 25 -29 28 -57 59
-63 70 -11 21 61 -51 97 -95z m-2336 -10 c0 -26 -2 -31 -9 -20 -5 8 -9 35 -9
60 1 37 2 41 9 20 4 -14 8 -41 9 -60z m203 58 c-7 -7 -12 -8 -12 -2 0 14 12
26 19 19 2 -3 -1 -11 -7 -17z m1472 -15 c9 -18 14 -33 12 -33 -6 0 -36 55 -36
66 0 11 5 3 24 -33z m921 17 c13 -6 15 -9 5 -9 -8 0 -22 4 -30 9 -18 12 -2 12
25 0z m-2631 -95 c20 -46 37 -125 26 -125 -15 0 -49 99 -54 160 -3 42 -2 54 3
35 4 -16 16 -48 25 -70z m277 48 c-9 -16 -10 -16 -11 -1 0 9 3 25 7 35 7 16 8
17 11 1 2 -10 -1 -25 -7 -35z m1893 5 c23 -24 28 -31 11 -17 -16 14 -41 33
-55 42 -13 10 -19 17 -12 17 7 0 32 -19 56 -42z m-1807 10 c-3 -8 -6 -5 -6 6
-1 11 2 17 5 13 3 -3 4 -12 1 -19z m1467 -85 c25 -28 33 -43 23 -43 -8 0 -26
15 -41 34 -14 19 -32 40 -39 48 -15 15 -37 53 -37 63 0 4 12 -8 28 -26 15 -18
44 -52 66 -76z m158 96 c20 -11 24 -29 7 -29 -5 0 -8 4 -5 9 9 14 -82 18 -106
5 -16 -9 -18 -13 -7 -18 8 -3 3 -3 -11 0 -31 8 -51 24 -45 34 7 11 146 10 167
-1z m133 -15 c47 -31 116 -110 153 -174 l25 -45 -24 23 c-13 12 -46 53 -74 89
-27 37 -64 76 -81 88 -18 11 -40 25 -50 32 -15 9 -16 12 -4 12 9 1 34 -11 55
-25z m-477 -19 c-3 -3 -9 2 -12 12 -6 14 -5 15 5 6 7 -7 10 -15 7 -18z m483
-35 c51 -48 51 -73 0 -27 -21 19 -54 40 -74 46 -24 8 -34 17 -31 26 8 21 59
-1 105 -45z m-2064 28 c-3 -8 -6 -5 -6 6 -1 11 2 17 5 13 3 -3 4 -12 1 -19z
m1555 -31 c23 -62 14 -60 -16 4 -14 28 -19 48 -13 46 7 -2 20 -25 29 -50z
m265 -35 c72 -84 107 -132 95 -132 -6 0 -23 19 -39 42 -15 23 -57 73 -93 111
-36 39 -53 62 -39 53 15 -9 49 -42 76 -74z m-1510 56 c-3 -8 -6 -5 -6 6 -1 11
2 17 5 13 3 -3 4 -12 1 -19z m2249 -30 c4 -7 -9 1 -29 16 -20 16 -37 30 -37
33 0 7 58 -36 66 -49z m-2447 -2 c13 -53 14 -135 2 -155 -7 -11 -10 -9 -16 9
-6 18 -9 20 -17 9 -6 -9 -8 9 -4 56 3 39 6 82 6 98 0 42 16 32 29 -17z m1479
-126 c24 -34 42 -64 39 -66 -3 -3 -18 12 -33 33 -15 21 -36 45 -45 53 -17 14
-59 109 -59 132 0 6 12 -12 28 -40 15 -28 47 -79 70 -112z m21 115 c12 -25 21
-48 21 -52 -1 -9 -49 78 -50 90 -1 17 9 4 29 -38z m-1175 20 c-4 -8 -8 -15
-10 -15 -2 0 -4 7 -4 15 0 8 4 15 10 15 5 0 7 -7 4 -15z m1557 -18 c15 -12 28
-28 28 -35 1 -8 -11 -2 -28 14 -16 15 -42 33 -58 41 l-28 13 29 -6 c16 -3 42
-15 57 -27z m-271 -12 c13 -14 19 -25 14 -25 -8 1 -50 50 -41 50 2 0 14 -11
27 -25z m377 -59 c9 -17 36 -53 62 -80 79 -86 88 -102 31 -52 -30 26 -72 76
-94 110 -21 33 -48 72 -60 86 -16 19 -13 18 12 -5 19 -16 41 -43 49 -59z m178
-8 c22 -21 64 -53 94 -70 37 -22 55 -41 58 -56 3 -22 2 -22 -13 -7 -9 9 -47
40 -83 70 -36 29 -88 77 -116 106 -51 54 -21 32 60 -43z m-1930 -8 c5 -24 4
-32 -3 -25 -6 6 -14 30 -17 55 -6 50 7 30 20 -30z m-168 38 c-3 -8 -6 -5 -6 6
-1 11 2 17 5 13 3 -3 4 -12 1 -19z m1760 -63 l45 -60 -42 45 c-53 58 -92 111
-66 90 10 -8 38 -41 63 -75z m80 -39 c77 -81 101 -115 39 -56 -32 30 -80 84
-108 120 -29 38 -34 48 -13 25 19 -22 57 -62 82 -89z m-1995 64 c2 -42 1 -48
-9 -33 -15 19 -17 83 -4 83 5 0 11 -23 13 -50z m2293 30 c10 -11 14 -20 9 -20
-5 0 -15 9 -22 20 -7 11 -11 20 -9 20 2 0 12 -9 22 -20z m-670 -40 c9 -16 11
-30 6 -30 -5 0 -14 14 -20 30 -5 17 -8 30 -6 30 3 0 11 -13 20 -30z m80 -49
c-7 -6 -54 39 -67 64 -6 11 8 2 31 -19 22 -22 38 -42 36 -45z m399 -23 c27
-33 46 -61 44 -63 -5 -5 -97 98 -115 129 -18 32 -14 45 5 16 9 -13 39 -50 66
-82z m-1957 55 c-3 -10 -5 -4 -5 12 0 17 2 24 5 18 2 -7 2 -21 0 -30z m689
-98 c4 -11 27 -48 51 -83 44 -65 53 -87 31 -79 -7 2 -13 11 -13 20 0 8 -4 19
-8 23 -4 4 -7 2 -7 -6 0 -37 -74 63 -77 105 -1 16 -5 49 -9 72 -3 23 -3 50 1
60 6 13 10 3 16 -37 3 -30 10 -64 15 -75z m1451 55 c18 -19 32 -39 33 -44 0
-13 -46 31 -83 79 -27 34 -28 37 -7 20 14 -10 39 -35 57 -55z m-3390 44 c-3
-3 -12 -4 -19 -1 -8 3 -5 6 6 6 11 1 17 -2 13 -5z m2007 -133 c6 -16 5 -21 -3
-17 -16 10 -51 91 -51 118 l1 23 15 -25 c12 -22 14 -22 13 -5 -3 51 4 44 11
-10 4 -33 10 -71 14 -84z m-2061 122 c-7 -2 -21 -2 -30 0 -10 3 -4 5 12 5 17
0 24 -2 18 -5z m2113 -153 l3 -75 -19 90 c-10 50 -19 104 -18 120 0 60 30 -56
34 -135z m173 55 c-1 -40 -1 -40 -14 15 -18 70 -17 94 0 55 8 -16 14 -48 14
-70z m61 18 c0 -29 -4 -53 -10 -53 -6 0 -10 29 -10 68 0 47 3 63 10 52 5 -8
10 -39 10 -67z m-1012 -48 c1 -37 -16 17 -22 71 l-5 49 13 -50 c8 -27 14 -59
14 -70z m273 78 c20 -6 39 -19 46 -33 l12 -24 7 28 c8 32 21 23 26 -18 4 -37
28 -48 28 -12 0 32 20 44 27 16 5 -17 11 -21 32 -17 19 4 31 -2 48 -21 18 -22
23 -24 23 -9 0 9 5 17 10 17 6 0 10 -8 10 -17 1 -17 1 -17 11 0 6 9 8 26 4 36
-3 12 0 21 11 25 22 9 30 1 37 -34 4 -17 28 -53 53 -80 41 -44 44 -50 25 -50
-12 0 -20 -4 -16 -9 3 -5 1 -12 -5 -16 -6 -4 -13 7 -17 25 -5 26 -8 29 -15 16
-5 -9 -6 -30 -3 -46 5 -21 3 -30 -6 -30 -7 0 1 -11 17 -25 15 -13 25 -27 21
-31 -3 -4 -13 -1 -21 5 -8 7 -24 10 -35 6 -20 -6 -71 -58 -89 -92 -6 -10 -14
-14 -18 -10 -5 5 -3 11 4 15 17 11 20 54 4 60 -9 3 -12 -3 -10 -15 7 -46 -24
-16 -91 87 -17 25 -37 54 -45 65 -15 19 -15 17 -10 -22 5 -29 3 -43 -5 -43 -6
0 -11 8 -11 18 0 9 -12 35 -26 57 l-26 40 5 -34 4 -33 -19 23 c-10 13 -21 35
-23 49 -3 14 -14 46 -24 72 -20 51 -18 114 3 85 7 -8 28 -19 47 -24z m816 15
c-3 -8 -6 -5 -6 6 -1 11 2 17 5 13 3 -3 4 -12 1 -19z m-1216 -15 l24 -27 -32
23 c-33 23 -40 31 -25 31 5 0 19 -12 33 -27z m966 -23 c-1 -3 11 -18 26 -34
18 -20 27 -40 27 -63 0 -19 -4 -32 -9 -29 -5 3 -12 -2 -17 -12 -5 -12 -10 1
-14 40 -5 42 -15 67 -39 96 -39 50 -40 61 -2 30 16 -13 28 -25 28 -28z m1897
12 c22 -8 35 -17 28 -20 -13 -4 -142 36 -142 45 0 8 69 -7 114 -25z m-3006
-40 c26 -26 74 -77 107 -112 33 -36 100 -101 148 -145 81 -73 136 -139 125
-150 -6 -7 -299 283 -382 378 -75 85 -74 105 2 29z m1541 -12 l23 -35 -26 30
c-14 17 -26 34 -26 39 0 11 0 11 29 -34z m-1328 13 c13 -16 12 -17 -3 -4 -17
13 -22 21 -14 21 2 0 10 -8 17 -17z m166 -15 c-3 -7 -5 -2 -5 12 0 14 2 19 5
13 2 -7 2 -19 0 -25z m1058 -9 c9 -17 14 -36 12 -42 -3 -9 -37 54 -37 69 0 12
12 0 25 -27z m699 -3 c17 -13 44 -47 59 -75 34 -62 29 -68 -7 -7 -14 24 -41
57 -61 75 -42 36 -36 42 9 7z m-2004 -7 l25 -20 -32 16 c-18 8 -33 18 -33 20
0 10 16 4 40 -16z m2311 -31 c11 -22 16 -37 10 -33 -6 3 -21 25 -32 47 -11 22
-16 37 -10 33 6 -3 21 -25 32 -47z m-2132 -23 c0 -31 -2 -36 -9 -20 -13 29
-13 94 0 75 5 -8 9 -33 9 -55z m56 -2 c4 -21 3 -33 -4 -33 -6 0 -11 10 -11 23
0 12 -3 33 -6 47 -4 18 -3 21 4 10 5 -8 13 -30 17 -47z m735 2 c0 -16 -5 -37
-10 -45 -7 -11 -10 3 -10 45 0 42 3 56 10 45 5 -8 10 -28 10 -45z m567 -10
c60 -40 106 -92 134 -153 16 -36 27 -67 25 -69 -2 -3 -16 23 -31 56 -27 58
-116 158 -133 147 -4 -2 -21 7 -37 20 -28 22 -29 24 -6 19 13 -2 35 -12 48
-20z m-288 -100 c0 -12 -10 0 -25 30 -31 65 -30 94 1 35 13 -25 24 -54 24 -65z
m263 25 l29 -45 -50 53 c-28 29 -51 58 -51 64 0 17 39 -22 72 -72z m-1211 38
l23 -33 -27 24 c-15 14 -27 28 -27 33 0 15 8 8 31 -24z m1435 -70 c28 -30 59
-69 69 -87 23 -45 0 -29 -32 22 -14 23 -54 68 -87 100 -34 32 -47 50 -31 39
17 -11 53 -44 81 -74z m-1440 -3 c14 -28 13 -29 -2 -8 -8 12 -24 32 -35 44
-10 12 -19 27 -19 33 1 14 36 -30 56 -69z m1906 0 c6 -11 -8 -2 -31 20 -22 21
-41 43 -41 49 0 13 59 -43 72 -69z m-715 -20 c24 -51 36 -93 38 -128 1 -28 6
-65 10 -82 4 -16 5 -27 1 -24 -4 4 -16 50 -26 102 -11 53 -31 119 -45 148 -27
57 -28 59 -20 59 4 0 22 -34 42 -75z m283 45 c8 -5 11 -10 5 -10 -5 0 -21 10
-35 21 -24 20 -5 13 30 -11z m-342 -7 c22 -57 66 -263 57 -271 -2 -3 -7 14
-11 36 -3 23 -11 40 -16 39 -6 -1 -19 39 -29 88 -10 50 -21 100 -24 113 -8 31
10 27 23 -5z m167 -54 c9 -17 15 -34 13 -39 -2 -5 -11 9 -20 30 -20 47 -15 53
7 9z m1316 -6 c17 -15 38 -42 45 -60 16 -38 20 -217 4 -193 -5 8 -10 56 -10
107 l0 91 -46 41 c-51 45 -45 57 7 14z m-1586 -64 c7 -54 -9 -24 -19 36 -4 28
-3 35 3 24 6 -9 13 -36 16 -60z m-578 43 c-9 -9 -30 -58 -48 -107 -39 -112
-48 -130 -49 -92 0 59 77 217 106 217 4 0 0 -8 -9 -18z m453 -105 c6 -34 23
-111 37 -170 14 -60 23 -110 20 -113 -10 -11 -98 339 -97 391 1 34 28 -39 40
-108z m575 31 c15 -27 24 -48 22 -48 -4 0 -75 114 -84 135 -11 25 39 -45 62
-87z m-810 57 c-16 -14 -34 -25 -40 -25 -9 0 55 49 65 49 3 0 -8 -11 -25 -24z
m-644 -22 c10 -12 5 -11 -18 6 -18 12 -33 24 -33 27 0 9 37 -15 51 -33z m786
5 c-3 -7 -5 -2 -5 12 0 14 2 19 5 13 2 -7 2 -19 0 -25z m152 -23 c0 -5 -4 -3
-9 5 -5 8 -9 22 -9 30 0 16 17 -16 18 -35z m416 -44 c5 -23 4 -31 -4 -27 -12
8 -31 72 -30 101 0 15 4 13 14 -10 7 -16 16 -45 20 -64z m-904 66 c-6 -8 -18
-42 -27 -78 -16 -62 -33 -105 -34 -84 -1 44 49 175 66 175 4 0 2 -6 -5 -13z
m661 -89 c15 -46 28 -87 27 -93 0 -18 -20 25 -44 93 -12 37 -26 76 -30 87 -7
16 -5 18 5 8 8 -7 26 -50 42 -95z m-449 68 c-10 -13 -27 -30 -38 -36 -11 -7
-4 4 14 24 40 42 50 47 24 12z m307 -60 c-8 -8 -9 -6 -5 6 5 11 2 20 -8 24 -9
3 -13 13 -9 26 4 18 7 16 19 -13 10 -23 10 -36 3 -43z m-440 34 c0 -5 -8 -10
-17 -10 -15 0 -16 2 -3 10 19 12 20 12 20 0z m230 -134 c-12 -32 -24 -55 -27
-53 -2 3 6 49 19 104 22 93 23 96 26 52 2 -29 -5 -67 -18 -103z m-895 100 l28
-24 -54 -6 c-30 -3 -88 -7 -129 -10 l-75 -5 65 19 c36 11 77 19 93 20 17 0 27
5 27 15 0 21 13 19 45 -9z m1235 -170 c4 -60 -2 -50 -21 39 -30 137 -32 169
-5 76 14 -46 25 -98 26 -115z m150 129 c16 -86 7 -93 -14 -11 -19 76 -19 76
-7 76 5 0 14 -29 21 -65z m-401 -112 c1 -38 -3 -63 -9 -63 -6 0 -10 17 -9 38
2 21 -1 44 -5 50 -4 7 -4 43 0 80 l8 67 7 -55 c4 -30 7 -83 8 -117z m90 42
l-1 -30 -8 27 c-4 15 -11 51 -14 80 l-6 53 15 -50 c8 -27 14 -63 14 -80z m515
109 c3 -8 2 -12 -4 -9 -6 3 -10 10 -10 16 0 14 7 11 14 -7z m-4 -88 c0 -5 -13
8 -30 30 -16 21 -30 46 -30 54 0 8 14 -5 30 -30 16 -25 30 -49 30 -54z m-429
32 c11 -22 23 -66 25 -97 l4 -56 -18 75 c-10 41 -27 88 -37 105 -11 16 -14 26
-7 21 7 -4 22 -26 33 -48z m-750 -49 l-9 -54 -1 51 c0 28 2 54 6 57 12 13 13
0 4 -54z m1032 -9 l6 -35 -14 30 c-8 17 -14 41 -14 55 0 22 1 23 8 5 4 -11 11
-36 14 -55z m-315 -65 l0 -50 -8 40 c-4 22 -10 63 -13 90 l-6 50 14 -40 c7
-22 13 -62 13 -90z m403 93 c17 -24 18 -29 6 -19 -18 14 -42 51 -33 51 3 0 15
-15 27 -32z m-142 -85 c32 -64 33 -91 2 -33 -17 30 -30 58 -31 63 -1 17 11 5
29 -30z m-470 -87 c-9 -8 -10 -2 -5 29 3 22 7 47 8 55 1 8 3 -5 5 -29 3 -26
-1 -48 -8 -55z m-138 43 l-10 -24 0 26 c-1 14 2 29 6 33 12 12 14 -9 4 -35z
m54 -30 l-15 -64 4 57 c3 32 8 62 11 68 14 23 14 2 0 -61z m-190 4 c-10 -40
-17 -20 -9 23 5 24 9 32 12 21 2 -10 1 -30 -3 -44z"/>
<path d="M2530 3070 c0 -13 48 -90 57 -90 3 0 -43 85 -54 99 -2 2 -3 -2 -3 -9z"/>
<path d="M2590 2832 c0 -25 28 -79 60 -115 29 -33 37 -37 81 -37 37 0 47 3 43
14 -3 7 -13 17 -24 22 -10 5 -37 33 -60 62 -23 30 -44 51 -47 48 -3 -3 8 -21
26 -41 50 -57 36 -54 -24 5 -30 30 -55 49 -55 42z"/>
<path d="M2720 2511 c25 -15 56 -31 68 -35 12 -4 19 -12 16 -18 -5 -7 -2 -8 5
-4 7 5 21 0 32 -10 10 -9 19 -13 19 -7 0 17 -44 51 -100 77 -73 34 -96 33 -40
-3z"/>
<path d="M2528 2485 c-55 -18 -71 -35 -32 -35 22 0 24 -2 15 -14 -10 -12 -8
-19 8 -35 l20 -20 -22 -3 c-20 -3 -19 -5 10 -21 17 -9 33 -13 35 -8 2 5 17 12
33 15 17 4 23 3 15 -1 -13 -7 -28 -63 -17 -63 3 0 29 11 58 24 48 21 51 24 31
30 -35 11 -24 39 16 40 17 1 32 -2 32 -5 0 -4 30 -10 68 -14 37 -4 77 -13 90
-21 20 -13 22 -13 22 6 0 35 -18 59 -39 53 -22 -6 -51 8 -103 50 -34 27 -47
31 -115 34 -50 2 -95 -3 -125 -12z m138 -74 c-8 -12 -46 -21 -46 -11 0 9 18
18 38 19 7 1 11 -3 8 -8z"/>
<path d="M2007 2263 c-9 -21 -19 -49 -23 -63 -5 -20 -4 -23 7 -12 19 18 29 15
29 -10 0 -21 2 -20 16 7 8 16 23 38 31 47 9 10 13 18 8 18 -4 0 -3 6 3 13 6 7
7 19 3 26 -6 10 -10 8 -15 -6 -4 -10 -7 -20 -7 -23 0 -3 -7 -9 -15 -13 -8 -5
-12 -12 -9 -17 3 -5 0 -12 -6 -16 -12 -7 -9 35 6 69 4 9 3 17 -2 17 -6 0 -17
-17 -26 -37z"/>
<path d="M1667 2319 c7 -7 15 -10 18 -7 3 3 -2 9 -12 12 -14 6 -15 5 -6 -5z"/>
<path d="M1684 2271 c11 -11 23 -21 28 -21 14 0 -1 19 -25 31 -22 12 -22 12
-3 -10z"/>
<path d="M1910 1965 c13 -14 26 -25 28 -25 3 0 -5 11 -18 25 -13 14 -26 25
-28 25 -3 0 5 -11 18 -25z"/>
<path d="M1304 1885 c8 -16 25 -41 36 -55 l21 -25 -15 30 c-8 17 -25 41 -36
55 l-21 25 15 -30z"/>
<path d="M1780 1519 c13 -6 33 -17 42 -26 15 -13 18 -14 18 -2 0 24 -22 39
-54 38 -31 0 -31 0 -6 -10z"/>
<path d="M2458 1163 c6 -2 18 -2 25 0 6 3 1 5 -13 5 -14 0 -19 -2 -12 -5z"/>
<path d="M2605 1160 c3 -5 18 -10 33 -9 24 0 25 1 7 9 -28 12 -47 12 -40 0z"/>
<path d="M2375 1145 l-30 -13 42 0 c25 1 44 7 47 15 7 17 -20 16 -59 -2z"/>
<path d="M2690 1147 c0 -28 31 -117 39 -112 10 6 -20 125 -31 125 -4 0 -8 -6
-8 -13z"/>
<path d="M2631 1068 c0 -16 2 -18 6 -8 3 8 11 18 17 22 7 5 4 8 -6 8 -12 0
-18 -7 -17 -22z"/>
<path d="M2476 1045 c4 -8 11 -15 16 -15 6 0 5 6 -2 15 -7 8 -14 15 -16 15 -2
0 -1 -7 2 -15z"/>
<path d="M2811 1021 c-8 -5 -29 -8 -47 -6 -20 1 -35 -3 -38 -11 -3 -8 -19 -11
-48 -8 -24 2 -37 1 -30 -2 17 -8 5 -24 -19 -24 -10 0 -19 -5 -19 -11 0 -6 -7
-9 -15 -5 -9 3 -15 0 -15 -9 0 -19 -2 -20 93 14 45 15 106 34 135 41 28 6 52
16 52 21 0 12 -31 11 -49 0z"/>
<path d="M2480 984 c0 -8 5 -12 10 -9 6 3 10 10 10 16 0 5 -4 9 -10 9 -5 0
-10 -7 -10 -16z"/>
<path d="M3606 5098 c-48 -231 -51 -257 -35 -303 9 -25 13 -48 8 -51 -16 -10
-9 -23 49 -92 31 -38 70 -84 85 -103 l28 -34 -17 34 c-9 19 -32 56 -50 83 -19
26 -34 50 -34 53 0 3 -12 17 -27 30 -22 18 -25 26 -16 36 9 9 9 19 -1 44 -12
28 -11 49 10 166 13 74 24 140 24 147 0 21 -19 13 -24 -10z"/>
<path d="M2642 4825 c0 -16 2 -22 5 -12 2 9 2 23 0 30 -3 6 -5 -1 -5 -18z"/>
<path d="M2755 4800 c-3 -5 -1 -10 4 -10 6 0 11 5 11 10 0 6 -2 10 -4 10 -3 0
-8 -4 -11 -10z"/>
<path d="M2484 4762 c3 -5 31 -9 63 -9 40 -1 52 1 38 7 -26 11 -108 12 -101 2z"/>
<path d="M3670 4692 c0 -12 19 -26 26 -19 2 2 -2 10 -11 17 -9 8 -15 8 -15 2z"/>
<path d="M2381 4664 c0 -11 3 -14 6 -6 3 7 2 16 -1 19 -3 4 -6 -2 -5 -13z"/>
<path d="M1750 4406 c0 -17 52 -115 70 -131 l23 -20 -14 25 c-7 14 -13 27 -14
30 -1 18 -65 112 -65 96z"/>
<path d="M1225 4360 c10 -11 20 -20 22 -20 2 0 -1 9 -7 20 -6 11 -16 20 -22
20 -6 0 -3 -9 7 -20z"/>
<path d="M2697 4313 c-8 -38 -13 -70 -10 -73 7 -8 41 42 54 78 8 25 8 36 -1
47 -21 25 -27 17 -43 -52z"/>
<path d="M1199 4346 c29 -31 35 -33 22 -7 -6 10 -18 22 -28 25 -13 5 -11 1 6
-18z"/>
<path d="M2637 4314 c-31 -52 -31 -66 0 -31 17 18 40 77 31 77 -2 0 -16 -21
-31 -46z"/>
<path d="M1161 4318 c2 -2 18 -14 34 -28 l30 -25 -24 28 c-14 15 -29 27 -34
27 -6 0 -8 -1 -6 -2z"/>
<path d="M1147 4279 c7 -7 15 -10 18 -7 3 3 -2 9 -12 12 -14 6 -15 5 -6 -5z"/>
<path d="M1195 4250 c10 -11 20 -20 23 -20 3 0 -3 9 -13 20 -10 11 -20 20 -23
20 -3 0 3 -9 13 -20z"/>
<path d="M1209 4166 c19 -20 37 -36 39 -36 8 0 -44 59 -58 65 -8 3 1 -10 19
-29z"/>
<path d="M3177 4179 c7 -7 15 -10 18 -7 3 3 -2 9 -12 12 -14 6 -15 5 -6 -5z"/>
<path d="M1130 4105 c13 -14 26 -25 28 -25 3 0 -5 11 -18 25 -13 14 -26 25
-28 25 -3 0 5 -11 18 -25z"/>
<path d="M1205 4110 c10 -11 20 -20 23 -20 3 0 -3 9 -13 20 -10 11 -20 20 -23
20 -3 0 3 -9 13 -20z"/>
<path d="M3898 4095 c2 -14 8 -27 12 -30 4 -2 5 7 2 20 -2 14 -8 27 -12 30 -4
2 -5 -7 -2 -20z"/>
<path d="M1880 3975 c13 -14 28 -25 33 -25 6 0 0 11 -13 25 -13 14 -28 25 -33
25 -6 0 0 -11 13 -25z"/>
<path d="M1295 3910 c2 -11 7 -26 11 -33 4 -6 -6 -1 -22 13 l-29 25 25 -28
c14 -16 37 -38 52 -49 l28 -19 -25 50 c-28 54 -46 74 -40 41z"/>
<path d="M1285 3840 c10 -11 20 -20 23 -20 3 0 -3 9 -13 20 -10 11 -20 20 -23
20 -3 0 3 -9 13 -20z"/>
<path d="M602 3785 c0 -27 5 -68 13 -90 17 -51 17 -29 0 65 -12 72 -13 73 -13
25z"/>
<path d="M1187 3799 c18 -11 38 -19 45 -16 7 2 -1 11 -19 20 -45 24 -64 21
-26 -4z"/>
<path d="M1080 3803 c0 -17 60 -81 82 -86 17 -5 13 3 -20 33 -51 48 -45 52 12
8 l41 -31 -35 35 c-34 35 -80 58 -80 41z"/>
<path d="M1189 3761 c19 -17 39 -31 45 -31 12 0 -27 34 -59 52 -11 6 -5 -4 14
-21z"/>
<path d="M1081 3750 c2 -31 -1 -40 -16 -40 -8 0 -15 -5 -15 -11 0 -7 9 -9 23
-5 12 3 35 6 50 6 16 0 26 4 22 10 -3 6 -14 10 -24 10 -10 0 -23 10 -29 23 -7
12 -11 15 -11 7z"/>
<path d="M653 3415 c-1 -55 1 -94 4 -87 2 6 9 10 14 6 13 -7 10 71 -5 131
l-12 50 -1 -100z"/>
<path d="M432 3230 c0 -14 2 -19 5 -12 2 6 2 18 0 25 -3 6 -5 1 -5 -13z"/>
<path d="M438 3175 c2 -14 6 -25 8 -25 2 0 4 11 4 25 0 14 -4 25 -9 25 -4 0
-6 -11 -3 -25z"/>
<path d="M466 3020 c5 -58 41 -177 51 -167 2 2 -6 42 -18 88 -35 143 -38 150
-33 79z"/>
<path d="M3897 2843 c-21 -64 -9 -78 14 -17 21 55 23 64 10 64 -5 0 -16 -21
-24 -47z"/>
<path d="M3705 2740 c3 -5 8 -10 11 -10 2 0 4 5 4 10 0 6 -5 10 -11 10 -5 0
-7 -4 -4 -10z"/>
<path d="M3760 2691 c0 -5 5 -13 10 -16 6 -3 10 -2 10 4 0 5 -4 13 -10 16 -5
3 -10 2 -10 -4z"/>
<path d="M3721 2654 c0 -11 3 -14 6 -6 3 7 2 16 -1 19 -3 4 -6 -2 -5 -13z"/>
<path d="M564 2528 c-4 -7 -4 -10 1 -6 4 4 14 3 22 -4 15 -12 28 -5 18 11 -9
15 -32 14 -41 -1z"/>
<path d="M428 2513 c7 -3 16 -2 19 1 4 3 -2 6 -13 5 -11 0 -14 -3 -6 -6z"/>
<path d="M3450 2514 c0 -15 43 -64 56 -64 21 0 17 13 -14 43 -27 26 -42 33
-42 21z"/>
<path d="M198 2483 c7 -3 16 -2 19 1 4 3 -2 6 -13 5 -11 0 -14 -3 -6 -6z"/>
<path d="M93 2473 c9 -2 25 -2 35 0 9 3 1 5 -18 5 -19 0 -27 -2 -17 -5z"/>
<path d="M13 2463 c9 -2 23 -2 30 0 6 3 -1 5 -18 5 -17 0 -22 -2 -12 -5z"/>
<path d="M4300 2190 c0 -5 5 -10 10 -10 6 0 10 5 10 10 0 6 -4 10 -10 10 -5 0
-10 -4 -10 -10z"/>
<path d="M3091 2043 c-1 -12 4 -25 9 -28 12 -7 12 2 0 30 -8 19 -9 19 -9 -2z"/>
<path d="M3310 1996 c0 -10 28 -13 41 -5 10 6 7 9 -13 9 -16 0 -28 -2 -28 -4z"/>
<path d="M4610 613 c0 -5 14 -24 30 -43 l31 -35 -15 31 c-15 32 -46 63 -46 47z"/>
<path d="M4854 421 c-53 -24 -77 -60 -98 -145 -9 -37 -30 -95 -47 -127 -31
-63 -50 -149 -31 -149 6 0 13 6 15 13 4 9 6 9 6 0 1 -7 8 -13 16 -13 11 0 13
10 8 49 -4 39 0 66 24 133 17 45 33 100 37 120 14 76 78 116 189 119 27 0 29
2 12 9 -33 14 -88 11 -131 -9z"/>
<path d="M1675 170 c-151 -16 -370 -95 -421 -151 -18 -20 -18 -20 96 -16 76 3
142 12 194 26 97 27 119 38 176 90 24 23 50 41 57 41 6 0 15 5 18 10 7 11 -14
11 -120 0z m-236 -104 c-14 -13 -69 -35 -69 -28 0 10 38 30 59 31 8 1 12 -1
10 -3z"/>
</g>
</svg>
