<?xml version="1.0" standalone="no"?>
<!DOCTYPE svg PUBLIC "-//W3C//DTD SVG 20010904//EN"
 "http://www.w3.org/TR/2001/REC-SVG-20010904/DTD/svg10.dtd">
<svg version="1.0" xmlns="http://www.w3.org/2000/svg"
 width="312.000000pt" height="437.000000pt" viewBox="0 0 312.000000 437.000000"
 preserveAspectRatio="xMidYMid meet">

<g transform="translate(0.000000,437.000000) scale(0.100000,-0.100000)"
fill="#000000" stroke="none">
<path d="M30 4351 c0 -10 -7 -24 -15 -31 -12 -10 -15 -42 -15 -173 0 -88 3
-157 7 -154 3 4 21 -3 40 -14 18 -11 33 -17 34 -12 11 152 16 174 48 207 34
35 73 50 161 61 53 7 54 7 39 -11 -9 -11 -27 -39 -39 -64 -34 -67 -67 -107
-129 -154 -72 -55 -85 -59 -127 -41 l-34 14 0 -96 c0 -80 3 -98 18 -109 16
-13 16 -13 0 -14 -19 0 -26 -20 -8 -20 6 0 10 -7 10 -15 0 -8 -4 -15 -10 -15
-5 0 -10 -4 -10 -10 0 -16 42 -12 104 10 31 10 54 14 50 9 -13 -22 -126 -88
-140 -82 -11 4 -14 -8 -14 -66 0 -61 3 -71 18 -71 16 -1 16 -1 0 -14 -14 -10
-18 -28 -18 -70 l0 -56 41 0 c24 0 38 -4 34 -10 -3 -5 -22 -10 -41 -10 l-34 0
0 -180 c0 -113 4 -180 10 -180 6 0 10 -7 10 -16 0 -9 -5 -12 -12 -8 -7 4 -8 3
-4 -5 4 -6 11 -9 16 -6 5 3 10 -7 12 -22 2 -14 8 -28 14 -30 9 -3 9 9 1 44
-14 66 -12 145 4 174 14 23 14 23 16 -21 2 -25 5 -73 9 -108 l6 -62 46 -23
c26 -13 67 -30 91 -37 53 -17 67 -38 75 -113 10 -92 26 -119 80 -139 49 -18
51 -13 14 28 -20 22 -32 64 -19 64 17 0 101 -99 95 -113 -8 -22 45 -124 80
-154 17 -14 47 -33 66 -41 44 -19 25 -27 -28 -12 -44 11 -90 57 -134 133 -24
40 -39 52 -100 81 -40 19 -94 41 -120 51 -27 9 -48 21 -48 27 0 6 -7 8 -15 4
-11 -4 -15 2 -15 24 0 17 3 30 8 30 4 0 15 14 24 30 23 41 38 38 38 -10 0 -31
-3 -38 -15 -34 -11 5 -13 2 -9 -11 6 -15 95 -78 101 -71 2 1 -6 28 -17 59 -11
31 -20 67 -20 81 0 72 -49 78 -109 14 -35 -37 -41 -51 -46 -104 -6 -56 -5 -65
21 -105 56 -86 31 -243 -50 -318 -27 -25 -34 -15 -15 20 13 25 -1 72 -36 119
l-25 34 1 -145 1 -144 20 43 c11 24 22 42 24 39 8 -8 -18 -86 -33 -98 -10 -9
-13 -85 -13 -384 l0 -373 91 -22 c110 -26 186 -53 256 -92 85 -48 80 -67 -7
-26 -25 12 -54 22 -65 24 -11 1 -51 12 -90 24 -38 12 -90 28 -115 35 -25 8
-38 14 -30 15 10 1 9 4 -5 10 -29 12 -31 12 -32 -9 -1 -12 9 -22 30 -29 l32
-11 -32 3 c-18 1 -33 -1 -33 -5 0 -4 28 -9 63 -12 109 -9 192 -30 247 -63 l25
-15 -25 6 c-14 4 -45 11 -70 16 -25 6 -52 13 -60 16 -19 7 -28 9 -112 18 l-68
8 0 -26 c0 -22 5 -26 33 -30 l32 -4 -32 -1 c-25 -2 -33 -7 -33 -21 0 -14 8
-21 28 -24 l27 -4 -27 -2 c-21 -1 -28 -6 -28 -21 0 -11 6 -20 13 -20 8 0 9 -2
1 -8 -16 -10 -16 -104 -1 -114 9 -6 9 -8 0 -8 -8 0 -12 -18 -12 -54 1 -48 4
-55 23 -59 21 -4 21 -4 0 -6 -20 -1 -21 -6 -23 -173 -1 -130 1 -173 11 -180
10 -6 10 -8 1 -8 -17 0 -17 -47 0 -53 9 -4 9 -6 0 -6 -10 -1 -13 -31 -13 -117
l0 -116 28 5 c15 3 36 8 47 11 11 3 -1 -4 -27 -16 l-48 -22 1 -93 0 -93 145 0
145 0 -7 38 c-10 54 -37 135 -78 232 -51 123 -52 141 -17 351 37 214 52 271
93 353 72 143 161 236 318 333 141 88 239 168 287 235 21 28 39 45 41 39 7
-20 -28 -102 -40 -95 -6 4 -8 2 -5 -3 4 -6 -18 -62 -49 -124 -30 -63 -52 -103
-49 -89 4 14 27 66 51 115 23 50 36 81 28 70 -40 -52 -109 -219 -100 -242 3
-8 2 -12 -3 -9 -12 8 -67 -147 -86 -246 -10 -46 -29 -135 -42 -198 -38 -169
-42 -345 -14 -480 13 -56 20 -114 16 -127 -7 -31 24 -143 42 -150 24 -9 25 3
4 63 -11 33 -32 127 -46 209 -42 230 -30 354 52 572 34 93 37 125 8 87 -14
-18 -15 -17 -9 11 3 17 26 73 49 125 24 52 55 124 70 160 14 36 52 113 85 172
l60 107 0 118 c1 65 5 162 10 216 7 83 12 101 29 114 12 8 21 19 21 24 0 6 -7
3 -16 -5 -8 -9 -19 -14 -24 -11 -5 3 -11 -1 -14 -7 -3 -7 -4 -1 -1 14 3 15 0
60 -5 100 -20 134 -24 218 -11 218 7 0 5 10 -6 27 l-18 28 29 -23 c16 -12 34
-22 40 -22 6 0 29 -14 50 -30 53 -40 68 -38 28 3 -57 59 -45 66 114 74 151 8
296 -19 224 -42 -11 -3 -20 -13 -20 -21 0 -8 -5 -14 -12 -14 -6 0 -9 -3 -5 -6
3 -3 41 14 84 37 98 55 97 55 85 33 -5 -11 -17 -62 -26 -114 -9 -52 -21 -109
-27 -126 -13 -41 -53 -78 -87 -80 -66 -2 -160 -17 -192 -30 -43 -17 -89 -13
-123 9 -16 10 -28 13 -32 7 -4 -6 -11 -8 -16 -5 -5 4 -9 1 -9 -4 0 -6 17 -11
38 -11 l37 -1 -30 -13 c-16 -7 -30 -19 -31 -27 0 -8 -2 -39 -3 -69 -2 -43 -4
-49 -10 -30 -9 30 -8 60 3 78 15 25 -7 35 -25 11 -27 -35 -26 -207 1 -264 11
-22 19 -46 20 -52 0 -23 71 -92 105 -103 57 -19 110 12 429 253 179 136 276
222 276 245 0 13 -3 12 -15 -4 -8 -10 -15 -15 -15 -10 0 5 -11 -1 -25 -14 -13
-12 -22 -26 -20 -30 5 -8 -83 -81 -205 -169 -47 -33 -106 -77 -132 -97 -27
-20 -48 -34 -48 -31 0 3 19 19 42 36 23 17 38 31 33 31 -5 0 29 26 75 57 86
59 250 207 250 226 0 6 -37 -25 -82 -70 -75 -71 -157 -133 -272 -203 -72 -43
-26 0 64 60 49 33 92 65 96 71 5 8 3 10 -7 4 -8 -4 11 16 41 44 30 28 55 56
55 61 0 6 13 27 30 48 32 40 32 40 -76 -41 -35 -27 -73 -54 -84 -60 -18 -9
-19 -9 -6 7 9 11 -13 3 -52 -19 -37 -20 -67 -34 -67 -31 0 3 65 49 145 101
146 97 205 147 231 198 8 15 19 25 24 22 12 -7 40 23 40 44 0 10 2 40 5 67 3
30 2 42 -3 30 -6 -14 -11 -6 -21 40 -7 33 -18 66 -23 74 -7 11 -8 8 -4 -10 20
-88 17 -228 -4 -215 -5 3 -11 1 -15 -5 -3 -5 -13 -10 -22 -10 -13 0 -13 3 -3
15 10 12 10 15 -4 15 -9 0 -25 9 -36 20 -11 11 -20 17 -21 13 0 -5 -4 1 -9 12
-4 11 -5 32 -3 47 3 16 1 34 -5 40 -5 7 -12 22 -14 33 -4 19 -4 19 -16 -2 -17
-30 -27 -113 -15 -113 6 0 13 19 17 41 4 23 9 39 13 35 6 -5 -3 -52 -28 -157
-10 -42 -46 -92 -60 -84 -14 9 -10 124 6 185 24 89 21 99 -47 176 -101 111
-153 154 -204 170 -26 8 -49 12 -51 10 -3 -2 23 -19 57 -37 60 -32 122 -96
125 -128 0 -9 5 -23 10 -31 8 -13 6 -13 -8 -1 -9 7 -24 11 -32 7 -11 -4 -14
-2 -9 6 5 8 2 9 -9 5 -10 -3 -17 -2 -17 3 0 16 -57 40 -93 40 -19 0 -55 -3
-81 -6 -73 -10 -34 -25 54 -20 41 2 62 1 46 -1 -23 -3 -26 -7 -15 -14 9 -6 -8
-9 -51 -9 -69 0 -259 55 -260 75 0 6 20 42 45 79 25 38 45 73 45 78 0 25 -180
-198 -219 -270 -6 -12 -11 -45 -10 -74 4 -131 2 -164 -9 -183 -11 -17 -11 -14
-6 19 5 28 4 37 -5 32 -6 -4 -11 -16 -11 -27 0 -11 -4 -18 -8 -15 -5 3 -9 44
-10 91 -2 80 0 90 34 156 19 39 29 67 22 63 -7 -4 -30 -20 -52 -36 -21 -15
-42 -26 -46 -23 -10 6 -11 -7 -15 -130 -5 -132 5 -167 59 -219 39 -37 39 -38
6 -14 -49 35 -85 91 -110 170 -18 56 -21 92 -22 235 0 92 2 191 6 218 5 42 4
46 -5 25 -11 -24 -14 -76 -17 -259 -1 -46 -5 -82 -8 -79 -9 10 -44 258 -45
318 0 66 33 177 58 195 16 12 19 35 24 177 7 172 34 329 70 400 22 44 87 101
118 103 l21 2 -21 -23 c-12 -13 -25 -21 -29 -19 -20 12 -99 -103 -85 -124 2
-4 -5 -31 -15 -60 -33 -86 -22 -102 14 -19 36 83 111 194 151 227 37 28 113
42 199 34 61 -5 82 -2 113 13 63 30 163 30 268 0 49 -15 109 -38 133 -52 65
-39 146 -125 187 -201 21 -37 57 -102 80 -144 46 -80 70 -172 63 -233 -2 -20
0 -36 5 -36 5 0 -9 -20 -32 -45 -23 -25 -47 -57 -53 -73 -7 -17 -11 -86 -10
-182 0 -95 -3 -147 -8 -135 -5 11 -9 52 -10 90 -1 52 -4 64 -10 48 -23 -58 -7
-205 20 -188 17 11 21 -62 11 -191 -5 -71 -9 -136 -8 -144 1 -9 16 -40 34 -70
64 -115 353 -356 502 -420 140 -60 395 -199 466 -254 73 -57 231 -166 240
-166 3 0 5 254 5 565 l-1 565 -37 -15 c-20 -9 -45 -25 -56 -38 -18 -22 -18
-21 -14 80 4 115 18 146 76 172 31 14 32 17 32 75 l0 60 -30 -29 c-16 -16 -32
-26 -35 -24 -11 11 29 108 47 112 12 4 18 14 18 36 0 31 -1 31 -52 31 -37 0
-70 8 -108 27 -30 14 -48 27 -40 29 8 1 32 5 52 9 32 5 43 14 72 60 19 29 44
59 55 65 19 10 21 20 21 130 0 119 0 120 -24 120 -12 0 -44 11 -70 25 -62 33
-70 32 -42 -9 14 -21 26 -58 30 -91 3 -32 11 -66 17 -77 10 -18 8 -19 -13 -13
-12 4 -54 22 -93 40 -38 18 -88 38 -110 45 -89 27 -141 97 -149 197 -3 34 -10
52 -26 65 -29 24 -21 23 52 -7 34 -14 76 -25 94 -25 20 0 68 -18 120 -45 92
-48 122 -53 178 -30 30 13 36 20 36 45 0 27 -2 30 -19 20 -33 -17 -34 -11 -7
24 25 33 26 40 26 159 l0 125 -27 9 c-16 5 -58 7 -95 5 l-68 -4 -1 -36 c-1
-21 -5 -50 -8 -67 -7 -29 -8 -28 -24 24 -9 30 -17 61 -17 68 0 7 -4 13 -9 13
-17 0 -19 -41 -5 -103 17 -68 13 -110 -13 -146 l-16 -24 -9 22 c-4 13 -3 43 3
69 17 78 5 116 -49 151 -36 23 -42 31 -26 31 12 0 33 -10 48 -21 34 -26 43
-18 28 24 -14 38 -36 187 -28 194 2 3 15 -17 28 -43 22 -47 25 -49 73 -56 27
-4 51 -5 53 -3 2 1 -28 29 -66 62 -39 32 -69 60 -66 62 2 2 21 -3 41 -12 21
-9 76 -26 122 -37 47 -11 92 -27 101 -35 9 -8 19 -15 23 -15 3 0 6 95 6 211 1
194 0 209 -15 194 -22 -22 -34 -16 -49 28 -7 20 -9 34 -4 31 14 -8 10 10 -6
32 -8 10 -14 24 -14 29 0 6 4 2 10 -7 5 -10 16 -18 23 -18 8 0 19 -13 26 -30
18 -44 31 -36 29 19 l-2 48 -54 2 c-39 1 -52 -2 -47 -11 5 -8 2 -9 -12 -3 -10
4 -32 10 -49 13 -29 5 -29 4 17 -38 31 -27 52 -56 59 -81 7 -21 15 -36 19 -34
4 3 8 -32 9 -78 l1 -82 -20 40 c-11 22 -19 49 -20 61 -1 87 -90 214 -149 214
-32 0 -81 -18 -81 -31 0 -4 20 -6 45 -5 25 1 45 -1 45 -5 0 -13 -77 -38 -141
-45 -35 -3 -72 -11 -81 -16 -38 -19 -6 19 42 50 28 18 50 37 50 42 0 6 -55 10
-135 10 -80 0 -135 -4 -135 -10 0 -5 10 -28 21 -50 25 -47 19 -62 -14 -33 -36
34 -164 93 -199 93 -29 0 -24 -5 42 -34 111 -48 127 -61 135 -107 13 -74 -16
-161 -30 -91 -14 66 -21 77 -65 100 -67 34 -111 30 -149 -13 -41 -47 -40 -66
1 -26 36 35 46 37 73 17 18 -13 17 -14 -10 -9 l-30 5 32 -21 c18 -11 44 -43
58 -70 14 -28 34 -55 44 -60 24 -13 61 -89 61 -125 0 -39 -22 -76 -77 -127
-101 -95 -165 -121 -227 -95 -20 8 -36 17 -36 20 0 3 22 2 48 -1 63 -7 98 9
185 88 70 63 83 89 44 89 -34 0 -108 51 -142 98 -23 31 -48 49 -102 73 -40 18
-71 34 -69 36 13 13 166 -51 166 -68 0 -4 15 -18 32 -31 l33 -23 -19 30 c-28
45 -67 85 -100 102 -15 8 -25 10 -22 4 11 -17 -21 -13 -38 5 -9 8 -16 18 -16
22 0 3 5 1 12 -6 7 -7 16 -12 22 -12 6 0 5 5 -2 12 -7 7 -12 23 -12 37 0 39
-32 130 -48 136 -18 7 -44 -10 -94 -59 -20 -20 -46 -36 -57 -36 -11 0 -23 -4
-26 -10 -4 -6 6 -10 22 -10 17 0 46 14 72 35 45 36 60 34 61 -7 0 -25 -31 -38
-92 -38 -29 0 -65 -6 -79 -14 -24 -12 -30 -11 -57 6 -35 22 -82 108 -82 150
l0 28 -75 0 c-55 0 -75 -4 -75 -13 0 -7 -22 -35 -50 -62 l-50 -49 0 61 0 62
-215 1 c-161 0 -215 -3 -215 -12 0 -9 -3 -9 -12 0 -8 8 -61 12 -173 12 -167
-1 -192 -12 -50 -24 103 -9 185 -25 185 -37 0 -5 -7 -9 -17 -9 -14 0 -14 -2 3
-21 14 -15 19 -38 20 -85 l2 -64 -26 14 c-15 8 -62 39 -105 70 -102 73 -107
76 -180 87 -50 8 -66 16 -85 40 -13 16 -32 29 -43 29 -22 0 -24 -10 -6 -30 6
-7 -4 -3 -24 8 -20 12 -44 22 -53 22 -35 0 -12 -22 62 -59 43 -22 83 -45 89
-53 6 -7 11 -64 11 -132 1 -97 -2 -125 -18 -155 -35 -70 -44 -70 -83 1 -19 35
-43 90 -52 122 -9 33 -30 86 -45 117 -29 56 -30 57 -100 78 -52 16 -75 19 -89
11 -11 -5 -29 -10 -41 -10 -33 0 -18 24 19 30 17 3 32 7 32 10 1 18 -16 40
-31 40 -10 0 -21 -8 -23 -17 -4 -17 -5 -17 -6 0 -1 12 -10 17 -31 17 -34 0
-36 -9 -15 -50 9 -17 11 -30 5 -30 -5 0 -19 18 -30 40 -20 39 -21 40 -75 40
-47 0 -55 -3 -55 -19z m2615 -38 c-14 -21 -25 -46 -25 -56 0 -10 -4 -15 -10
-12 -27 17 11 105 46 105 11 0 8 -9 -11 -37z m-2205 -72 c0 -10 3 -33 6 -50 4
-18 2 -31 -4 -31 -15 0 -35 56 -27 79 8 26 25 27 25 2z m676 -64 c15 -8 20
-37 7 -37 -29 2 -63 55 -63 97 0 27 1 26 21 -12 12 -22 28 -44 35 -48z m214
-68 c-7 -16 -18 -34 -26 -40 -10 -8 -8 3 6 32 11 24 20 62 22 84 l1 40 4 -44
c3 -24 -1 -56 -7 -72z m-940 81 c0 -5 -5 -10 -11 -10 -5 0 -7 5 -4 10 3 6 8
10 11 10 2 0 4 -4 4 -10z m-52 -78 c-17 -50 -19 -70 -11 -105 l10 -42 13 28
c15 31 35 37 27 7 -7 -28 8 -25 32 6 17 21 21 23 21 9 0 -9 -20 -40 -45 -67
-29 -32 -49 -67 -56 -94 -6 -25 -15 -46 -19 -49 -4 -2 -10 52 -13 121 -6 133
4 197 39 235 9 11 18 18 20 17 1 -2 -7 -31 -18 -66z m1587 -3 c20 -37 19 -52
-5 -99 -28 -56 -74 -86 -148 -100 -60 -11 -123 -6 -121 8 0 4 19 52 42 107
l42 100 54 10 c80 16 119 8 136 -26z m-726 -4 c16 -28 18 -35 5 -35 -13 0 -34
37 -34 61 0 16 8 10 29 -26z m1374 10 c-3 -9 -8 -14 -10 -11 -3 3 -2 9 2 15 9
16 15 13 8 -4z m101 -44 c3 -4 -4 -17 -17 -27 -12 -10 -16 -12 -9 -4 24 28 11
29 -34 4 -25 -14 -48 -23 -51 -21 -2 3 6 11 19 18 81 44 83 45 92 30z m52 -5
c9 -25 -46 -109 -61 -94 -7 7 38 107 48 108 4 0 10 -6 13 -14z m244 -22 c0 -8
-4 -12 -10 -9 -5 3 -10 13 -10 21 0 8 5 12 10 9 6 -3 10 -13 10 -21z m-2933
-26 c-3 -7 -5 -2 -5 12 0 14 2 19 5 13 2 -7 2 -19 0 -25z m874 -35 c-12 -20
-14 -14 -5 12 4 9 9 14 11 11 3 -2 0 -13 -6 -23z m1699 19 c0 -12 -47 -32 -75
-32 -33 0 -32 14 3 27 33 13 72 16 72 5z m-1252 -37 c222 -46 219 -49 -29 -29
-48 4 -83 2 -95 -4 -16 -9 -9 -12 36 -12 l55 -1 -38 -14 c-21 -8 -43 -12 -50
-9 -37 14 -100 -76 -112 -159 -7 -48 -18 -60 -29 -31 -15 38 2 155 24 169 6 3
7 -2 4 -12 -3 -10 2 -6 10 9 17 29 63 60 122 83 l39 15 -69 -4 c-83 -5 -108
-21 -155 -101 -29 -48 -36 -54 -42 -39 -4 11 -5 -17 -2 -61 4 -79 4 -80 -13
-51 -12 22 -15 44 -11 86 6 67 25 101 74 131 42 26 36 37 -8 15 -38 -19 -53
-20 -43 -4 4 7 3 8 -5 4 -6 -4 -9 -12 -6 -17 6 -9 -9 -14 -30 -9 -5 1 -7 -2
-3 -5 4 -4 0 -21 -8 -38 -9 -16 -19 -66 -22 -109 -6 -89 -22 -87 -22 2 0 36 7
70 19 93 13 25 15 34 5 26 -19 -15 -44 -103 -44 -153 0 -29 -3 -37 -10 -26 -7
12 -10 11 -16 -5 -7 -18 -8 -18 -15 1 -15 38 -9 127 11 169 21 43 70 97 70 78
0 -6 -4 -13 -9 -15 -16 -6 -61 -81 -61 -102 0 -15 9 -6 28 28 38 69 89 107
164 122 77 16 122 12 286 -21z m1725 5 c3 -11 1 -18 -4 -14 -5 3 -9 12 -9 20
0 20 7 17 13 -6z m-1103 -54 c0 -23 -47 -92 -57 -82 -4 3 48 106 55 106 1 0 2
-11 2 -24z m-376 -43 c62 -39 130 -98 176 -154 49 -58 46 -63 -7 -13 -62 59
-153 134 -164 134 -5 0 -30 10 -55 21 -39 19 -58 21 -138 17 -156 -8 -213 -51
-235 -179 l-10 -54 3 56 c3 77 43 144 100 170 100 44 261 45 330 2z m-386 -6
c-14 -12 -36 -41 -47 -64 -26 -53 -33 -55 -18 -7 12 40 57 94 79 94 7 0 1 -10
-14 -23z m676 -12 c9 -14 13 -25 8 -25 -5 0 -19 11 -32 25 -18 19 -20 25 -8
25 9 0 23 -11 32 -25z m436 8 c-8 -3 -53 -20 -100 -38 -107 -42 -139 -51 -125
-36 19 19 179 80 210 80 17 0 23 -3 15 -6z m380 3 c0 -2 -7 -7 -16 -10 -8 -3
-12 -2 -9 4 6 10 25 14 25 6z m69 -86 c0 -31 -2 -40 -9 -30 -10 19 -19 97 -11
105 9 10 20 -28 20 -75z m-1205 50 c27 -10 52 -31 168 -137 42 -39 73 -61 82
-57 9 3 33 -11 61 -37 50 -46 47 -61 -5 -34 -46 24 -107 73 -182 148 -82 81
-107 94 -190 103 -68 7 -93 0 -135 -39 -13 -11 -23 -16 -23 -11 0 5 -18 -11
-41 -36 l-40 -45 31 48 c28 42 77 83 120 100 25 9 127 8 154 -3z m1162 -32
c-4 -24 -13 -53 -21 -65 -9 -13 -11 -24 -5 -28 5 -3 -2 -22 -15 -42 -23 -33
-28 -62 -29 -154 0 -10 -5 -15 -13 -12 -11 4 -14 26 -12 87 1 72 6 91 42 169
44 95 64 112 53 45z m-1675 -91 c-13 -13 -14 28 -3 88 7 39 7 39 10 -19 2 -32
-2 -64 -7 -69z m1451 61 c-7 -7 -12 -8 -12 -2 0 14 12 26 19 19 2 -3 -1 -11
-7 -17z m-1861 -75 c33 -43 68 -84 76 -90 15 -11 14 -13 -1 -19 -21 -8 -79 36
-110 84 -23 35 -44 102 -32 102 3 0 33 -35 67 -77z m819 74 c0 -2 -14 -16 -32
-33 -30 -28 -30 -17 0 19 13 15 32 23 32 14z m-90 -21 c0 -2 -8 -10 -17 -17
-16 -13 -17 -12 -4 4 13 16 21 21 21 13z m130 0 c0 -2 -17 -16 -37 -31 l-38
-28 29 31 c26 28 46 40 46 28z m968 -28 c-12 -18 -30 -40 -39 -49 -9 -9 -19
-23 -21 -30 -9 -24 -20 -2 -12 23 7 23 71 88 87 88 4 0 -2 -15 -15 -32z m82
-53 c10 -50 13 -54 31 -45 17 10 19 7 19 -24 0 -27 -10 -47 -42 -85 -24 -27
-46 -50 -50 -50 -4 -1 -8 25 -10 56 -3 56 -4 57 -38 66 -61 15 -61 29 0 25
l55 -3 3 63 c4 74 16 73 32 -3z m-1829 24 c16 -11 34 -30 40 -41 l11 -21 -28
20 c-34 24 -70 63 -60 63 5 0 21 -9 37 -21z m1005 -37 l38 -47 -37 34 c-20 19
-37 31 -37 26 0 -14 -24 13 -26 29 -4 25 23 7 62 -42z m-526 -9 c-11 -17 -11
-17 -6 0 3 10 7 28 7 40 2 22 2 22 6 0 2 -12 -1 -30 -7 -40z m-719 -69 c49
-98 49 -127 -2 -205 -17 -27 -33 -48 -34 -47 -1 2 -5 55 -8 118 -4 63 -4 109
-1 103 9 -20 24 -15 24 8 0 11 -11 35 -24 52 -13 18 -27 45 -30 62 -7 29 -7
29 13 11 11 -10 39 -56 62 -102z m1200 44 c16 -29 2 -21 -22 15 -17 23 -18 28
-6 18 10 -8 23 -23 28 -33z m-1467 -10 c-5 -26 -4 -30 10 -25 11 5 16 1 16
-13 0 -10 5 -22 10 -25 7 -4 8 8 4 34 -8 47 2 52 36 16 27 -29 63 -35 53 -8
-5 12 1 10 25 -7 26 -19 32 -31 32 -59 0 -66 -20 -113 -71 -165 l-48 -51 11
36 c15 51 -5 88 -57 106 -44 15 -51 23 -66 76 -9 33 -7 45 11 83 24 49 45 50
34 2z m591 24 c-3 -3 -11 0 -18 7 -9 10 -8 11 6 5 10 -3 15 -9 12 -12z m-154
-114 c7 -12 8 -40 3 -71 l-7 -52 -37 80 c-21 44 -41 91 -45 104 -7 24 -6 23
34 -8 23 -18 46 -42 52 -53z m141 46 c-29 -24 -46 -50 -56 -82 l-15 -47 0 40
c0 46 8 59 64 98 54 37 57 34 7 -9z m1398 12 c0 -2 -7 -7 -16 -10 -8 -3 -12
-2 -9 4 6 10 25 14 25 6z m-40 -20 c0 -2 -7 -7 -16 -10 -8 -3 -12 -2 -9 4 6
10 25 14 25 6z m-1336 -80 c-41 -62 -60 -70 -23 -9 26 44 51 75 56 70 2 -2
-13 -30 -33 -61z m1093 28 c29 -14 64 -39 78 -55 39 -47 30 -54 -14 -10 -33
33 -128 81 -161 81 -5 0 -12 5 -16 11 -10 17 52 2 113 -27z m57 -91 c8 -19 2
-16 -25 13 -23 25 -23 26 -2 13 13 -7 25 -19 27 -26z m228 7 c-9 -16 -38 -41
-64 -55 -45 -24 -62 -45 -38 -45 6 0 33 11 60 25 60 30 74 31 67 5 -3 -11 -3
-20 -1 -20 16 0 63 32 68 46 3 9 13 14 21 10 9 -3 24 8 40 27 13 18 25 27 25
20 0 -36 -26 -66 -104 -117 -46 -31 -88 -61 -92 -67 -4 -7 -3 -10 2 -8 5 3 57
29 116 58 122 61 156 63 113 7 -50 -66 -110 -106 -172 -116 -32 -5 -95 -23
-141 -40 -45 -16 -85 -30 -87 -30 -7 0 -6 93 2 173 6 68 6 68 23 42 17 -26 30
-24 30 4 1 14 121 107 142 110 4 1 -1 -12 -10 -29z m-313 -51 c13 -17 21 -32
19 -34 -3 -3 -19 13 -37 35 -17 22 -26 37 -19 34 7 -3 24 -19 37 -35z m688 5
c8 -23 -28 -44 -73 -44 -51 0 -55 10 -17 40 28 22 83 24 90 4z m-622 -66 c4
-22 3 -38 -2 -38 -5 0 -10 6 -10 13 0 6 -3 30 -7 52 -4 26 -3 35 3 25 5 -8 12
-32 16 -52z m34 -67 c1 -61 -5 -49 -13 24 -4 40 -3 53 3 40 5 -11 10 -40 10
-64z m537 -7 c30 -71 1 -96 -145 -134 -80 -20 -187 -27 -177 -11 3 4 33 11 66
14 35 3 80 15 108 30 51 26 122 52 135 49 10 -3 9 -1 -8 48 -18 51 -18 53 -4
44 6 -3 17 -22 25 -40z m-2067 -11 c5 -21 13 -66 17 -100 5 -52 3 -69 -16
-108 -23 -47 -69 -85 -104 -85 -16 0 -15 3 8 21 29 22 26 43 -5 34 -10 -4 -20
-2 -20 4 -3 22 -4 27 -22 64 -10 20 -22 37 -27 37 -16 0 -3 -50 24 -90 30 -46
22 -53 -17 -12 -39 41 -60 97 -52 143 8 49 25 51 25 4 0 -31 3 -35 26 -35 14
0 23 4 19 10 -11 17 22 11 46 -9 24 -19 24 -19 36 2 9 15 12 17 13 7 0 -9 10
-16 21 -17 21 -2 21 1 15 58 -3 33 -9 71 -12 84 -4 15 -2 25 5 25 5 0 15 -17
20 -37z m204 -36 c-3 -20 -10 -37 -14 -37 -11 0 -11 16 -3 59 9 45 25 24 17
-22z m-518 3 c6 -18 8 -19 31 -4 39 26 25 -28 -17 -69 -11 -10 -19 -32 -19
-49 0 -46 -10 -29 -25 48 -11 49 -12 71 -4 81 16 18 27 16 34 -7z m515 -193
c0 -25 -11 -47 -21 -41 -5 3 -9 23 -9 45 0 36 2 39 15 25 8 -8 15 -21 15 -29z
m2040 -27 c0 -7 8 -24 18 -38 36 -52 34 -56 -7 -13 -24 26 -41 54 -41 68 0 22
2 23 15 9 8 -8 15 -20 15 -26z m-2211 -47 c13 -28 13 -28 -8 -9 -22 20 -27 36
-13 36 5 0 14 -12 21 -27z m1576 -15 c18 -16 32 -46 46 -98 23 -86 18 -119
-30 -224 -21 -46 -108 -176 -135 -204 -2 -1 -1 23 1 55 2 32 0 69 -6 83 -8 21
-10 17 -10 -32 -1 -31 -5 -59 -10 -62 -15 -10 -21 52 -21 221 0 151 2 169 22
204 13 24 37 46 62 59 51 25 49 25 81 -2z m376 -40 c-3 -38 -1 -41 13 -29 14
12 20 11 41 -9 14 -13 27 -32 31 -42 7 -23 24 -14 25 15 0 21 1 21 10 -2 14
-35 3 -73 -35 -123 -49 -64 -78 -126 -85 -183 l-6 -50 -36 50 c-47 65 -54 88
-39 141 15 54 30 57 30 7 1 -37 1 -38 14 -14 13 24 14 24 25 3 6 -11 11 -28
11 -37 0 -26 19 -7 29 30 8 32 6 41 -24 85 -42 63 -53 122 -31 175 20 46 31
39 27 -17z m237 -115 c9 -34 28 -68 54 -97 53 -61 45 -79 -10 -23 -28 28 -53
70 -72 116 -17 40 -44 90 -60 111 -48 60 -35 60 23 0 39 -42 55 -69 65 -107z
m116 95 c22 -31 21 -61 0 -33 -9 11 -20 28 -25 38 -14 25 7 22 25 -5z m-35
-68 c0 -10 -3 -8 -9 5 -12 27 -12 43 0 25 5 -8 9 -22 9 -30z m-2320 -79 c69
-35 118 -74 126 -102 4 -10 10 -17 15 -14 8 5 40 -82 40 -111 0 -16 -2 -16
-18 2 -10 10 -21 27 -25 38 -5 13 -11 15 -20 8 -9 -8 -12 0 -12 34 -1 54 -31
88 -116 134 -53 28 -69 40 -54 40 3 0 32 -13 64 -29z m1853 -160 c-5 -3 -13
-21 -17 -40 -6 -30 -9 -32 -17 -16 -15 26 -4 142 18 195 l19 45 3 -89 c2 -49
-1 -92 -6 -95z m529 19 c-11 -40 -23 -75 -27 -79 -14 -13 7 111 21 126 8 8 15
19 15 25 0 6 3 9 6 6 3 -4 -4 -39 -15 -78z m-2568 -83 c-8 -13 -21 23 -21 58
0 14 4 10 14 -13 8 -18 11 -38 7 -45z m2427 -39 c20 -32 28 -108 12 -108 -16
0 -61 56 -68 85 l-7 30 22 -25 22 -25 -6 38 c-7 46 -1 47 25 5z m-2447 3 c-3
-11 -12 -22 -20 -25 -14 -6 -11 5 10 32 13 17 16 15 10 -7z m2152 -11 c3 -5
-3 -10 -15 -10 -12 0 -18 5 -15 10 3 6 10 10 15 10 5 0 12 -4 15 -10z m-978
-36 c28 -8 66 -14 85 -15 31 0 32 -1 10 -11 -17 -9 -46 -9 -110 0 -154 21
-263 25 -327 12 -33 -7 -73 -14 -90 -17 l-30 -5 35 23 c19 12 46 25 60 29 40
11 310 0 367 -16z m-629 -55 l-3 -44 -5 52 c-3 29 -1 48 3 44 5 -5 7 -28 5
-52z m-597 -20 c-5 -30 -15 -68 -22 -86 -11 -27 -10 -37 6 -72 10 -23 15 -44
12 -47 -10 -10 -29 7 -42 40 -13 29 -11 42 17 129 17 54 33 96 35 94 2 -3 0
-29 -6 -58z m2360 -32 c-8 -8 -11 -4 -11 14 0 33 14 47 18 19 2 -12 -1 -27 -7
-33z m-452 -115 c22 -18 45 -31 50 -27 5 3 12 -3 15 -12 2 -10 4 21 3 70 -2
89 6 104 30 56 7 -13 13 -36 13 -50 0 -28 -28 -129 -36 -129 -3 0 -17 14 -31
30 -14 17 -37 37 -52 44 -49 26 -91 76 -91 109 l0 31 28 -45 c16 -24 48 -59
71 -77z m-1723 16 c4 -29 11 -58 16 -65 6 -7 8 -18 6 -25 -7 -20 -36 72 -42
132 -7 70 10 34 20 -42z m-111 31 c16 -31 25 -63 23 -82 -3 -30 -5 -28 -25 28
-43 117 -42 141 2 54z m215 -59 c0 -5 -3 -10 -7 -9 -12 0 -73 79 -73 93 1 14
80 -69 80 -84z m1675 32 c11 -30 -8 -32 -26 -3 -10 18 -19 34 -19 36 0 10 40
-20 45 -33z m-598 -69 c-3 -10 -5 -4 -5 12 0 17 2 24 5 18 2 -7 2 -21 0 -30z
m750 -10 c-3 -10 -5 -2 -5 17 0 19 2 27 5 18 2 -10 2 -26 0 -35z m-1405 -25
c-8 -8 -9 -4 -5 13 4 13 8 18 11 10 2 -7 -1 -18 -6 -23z m621 -28 c-15 -9 -34
-24 -42 -34 -8 -9 -24 -22 -35 -28 -11 -6 2 12 29 39 28 28 56 48 63 45 9 -3
3 -10 -15 -22z m539 -74 c10 -19 8 -18 -16 3 -14 14 -26 29 -26 34 0 13 29
-12 42 -37z m-666 -21 c-13 -28 -22 -39 -24 -29 -6 27 7 62 26 67 9 3 17 5 18
6 0 0 -9 -19 -20 -44z m1154 37 c0 -4 -10 -13 -22 -21 -23 -14 -23 -14 -4 8
20 22 26 25 26 13z m-1190 -13 c0 -5 -4 -8 -9 -4 -6 3 -12 -16 -14 -42 l-3
-48 -2 53 c-2 40 1 52 13 52 8 0 15 -5 15 -11z m450 -2 c0 -2 -10 -12 -22 -23
l-23 -19 19 23 c18 21 26 27 26 19z m-1052 -29 c-2 -6 -10 -14 -16 -16 -7 -2
-10 2 -6 12 7 18 28 22 22 4z m1327 -48 c10 -11 16 -20 13 -20 -3 0 -13 9 -23
20 -10 11 -16 20 -13 20 3 0 13 -9 23 -20z m95 -55 c19 -19 32 -35 29 -35 -3
0 -20 16 -39 35 -19 19 -32 35 -29 35 3 0 20 -16 39 -35z m-1095 -57 c3 -7 -1
-4 -9 6 -9 11 -16 29 -15 40 1 17 2 16 9 -6 4 -14 11 -32 15 -40z m-35 -62 c0
-3 -4 -8 -10 -11 -5 -3 -10 -1 -10 4 0 6 5 11 10 11 6 0 10 -2 10 -4z m25 -90
c10 4 15 0 15 -13 0 -11 14 -32 30 -48 25 -24 28 -31 15 -37 -36 -21 -96 58
-94 124 l1 33 9 -32 c7 -22 14 -31 24 -27z m47 -14 c-5 -13 -6 -14 -10 -1 -3
7 -9 23 -15 34 -10 20 -9 20 11 2 12 -12 18 -25 14 -35z m183 -18 c-45 -38
-75 -57 -80 -52 -5 5 94 76 105 77 3 0 -8 -11 -25 -25z m-1250 -26 c5 -18 3
-28 -4 -28 -6 0 -11 6 -11 13 0 6 -3 23 -6 37 -5 17 -4 22 4 15 6 -5 14 -22
17 -37z m816 -11 c-12 -19 -29 -41 -38 -48 -14 -12 -14 -10 1 14 10 15 15 27
12 27 -4 0 1 14 10 31 11 22 19 28 26 21 7 -7 4 -21 -11 -45z m-254 11 c-3 -7
-5 -2 -5 12 0 14 2 19 5 13 2 -7 2 -19 0 -25z m3 -38 c0 -11 -2 -20 -4 -20 -2
0 -6 9 -9 20 -3 11 -1 20 4 20 5 0 9 -9 9 -20z m1 -133 c-13 -13 -14 5 -3 54
l7 34 3 -39 c2 -21 -1 -43 -7 -49z m-174 -79 c-2 -13 -4 -3 -4 22 0 25 2 35 4
23 2 -13 2 -33 0 -45z m63 -22 c0 -2 -8 -10 -17 -17 -16 -13 -17 -12 -4 4 13
16 21 21 21 13z m-343 -104 c6 -4 -11 -7 -38 -7 -27 0 -49 3 -49 8 0 9 71 9
87 -1z m213 -57 c-7 -8 -17 -15 -23 -15 -5 0 -2 9 8 20 21 23 35 19 15 -5z"/>
<path d="M2120 3205 c-33 -19 -12 -19 31 0 24 10 28 14 14 14 -11 0 -31 -6
-45 -14z"/>
<path d="M2030 3165 c-7 -8 -8 -15 -2 -15 5 0 15 7 22 15 7 8 8 15 2 15 -5 0
-15 -7 -22 -15z"/>
<path d="M2009 2875 c-35 -19 -69 -78 -69 -118 0 -18 7 -57 15 -87 8 -30 12
-64 9 -75 -5 -16 -4 -18 7 -7 15 14 14 78 -2 160 -12 59 0 90 43 113 28 15 43
-5 58 -78 15 -69 1 -131 -46 -209 -40 -66 -42 -74 -12 -48 11 10 35 48 52 84
37 79 41 173 10 236 -22 45 -30 48 -65 29z"/>
<path d="M1935 4360 c4 -6 11 -8 16 -5 14 9 11 15 -7 15 -8 0 -12 -5 -9 -10z"/>
<path d="M1980 4359 c0 -5 5 -7 10 -4 6 3 10 8 10 11 0 2 -4 4 -10 4 -5 0 -10
-5 -10 -11z"/>
<path d="M380 4342 c0 -14 84 -52 93 -43 6 6 0 14 -13 21 -31 17 -80 30 -80
22z"/>
<path d="M2029 4243 c-13 -16 -12 -17 4 -4 9 7 17 15 17 17 0 8 -8 3 -21 -13z"/>
<path d="M2992 3846 c10 -7 15 -15 13 -18 -3 -3 22 -16 56 -31 60 -26 60 -26
57 -5 -4 27 -49 54 -103 61 -34 5 -38 4 -23 -7z"/>
<path d="M2686 3385 c4 -8 11 -15 16 -15 6 0 5 6 -2 15 -7 8 -14 15 -16 15 -2
0 -1 -7 2 -15z"/>
<path d="M1840 3285 c0 -5 5 -17 10 -25 5 -8 10 -10 10 -5 0 6 -5 17 -10 25
-5 8 -10 11 -10 5z"/>
<path d="M1395 3085 c-5 -2 -22 -6 -37 -9 -58 -13 -82 -100 -55 -196 12 -40
19 -48 69 -73 71 -36 151 -44 233 -24 l60 15 -71 1 c-39 1 -87 4 -105 8 l-34
8 45 5 45 6 -40 8 c-48 8 -130 44 -122 53 4 3 29 -4 56 -16 52 -22 149 -30
121 -10 -12 9 -11 10 5 4 11 -4 47 -9 80 -11 l60 -5 -105 40 c-77 29 -121 40
-164 40 -48 1 -57 3 -47 15 30 35 136 25 205 -21 21 -14 52 -29 69 -34 29 -8
29 -8 11 12 -32 36 -137 80 -210 88 l-69 8 49 13 c36 10 45 15 32 20 -14 5 -9
9 20 17 94 27 103 27 147 -4 69 -49 74 -51 56 -23 -9 14 -34 35 -55 47 -34 20
-53 23 -139 22 -55 0 -104 -2 -110 -4z m122 -191 c-3 -3 -12 -4 -19 -1 -8 3
-5 6 6 6 11 1 17 -2 13 -5z"/>
<path d="M823 3063 c-12 -2 -26 -10 -32 -17 -8 -10 -3 -13 24 -14 19 -1 44 -6
54 -12 11 -5 42 -15 70 -21 64 -13 66 -29 4 -29 -66 0 -147 -39 -168 -80 -9
-18 -15 -34 -12 -36 2 -3 26 14 53 36 58 48 102 64 158 58 36 -4 102 -35 94
-44 -2 -1 -24 2 -49 8 -66 15 -127 3 -194 -39 -64 -40 -59 -55 10 -29 24 9 54
14 66 11 13 -3 57 -1 97 3 39 5 72 5 72 1 0 -9 -32 -16 -115 -24 -38 -4 -84
-14 -102 -22 -28 -13 -30 -17 -18 -29 35 -36 191 -19 227 23 10 13 13 12 19
-4 6 -15 10 -12 23 19 41 94 -4 202 -97 237 -27 11 -139 13 -184 4z m170 -170
c-7 -2 -21 -2 -30 0 -10 3 -4 5 12 5 17 0 24 -2 18 -5z m-50 -80 c-7 -2 -21
-2 -30 0 -10 3 -4 5 12 5 17 0 24 -2 18 -5z"/>
<path d="M751 2994 c0 -11 3 -14 6 -6 3 7 2 16 -1 19 -3 4 -6 -2 -5 -13z"/>
<path d="M3105 2940 c-3 -5 -1 -10 4 -10 6 0 11 5 11 10 0 6 -2 10 -4 10 -3 0
-8 -4 -11 -10z"/>
<path d="M0 2861 c0 -41 11 -51 56 -51 13 0 24 5 24 10 0 6 -4 10 -9 10 -5 0
-19 16 -32 35 -13 19 -27 35 -31 35 -5 0 -8 -18 -8 -39z"/>
<path d="M652 2802 c-7 -32 -12 -78 -11 -103 0 -43 1 -43 24 34 18 58 22 84
15 102 -5 14 -11 25 -13 25 -2 0 -8 -26 -15 -58z"/>
<path d="M0 2626 c0 -9 5 -16 10 -16 6 0 10 4 10 9 0 6 -4 13 -10 16 -5 3 -10
-1 -10 -9z"/>
<path d="M8 2553 c7 -3 16 -2 19 1 4 3 -2 6 -13 5 -11 0 -14 -3 -6 -6z"/>
<path d="M1741 2465 c-31 -45 -57 -180 -33 -172 4 1 18 -8 32 -20 39 -38 50
-30 50 35 -1 31 -7 83 -14 115 -8 31 -10 57 -5 57 5 0 9 5 9 10 0 19 -15 9
-39 -25z m13 -70 c4 -22 9 -56 12 -75 2 -19 6 -41 9 -47 7 -19 -10 -16 -29 6
-10 11 -15 25 -10 32 4 8 3 10 -4 5 -8 -5 -12 3 -12 24 0 23 4 31 14 27 10 -4
12 4 8 36 -5 52 4 46 12 -8z"/>
<path d="M1740 2340 c0 -5 5 -10 10 -10 6 0 10 5 10 10 0 6 -4 10 -10 10 -5 0
-10 -4 -10 -10z"/>
<path d="M1820 2471 c0 -5 5 -13 10 -16 6 -3 10 -2 10 4 0 5 -4 13 -10 16 -5
3 -10 2 -10 -4z"/>
<path d="M711 2390 c0 -47 4 -92 9 -100 7 -10 9 8 9 60 -1 111 -17 146 -18 40z"/>
<path d="M1851 2374 c0 -11 3 -14 6 -6 3 7 2 16 -1 19 -3 4 -6 -2 -5 -13z"/>
<path d="M1607 2267 c-14 -69 -17 -108 -8 -102 12 7 24 83 19 116 -3 20 -5 17
-11 -14z"/>
<path d="M1117 2268 c6 -10 107 -9 158 2 30 6 15 8 -61 6 -56 0 -100 -4 -97
-8z"/>
<path d="M1459 2263 c-13 -16 -12 -17 4 -4 9 7 17 15 17 17 0 8 -8 3 -21 -13z"/>
<path d="M1340 2199 c-36 -15 -58 -28 -50 -29 17 0 120 46 120 55 0 3 -1 5 -2
4 -2 -1 -32 -14 -68 -30z"/>
<path d="M1048 2185 c-14 -14 31 -82 65 -98 59 -29 110 -31 158 -9 45 21 139
100 105 88 -89 -30 -265 -30 -303 1 -17 14 -17 14 2 7 11 -4 58 -8 105 -10
l85 -2 -75 8 c-41 4 -89 11 -105 15 -17 3 -33 3 -37 0z"/>
<path d="M1188 2183 c6 -2 18 -2 25 0 6 3 1 5 -13 5 -14 0 -19 -2 -12 -5z"/>
<path d="M1851 1719 c-62 -88 -138 -204 -169 -257 -30 -53 -67 -117 -81 -142
-14 -25 -26 -47 -26 -50 0 -3 -29 -72 -64 -155 -269 -639 -275 -654 -346 -900
-57 -195 -61 -215 -46 -215 5 0 17 34 27 76 10 43 23 82 29 88 6 6 21 58 34
116 25 113 46 174 144 410 241 586 318 743 478 970 106 152 143 209 137 215
-2 2 -55 -68 -117 -156z"/>
<path d="M2080 1766 c8 -8 92 -59 186 -115 122 -71 192 -106 243 -119 39 -11
71 -16 71 -12 0 4 -27 14 -60 24 -40 11 -59 20 -54 28 5 7 3 8 -6 3 -7 -4 -15
-3 -19 2 -3 6 -34 24 -68 41 -34 17 -87 49 -118 71 -31 22 -63 37 -71 34 -9
-3 -14 0 -12 8 2 8 -5 13 -16 12 -10 -1 -28 7 -39 18 -12 10 -28 19 -36 19
-13 0 -13 -2 -1 -14z"/>
<path d="M1985 1635 c-9 -31 -15 -58 -13 -60 2 -3 12 20 22 51 10 31 16 58 13
60 -2 2 -12 -21 -22 -51z"/>
<path d="M2471 1480 c-55 -40 -109 -95 -159 -161 -39 -53 -133 -230 -147 -279
-4 -14 -15 -43 -25 -65 -51 -112 -78 -433 -51 -590 6 -33 11 -62 11 -64 0 -2
-7 -1 -15 3 -9 3 -15 0 -15 -9 0 -8 6 -12 13 -9 8 3 14 -2 14 -10 0 -8 -5 -13
-10 -9 -11 7 1 -54 17 -83 6 -11 22 -43 36 -70 28 -57 87 -134 101 -134 6 0 2
11 -8 24 -10 13 -20 22 -23 21 -3 -2 -6 5 -6 15 0 14 9 9 34 -21 29 -33 39
-39 74 -39 l41 0 -46 35 c-153 117 -238 382 -208 649 40 348 224 706 416 809
17 9 23 16 14 17 -9 0 -35 -14 -58 -30z m-291 -1350 c11 -22 18 -40 15 -40 -2
0 -14 18 -25 40 -11 22 -18 40 -15 40 2 0 14 -18 25 -40z"/>
<path d="M1165 1460 c-17 -7 -15 -9 12 -9 17 -1 34 -5 37 -10 4 -5 -3 -7 -14
-4 -11 3 -27 2 -36 -1 -15 -6 -15 -8 1 -26 30 -33 81 -19 68 19 -3 9 9 2 28
-15 19 -18 52 -48 74 -69 22 -20 67 -54 100 -76 l60 -40 -45 38 c-24 21 -76
68 -115 104 -38 37 -87 74 -109 83 -21 9 -39 16 -40 15 0 0 -10 -4 -21 -9z
m48 -40 c20 -1 20 -2 5 -11 -12 -7 -24 -6 -38 1 -24 13 -27 25 -4 16 9 -3 25
-6 37 -6z"/>
<path d="M1012 1413 c-23 -33 -54 -93 -48 -93 2 0 13 15 24 33 11 19 27 46 37
60 23 36 12 35 -13 0z"/>
<path d="M2192 1285 c-7 -14 -12 -31 -12 -38 1 -7 7 3 16 22 17 39 13 54 -4
16z"/>
<path d="M727 1253 c-2 -4 -12 -35 -22 -68 -9 -33 -25 -76 -36 -97 -10 -20
-19 -43 -18 -50 0 -7 10 7 21 32 27 61 69 182 64 187 -2 3 -6 1 -9 -4z"/>
<path d="M542 1177 c-27 -29 -138 -262 -187 -391 -88 -237 -96 -373 -39 -622
51 -222 69 -217 32 9 -15 94 -33 180 -38 189 -15 27 -12 92 7 145 9 26 17 75
16 108 0 42 3 54 9 40 6 -15 7 -11 3 13 -2 18 -1 31 4 27 5 -3 12 14 16 37 12
75 120 328 187 436 23 38 20 41 -10 9z"/>
<path d="M513 1054 c-14 -30 -23 -57 -21 -60 3 -2 16 23 31 56 32 76 25 79
-10 4z"/>
<path d="M599 1033 c-11 -26 -19 -54 -17 -63 2 -10 12 11 24 46 11 35 19 64
17 64 -2 0 -13 -21 -24 -47z"/>
<path d="M560 945 c0 -5 5 -17 10 -25 5 -8 10 -10 10 -5 0 6 -5 17 -10 25 -5
8 -10 11 -10 5z"/>
<path d="M455 919 c-4 -6 -5 -12 -2 -15 2 -3 7 2 10 11 7 17 1 20 -8 4z"/>
<path d="M615 890 c-4 -12 -5 -24 -2 -27 3 -2 8 5 12 17 4 12 5 24 2 27 -3 2
-8 -5 -12 -17z"/>
<path d="M513 770 c-6 -30 -10 -57 -8 -59 6 -6 26 80 23 97 -2 9 -9 -8 -15
-38z"/>
<path d="M452 756 c-7 -27 -15 -79 -17 -115 l-4 -66 19 95 c22 103 23 167 2
86z"/>
<path d="M387 737 c-18 -59 -32 -135 -24 -127 7 6 48 172 44 176 -2 2 -11 -20
-20 -49z"/>
<path d="M396 649 c-4 -23 -5 -44 -2 -46 2 -2 7 14 11 37 4 23 5 43 2 46 -2 3
-7 -14 -11 -37z"/>
<path d="M348 460 c-13 -30 -18 -106 -8 -135 10 -30 10 -30 7 7 -2 21 1 39 6
41 4 1 7 25 5 52 -2 28 -6 43 -10 35z"/>
<path d="M1320 408 c-3 -26 -1 -43 3 -39 5 5 7 26 5 47 l-3 39 -5 -47z"/>
<path d="M1914 195 c0 -66 1 -92 3 -57 2 34 2 88 0 120 -2 31 -3 3 -3 -63z"/>
<path d="M1311 284 c0 -11 3 -14 6 -6 3 7 2 16 -1 19 -3 4 -6 -2 -5 -13z"/>
<path d="M1937 168 c-4 -74 -2 -127 3 -132 7 -7 10 37 10 122 0 73 -2 132 -3
132 -2 0 -7 -55 -10 -122z"/>
<path d="M1968 255 c-12 -62 -10 -224 3 -203 5 10 8 67 7 130 -2 85 -5 103
-10 73z"/>
<path d="M2006 238 c-8 -63 -10 -187 -3 -195 4 -3 7 2 7 12 0 29 18 5 23 -30
3 -21 4 -16 6 18 0 26 5 47 9 47 4 0 4 28 -1 62 -5 35 -11 78 -13 96 -7 45
-21 40 -28 -10z"/>
<path d="M2060 233 c0 -81 12 -144 26 -139 11 4 14 -7 14 -46 0 -28 2 -49 5
-47 9 10 15 132 6 143 -5 6 -17 37 -26 69 -9 31 -18 57 -21 57 -2 0 -4 -17 -4
-37z"/>
<path d="M2373 225 c0 -27 2 -38 4 -22 2 15 2 37 0 50 -2 12 -4 0 -4 -28z"/>
<path d="M1318 213 c5 -83 9 -90 11 -20 0 37 -2 67 -7 67 -4 0 -6 -21 -4 -47z"/>
<path d="M1383 200 c0 -30 2 -43 4 -27 2 15 2 39 0 55 -2 15 -4 2 -4 -28z"/>
<path d="M1236 215 c-3 -9 -5 -51 -5 -93 l2 -77 7 90 c8 93 7 108 -4 80z"/>
<path d="M411 144 c0 -11 3 -14 6 -6 3 7 2 16 -1 19 -3 4 -6 -2 -5 -13z"/>
<path d="M1893 75 c0 -44 2 -61 4 -37 2 23 2 59 0 80 -2 20 -4 1 -4 -43z"/>
<path d="M2385 98 c3 -32 2 -58 -2 -58 -3 0 -31 19 -62 42 -31 23 -50 34 -42
25 7 -10 36 -33 62 -53 27 -20 47 -40 43 -45 -3 -5 6 -9 19 -9 l25 0 -18 58
c-10 31 -20 66 -24 77 -3 11 -3 -6 -1 -37z"/>
<path d="M1263 105 c0 -22 2 -30 4 -17 2 12 2 30 0 40 -3 9 -5 -1 -4 -23z"/>
<path d="M1780 70 c-6 -65 -5 -78 6 -68 3 3 4 34 2 69 l-3 64 -5 -65z"/>
<path d="M566 81 c5 -48 24 -93 23 -56 0 11 -7 38 -15 60 l-14 40 6 -44z"/>
<path d="M604 75 c11 -62 16 -75 32 -75 11 0 10 10 -7 53 -26 66 -33 73 -25
22z"/>
<path d="M1813 60 c0 -30 2 -43 4 -28 2 16 2 40 0 55 -2 16 -4 3 -4 -27z"/>
<path d="M2411 94 c0 -11 3 -14 6 -6 3 7 2 16 -1 19 -3 4 -6 -2 -5 -13z"/>
<path d="M1202 65 c0 -16 2 -22 5 -12 2 9 2 23 0 30 -3 6 -5 -1 -5 -18z"/>
<path d="M1738 46 c-7 -39 -4 -55 8 -44 3 3 4 23 2 44 l-3 39 -7 -39z"/>
<path d="M432 25 c0 -17 2 -22 5 -12 2 9 2 23 0 30 -3 6 -5 -1 -5 -18z"/>
</g>
</svg>
