<?xml version="1.0" standalone="no"?>
<!DOCTYPE svg PUBLIC "-//W3C//DTD SVG 20010904//EN"
 "http://www.w3.org/TR/2001/REC-SVG-20010904/DTD/svg10.dtd">
<svg version="1.0" xmlns="http://www.w3.org/2000/svg"
 width="512.000000pt" height="456.000000pt" viewBox="0 0 512.000000 456.000000"
 preserveAspectRatio="xMidYMid meet">

<g transform="translate(0.000000,456.000000) scale(0.100000,-0.100000)"
fill="#000000" stroke="none">
<path d="M3178 4308 c-3 -279 -8 -249 67 -398 48 -94 65 -192 64 -362 -1 -102
-4 -133 -10 -108 -4 19 -6 76 -3 125 7 96 -10 215 -42 296 -20 51 -86 146
-141 204 -91 95 -375 330 -441 365 -39 21 -83 46 -99 58 -28 20 -103 45 -111
37 -2 -2 14 -9 37 -16 23 -7 41 -15 41 -19 0 -10 -90 6 -140 25 -25 9 -70 17
-100 18 -88 2 -501 -42 -543 -58 -20 -8 -45 -15 -55 -15 -10 0 -27 -7 -38 -16
-18 -15 -17 -15 16 -10 19 2 51 8 70 11 21 4 -23 -23 -113 -69 -123 -63 -156
-76 -195 -76 -26 0 -213 23 -416 50 -422 57 -451 59 -466 30 -6 -11 -14 -74
-17 -140 -6 -118 -6 -120 22 -162 l28 -42 -7 -135 c-4 -75 -29 -473 -56 -886
-27 -412 -61 -939 -75 -1170 -25 -405 -32 -472 -56 -505 -8 -11 -9 4 -4 55 17
190 30 443 21 434 -2 -2 -6 -33 -9 -69 -38 -428 -38 -432 -73 -480 -18 -25
-42 -54 -54 -65 -20 -18 -93 -136 -155 -253 -16 -28 -30 -50 -33 -48 -9 10
113 237 168 311 33 44 60 86 60 93 0 7 4 11 8 8 5 -3 8 4 7 14 -1 22 -15 40
-15 20 0 -18 -47 31 -52 55 -2 11 -10 19 -16 18 -15 -4 -16 14 -1 19 5 2 7 11
4 21 -4 9 -11 15 -15 12 -5 -3 -11 4 -15 15 -3 11 -10 20 -14 20 -5 0 -11 14
-15 31 -3 18 -10 28 -16 24 -6 -4 -17 -2 -24 4 -10 8 -22 8 -40 1 -18 -6 -25
-6 -21 0 3 6 -3 10 -14 10 -11 0 -23 -5 -26 -10 -17 -28 -24 -1 -20 88 3 72 2
87 -5 57 -5 -22 -9 -63 -9 -92 -1 -28 -6 -53 -11 -55 -7 -2 -9 -193 -8 -563
l3 -560 32 100 c18 55 49 134 69 175 20 41 45 99 56 129 21 55 211 350 268
414 53 61 54 42 1 -24 -29 -36 -69 -105 -96 -167 -76 -172 -165 -345 -191
-370 -12 -13 -35 -56 -50 -95 -34 -89 -59 -140 -79 -161 -10 -9 -15 -28 -13
-43 3 -26 8 -21 56 52 29 44 80 134 114 200 108 212 184 323 206 301 6 -7 -85
-164 -114 -196 -24 -27 -74 -139 -74 -167 -1 -18 -44 -103 -138 -271 l-52 -92
0 -120 c0 -95 3 -120 14 -120 14 0 42 87 31 98 -3 3 -5 -2 -5 -11 0 -10 -5
-17 -11 -17 -11 0 -8 46 8 108 4 17 2 21 -11 16 -9 -3 -16 -4 -16 0 0 6 98
187 144 266 18 30 58 98 88 150 31 52 59 106 63 120 l6 25 -15 -25 c-9 -14
-15 -19 -16 -11 0 16 64 128 117 204 18 26 33 52 33 57 0 6 5 10 11 10 6 0 9
6 6 13 -2 6 -14 11 -26 9 l-22 -3 23 27 c33 39 61 64 70 64 4 0 8 5 8 11 0 22
72 109 90 109 31 0 31 -15 2 -61 -16 -24 -31 -50 -36 -56 -4 -8 -1 -13 8 -13
9 0 16 4 16 10 0 12 71 112 76 107 2 -2 -23 -57 -55 -123 -33 -65 -63 -132
-67 -149 -4 -16 -10 -34 -14 -40 -4 -5 -11 -21 -14 -35 -15 -56 28 19 128 225
57 116 113 221 125 235 13 14 20 21 18 15 -3 -5 -30 -71 -62 -145 -31 -74 -92
-196 -135 -270 -81 -139 -98 -176 -124 -270 -8 -31 -63 -139 -122 -240 -128
-221 -159 -279 -151 -286 3 -3 18 18 33 48 36 70 213 356 226 364 13 8 4 -23
-31 -104 -15 -34 -31 -59 -36 -55 -4 5 -5 3 -2 -3 3 -6 -3 -34 -14 -63 -11
-30 -15 -49 -8 -45 17 10 5 -32 -42 -149 -21 -53 -39 -102 -39 -108 0 -6 17
-9 41 -7 l40 3 38 90 c21 50 57 125 79 168 23 44 40 83 37 87 -3 5 6 34 20 66
14 31 25 62 25 68 0 6 22 65 49 131 26 66 51 138 55 159 4 22 19 62 32 88 26
52 25 52 94 26 24 -9 24 -10 6 -24 -11 -8 -26 -14 -33 -14 -7 0 -10 -6 -7 -15
4 -8 1 -15 -4 -15 -6 0 -14 -10 -17 -22 -4 -13 -29 -67 -56 -120 -27 -54 -49
-100 -49 -104 0 -14 55 73 104 165 45 83 97 144 111 130 5 -6 -134 -284 -177
-351 -58 -92 -22 -67 42 28 65 97 120 171 120 162 0 -8 -141 -261 -162 -291
-11 -15 -37 -67 -57 -115 -21 -48 -56 -117 -78 -153 -22 -36 -44 -76 -47 -90
-8 -25 89 132 130 214 14 26 40 71 58 100 18 29 54 93 79 142 25 50 58 107 75
127 16 21 35 52 43 70 7 18 20 41 28 50 8 9 16 24 17 33 2 14 73 125 80 125 3
0 -63 -148 -78 -175 -7 -11 -52 -90 -101 -175 -112 -195 -196 -360 -171 -339
11 9 25 14 32 12 18 -7 98 72 119 114 8 18 32 52 53 75 37 43 127 197 122 210
-1 5 3 8 8 8 13 0 13 -15 0 -38 -26 -46 -90 -206 -90 -226 0 -28 -32 -58 -145
-133 -75 -50 -178 -143 -158 -143 3 0 -1 -10 -9 -22 -20 -32 -22 -88 -4 -88
10 0 18 14 22 38 16 87 44 120 186 219 59 41 110 78 113 84 4 5 15 14 27 20
28 15 18 0 -49 -77 -43 -50 -93 -134 -80 -134 2 0 18 21 34 48 17 26 44 58 58
72 l28 25 -13 -25 c-7 -14 -21 -34 -31 -45 -21 -23 -44 -79 -29 -70 6 3 10 -4
10 -16 0 -30 9 -20 70 76 52 82 60 89 36 30 -8 -18 -11 -37 -8 -41 4 -4 1 -4
-6 0 -9 5 -12 3 -10 -6 1 -7 -9 -40 -24 -73 -35 -80 -44 -125 -25 -125 9 0 17
13 20 34 3 18 24 71 46 117 23 46 41 95 41 109 0 14 11 49 25 78 16 34 20 52
12 52 -7 0 -3 7 7 15 11 8 17 15 13 15 -4 0 -3 9 3 20 6 11 15 18 21 15 14 -9
11 1 -5 14 -12 10 -22 0 -55 -56 -46 -77 -54 -77 -15 1 25 49 64 97 64 78 0
-5 15 -12 32 -15 61 -10 88 -25 88 -49 0 -13 -31 -114 -70 -225 -52 -154 -66
-203 -54 -203 8 0 19 11 24 25 12 32 19 32 12 0 -4 -22 -1 -25 22 -23 14 1 26
6 26 10 0 4 8 8 18 8 10 1 24 16 33 36 l17 35 -34 -26 c-19 -14 -34 -22 -34
-17 0 11 46 43 66 46 19 3 54 37 48 47 -7 12 -33 0 -76 -34 -21 -17 -40 -28
-43 -25 -7 7 58 65 84 73 12 3 19 11 16 16 -4 5 1 9 9 9 9 0 16 4 16 10 0 7
29 74 58 133 2 5 -6 4 -18 -3 -18 -10 -21 -10 -15 2 18 30 50 58 67 58 20 0
25 -26 6 -33 -10 -4 -10 -6 0 -6 7 -1 10 -5 7 -11 -3 -5 -4 -10 0 -10 3 0 9 9
13 20 7 19 9 19 30 4 35 -24 51 -76 49 -152 -3 -67 -7 -78 -64 -168 -14 -21
-13 -22 41 -23 44 0 56 3 59 17 4 16 5 16 6 0 1 -16 12 -18 82 -18 l81 0 -7
43 c-23 142 -58 258 -96 319 -39 62 -98 178 -135 268 -11 25 -36 70 -56 100
-25 38 -42 79 -52 130 -16 74 -25 91 -102 191 -47 60 -63 99 -42 99 20 0 31
-11 77 -72 23 -32 47 -58 53 -58 12 0 7 8 -59 86 l-42 51 77 37 c56 27 68 35
43 32 -46 -8 -146 -54 -167 -77 -17 -18 -16 -22 5 -75 31 -74 18 -82 -15 -10
-18 39 -24 67 -21 86 5 25 2 30 -26 40 l-32 13 43 8 c54 10 261 118 339 176
32 24 95 79 140 123 76 74 82 72 26 -9 -17 -23 -17 -23 4 -17 21 7 22 5 16
-43 -3 -31 -2 -51 4 -51 6 0 13 28 16 63 3 34 11 73 17 87 8 20 9 10 4 -45
-11 -119 -14 -448 -5 -459 32 -39 58 -398 42 -586 -6 -74 -12 -206 -14 -292
l-3 -158 81 0 80 0 45 61 c48 67 193 208 250 244 67 43 138 131 156 193 49
177 81 233 171 305 36 28 86 70 112 93 63 55 142 114 154 114 5 0 3 -10 -5
-23 -8 -12 -18 -44 -22 -72 -7 -46 -6 -49 8 -30 8 11 16 25 16 30 1 27 57 126
98 175 59 68 77 96 101 158 11 27 45 90 76 142 130 215 243 482 267 630 l13
85 6 -55 6 -55 1 51 c1 28 -5 70 -13 95 -13 37 -25 50 -80 84 -68 41 -85 72
-70 127 5 19 4 20 -5 6 -15 -25 -29 -141 -39 -321 -6 -123 -12 -161 -25 -175
-9 -10 -16 -26 -16 -36 0 -19 -50 -121 -75 -151 -15 -18 -15 -17 0 13 9 19 15
36 13 38 -10 9 -299 -290 -295 -306 1 -5 -47 -59 -107 -119 -98 -100 -105
-109 -77 -105 42 7 39 0 -11 -30 -61 -35 -192 -68 -224 -56 -14 6 -63 10 -110
10 -94 0 -142 15 -168 51 -19 28 -21 46 -3 30 11 -8 13 -4 12 24 0 19 3 35 7
35 4 0 8 8 8 18 0 9 14 30 30 46 17 16 30 35 30 43 0 15 29 64 45 75 5 4 21 8
35 9 22 0 21 2 -10 14 l-35 13 40 2 c22 1 47 2 55 1 13 -2 13 -1 0 8 -8 6 -28
11 -43 11 -36 0 -67 16 -67 35 0 18 -5 19 58 -4 119 -44 5 23 -140 83 -26 10
-36 20 -32 29 8 22 35 27 179 37 141 9 272 42 312 79 12 11 33 23 47 27 14 3
26 10 26 15 0 14 -63 10 -90 -6 -96 -56 -122 -54 -140 13 -14 51 -30 77 -30
49 0 -9 -4 -17 -10 -17 -5 0 -10 -10 -10 -23 0 -13 -7 -32 -15 -43 -8 -10 -15
-14 -14 -9 4 27 -2 55 -11 55 -5 0 -10 -10 -10 -22 0 -17 -3 -19 -9 -9 -6 9
-11 10 -15 2 -17 -27 -26 -8 -20 42 8 62 -1 61 -11 -2 -3 -24 -13 -51 -22 -59
-14 -14 -16 -14 -25 2 -8 14 -12 15 -18 6 -9 -15 -25 31 -36 105 l-7 50 -11
-47 c-6 -25 -14 -50 -18 -54 -5 -4 -8 -21 -8 -38 -1 -27 -2 -29 -11 -13 -7 12
-9 50 -5 100 9 131 10 137 22 145 14 8 36 82 25 82 -4 0 -20 -28 -36 -61 -21
-45 -30 -85 -35 -148 -4 -47 -8 -80 -9 -73 0 6 -6 12 -12 12 -9 0 -10 -25 -7
-87 3 -49 2 -74 -2 -58 -4 17 -8 71 -9 122 -1 77 -4 94 -18 101 -10 5 -23 8
-29 5 -6 -2 -28 31 -50 73 -45 89 -50 138 -17 173 l22 23 -6 -23 c-4 -17 15
-3 65 51 74 78 84 93 55 84 -12 -4 -10 0 6 14 17 13 20 21 11 24 -22 7 -1 27
41 38 22 6 126 12 232 13 209 2 216 1 268 -56 15 -18 29 -27 29 -21 0 18 -107
241 -119 248 -23 15 -10 -51 19 -97 l30 -47 -68 0 c-37 0 -86 5 -108 10 -30 7
-63 5 -119 -5 -42 -8 -110 -15 -151 -15 -81 0 -206 -15 -240 -30 -14 -5 -24
-21 -28 -47 -4 -21 -19 -58 -32 -82 -30 -54 -47 -121 -31 -121 8 0 7 -4 -1
-12 -9 -9 -16 -7 -31 6 -17 16 -20 16 -23 2 -3 -17 -41 52 -103 188 -28 63
-38 99 -46 180 -5 56 -12 107 -14 114 -3 7 -1 11 4 8 5 -3 12 -35 16 -70 6
-56 43 -181 45 -149 0 6 -5 24 -10 38 -6 15 -15 69 -21 120 -15 137 16 305 56
305 8 0 16 5 16 10 1 6 2 14 3 20 2 15 17 26 105 74 86 47 104 55 83 34 -18
-18 -15 -38 6 -38 11 0 24 12 32 28 23 49 21 8 -5 -93 -14 -55 -25 -109 -25
-121 0 -11 16 -42 34 -69 19 -27 32 -53 28 -59 -10 -17 -11 -37 -1 -30 5 3 6
11 3 17 -5 9 -4 9 5 1 10 -9 9 -18 -3 -42 -8 -16 -22 -32 -30 -35 -17 -7 -80
-96 -73 -104 3 -3 13 9 21 25 28 53 37 45 11 -10 -13 -29 -22 -54 -20 -56 2
-2 12 1 23 7 26 14 45 14 37 1 -8 -13 10 -13 54 1 87 28 81 32 -19 12 -15 -3
-3 8 30 27 104 59 140 112 113 167 -8 17 -25 36 -38 43 -32 17 -57 72 -49 107
4 15 24 51 45 79 l37 51 -9 76 c-6 49 -6 104 1 159 6 45 13 115 16 153 6 69 6
71 -36 133 -23 34 -54 69 -69 77 -43 22 -183 55 -266 62 -41 3 -75 10 -75 14
0 5 5 9 11 9 5 0 14 12 20 28 5 16 22 33 40 41 23 10 28 16 18 22 -10 6 -4 9
17 9 34 0 87 48 99 90 8 25 7 25 -13 7 -11 -11 -26 -16 -33 -12 -8 6 -7 10 5
17 9 5 16 13 16 18 0 19 -58 -25 -76 -57 -9 -19 -27 -36 -40 -39 -12 -3 -24
-14 -27 -25 -9 -33 -35 -11 -39 32 -3 35 0 41 23 51 19 8 42 43 85 127 73 142
106 189 147 206 l32 14 -35 1 -35 1 30 16 c46 25 131 34 205 21 92 -16 148
-13 203 11 52 23 208 41 353 41 113 0 203 -32 277 -99 32 -29 111 -146 122
-181 4 -13 20 -41 36 -63 16 -22 29 -52 30 -66 l1 -26 7 25 c7 24 8 24 18 -10
17 -55 23 -100 13 -100 -4 0 -11 8 -14 18 -3 9 -4 -10 -2 -44 2 -35 15 -87 30
-125 15 -35 31 -100 37 -144 6 -44 19 -134 30 -201 16 -96 19 -151 15 -265 -4
-106 -3 -124 3 -68 5 42 12 82 16 89 4 6 13 46 20 88 11 66 13 71 14 33 1 -24
4 -41 8 -37 4 3 6 63 4 132 -2 87 1 124 8 119 6 -3 11 -18 11 -33 0 -15 5 -34
10 -42 7 -11 10 -2 10 33 0 75 20 46 21 -31 1 -37 5 -92 9 -122 6 -40 7 -17 6
87 -1 135 0 142 16 125 16 -15 18 -46 19 -282 3 -329 -4 -351 -102 -368 -38
-6 -47 -12 -64 -47 -17 -34 -19 -59 -18 -177 2 -156 2 -155 90 -203 42 -22 58
-38 78 -78 14 -28 25 -56 25 -62 0 -6 20 -73 45 -150 60 -184 86 -211 239
-249 100 -25 162 -58 271 -146 52 -43 110 -83 128 -90 90 -33 116 -50 170
-103 66 -64 67 -64 192 -70 103 -5 153 -25 202 -80 29 -33 38 -54 77 -174 9
-29 27 -64 39 -77 12 -13 32 -36 45 -51 29 -35 41 -25 13 11 -11 14 -18 31
-14 37 3 5 2 8 -3 5 -5 -3 -15 0 -22 8 -7 8 -9 14 -5 14 4 0 2 5 -5 12 -17 17
-16 54 1 40 6 -5 23 -9 37 -7 14 1 33 3 43 4 9 0 17 5 17 10 0 11 -86 32 -115
28 -12 -1 -21 5 -23 16 -4 22 7 22 100 -2 97 -25 236 -93 293 -143 l45 -40 0
59 0 59 -52 27 -53 28 53 -6 52 -6 0 1756 0 1755 -970 0 -969 0 -3 -252z
m-990 187 c-2 -3 -32 -9 -67 -13 -34 -5 -58 -5 -54 -1 7 7 46 14 102 17 13 1
22 0 19 -3z m192 -35 c12 -8 10 -10 -10 -9 -14 0 -43 4 -65 8 l-40 9 50 1 c28
0 57 -4 65 -9z m-49 -81 c19 -9 42 -25 49 -34 11 -13 -111 46 -130 63 -10 9
45 -11 81 -29z m-107 -80 c45 -28 18 -22 -34 7 -25 13 -34 22 -21 18 14 -4 38
-15 55 -25z m-113 -16 c13 -16 12 -17 -3 -4 -10 7 -18 15 -18 17 0 8 8 3 21
-13z m-31 -28 c13 -14 21 -25 18 -25 -2 0 -15 11 -28 25 -13 14 -21 25 -18 25
2 0 15 -11 28 -25z m-1307 8 c-7 -2 -19 -2 -25 0 -7 3 -2 5 12 5 14 0 19 -2
13 -5z m90 -10 c-13 -2 -35 -2 -50 0 -16 2 -5 4 22 4 28 0 40 -2 28 -4z m2082
-103 c27 -27 47 -50 44 -50 -3 0 -27 23 -54 50 -27 28 -47 50 -44 50 3 0 27
-22 54 -50z m-2058 14 c-3 -3 -12 -4 -19 -1 -8 3 -5 6 6 6 11 1 17 -2 13 -5z
m61 -11 c-10 -2 -26 -2 -35 0 -10 3 -2 5 17 5 19 0 27 -2 18 -5z m602 4 c0 -2
-12 -14 -27 -28 l-28 -24 24 28 c23 25 31 32 31 24z m-805 -57 c44 -5 193 -22
330 -36 138 -15 259 -30 270 -35 24 -11 -43 -5 -345 27 -287 30 -370 41 -378
48 -8 9 32 7 123 -4z m381 -85 c240 -27 279 -33 204 -34 -56 -1 -480 46 -488
53 -10 11 51 6 284 -19z m-296 -498 c-29 -534 -99 -1706 -104 -1742 -11 -76 7
306 34 746 17 266 39 651 50 854 25 479 34 609 38 562 2 -21 -6 -210 -18 -420z
m2265 319 l18 -31 -27 25 c-15 14 -32 33 -38 43 -17 33 28 -3 47 -37z m-1525
-27 c-9 -33 -68 -114 -77 -106 -6 6 45 107 65 130 20 23 23 18 12 -24z m1567
-81 c-3 -8 -6 -5 -6 6 -1 11 2 17 5 13 3 -3 4 -12 1 -19z m121 -238 l0 -45
-14 60 c-17 78 -17 111 1 65 7 -19 13 -55 13 -80z m-1525 -35 c112 -17 151
-34 172 -75 15 -29 21 -100 8 -86 -5 4 -7 10 -5 13 2 2 -8 15 -22 28 -27 25
-115 50 -156 43 -17 -2 -3 -8 39 -16 99 -18 99 -32 1 -34 l-85 -1 93 -7 c137
-10 144 -30 12 -30 -59 0 -129 -7 -160 -15 l-55 -14 24 19 c13 11 29 20 36 20
7 0 18 6 25 14 9 12 6 16 -23 21 -39 8 -73 -6 -99 -39 -10 -11 -18 -16 -18
-10 0 6 9 19 20 29 40 36 20 56 -35 35 -24 -9 -26 -8 -20 7 4 10 7 27 7 39 -1
21 36 49 86 64 38 12 46 11 155 -5z m1501 -123 c-6 -8 -24 75 -23 108 1 24 5
14 14 -35 7 -38 11 -72 9 -73z m-2147 -274 c7 -16 9 -28 4 -28 -5 0 -5 -16 0
-37 28 -124 -25 -826 -67 -892 -16 -23 -15 -24 2 -16 11 4 71 9 134 11 73 2
104 0 85 -5 -16 -5 -71 -9 -122 -10 -69 -1 -95 -5 -107 -17 -15 -14 -16 -13
-16 17 0 27 -2 30 -15 19 -8 -7 -16 -24 -16 -39 -1 -14 -7 10 -14 54 -13 84
-16 77 -20 -50 -3 -99 -4 -105 -20 -99 -12 5 -15 -2 -16 -32 0 -22 -4 -48 -9
-59 -5 -12 -9 41 -9 140 -1 181 -16 201 -25 33 -3 -59 -9 -133 -13 -165 l-8
-58 -6 90 c-3 50 -9 108 -13 130 -7 39 -7 39 8 15 l15 -25 1 40 c0 22 3 71 7
109 4 51 3 67 -5 62 -7 -4 -12 -22 -13 -39 0 -26 -2 -28 -8 -12 -7 17 -9 14
-14 -15 -3 -19 -10 -53 -15 -75 -6 -22 -14 -98 -18 -170 -4 -71 -10 -119 -12
-105 -2 14 1 117 7 230 21 375 42 722 56 944 8 121 16 236 16 255 l1 36 8 -30
c4 -16 8 -55 9 -86 3 -129 24 -148 37 -34 9 72 17 51 29 -68 4 -53 11 -77 20
-77 16 0 24 38 35 189 5 68 12 126 15 129 3 3 5 -58 5 -136 0 -77 4 -143 8
-146 15 -9 32 81 42 232 5 85 11 159 12 165 1 7 5 -69 8 -168 3 -107 10 -191
17 -207z m258 191 c-20 -154 -36 -234 -29 -144 7 86 36 277 41 272 2 -3 -3
-60 -12 -128z m445 12 c0 -11 -39 -21 -45 -11 -2 4 -2 10 2 14 10 9 43 7 43
-3z m-491 -379 c11 -78 11 -118 3 -169 -10 -62 -10 -68 15 -117 22 -44 88
-324 78 -334 -5 -6 -53 161 -60 207 -10 78 -60 155 -52 81 5 -43 -11 -152 -24
-165 -8 -7 -9 2 -4 33 6 35 4 42 -9 42 -9 0 -16 8 -16 18 0 11 -7 18 -19 18
-17 0 -20 -10 -25 -66 -3 -36 -9 -103 -13 -150 l-7 -85 -7 60 c-3 33 -5 77 -4
98 2 36 -8 50 -18 25 -3 -7 -7 32 -8 87 -1 55 -4 82 -5 60 -2 -22 -8 -110 -14
-195 -11 -158 -18 -206 -25 -198 -10 10 39 835 50 846 4 4 5 -49 1 -118 -4
-86 -3 -120 4 -110 5 8 10 41 10 73 0 55 11 74 24 40 5 -12 9 -14 18 -5 17 17
28 15 28 -7 0 -19 23 -45 32 -36 3 3 6 -29 7 -72 1 -42 3 -79 5 -81 13 -12 17
206 7 295 -9 69 -10 135 -4 205 l8 103 6 -140 c3 -77 11 -186 18 -243z m569
330 c-44 -41 -53 -45 -110 -49 -56 -4 -66 -2 -93 21 -21 18 -25 25 -14 26 9 0
22 -7 29 -15 7 -9 29 -15 52 -15 32 0 46 6 69 31 16 17 29 34 29 38 0 3 19 6
43 6 l42 0 -47 -43z m-437 -62 c5 0 12 8 15 18 29 89 43 91 24 2 -11 -53 -30
-91 -30 -61 0 6 -7 11 -15 11 -8 0 -15 -9 -15 -20 0 -11 -5 -20 -11 -20 -8 0
-10 19 -5 63 11 98 20 122 24 60 2 -29 7 -53 13 -53z m-660 -150 c-6 -102 -16
-266 -22 -365 -13 -225 -37 -588 -45 -677 -7 -78 -24 -82 -24 -5 l0 52 -20
-42 c-16 -37 -23 -43 -50 -43 -30 0 -30 0 -32 58 -1 49 -2 51 -5 15 -3 -29
-10 -44 -22 -48 -9 -3 -22 -17 -29 -33 -9 -21 -11 10 -7 153 7 255 48 982 62
1105 l6 55 11 -75 c9 -58 14 -74 26 -71 39 10 92 8 105 -5 18 -18 19 -14 36
81 20 113 23 61 10 -155z m1049 145 c0 -9 -77 -43 -113 -50 -37 -7 -48 -20
-24 -28 7 -2 -1 -11 -18 -19 -16 -9 -43 -31 -60 -48 -35 -37 -99 -72 -111 -62
-5 4 -6 3 -1 -2 4 -6 17 -11 30 -13 31 -5 44 -21 24 -29 -11 -4 -17 -18 -17
-38 -1 -17 -8 -42 -16 -56 -9 -14 -13 -17 -10 -7 3 10 9 36 12 57 5 33 3 40
-19 54 -13 9 -31 15 -38 14 -7 -2 -19 14 -26 36 -13 37 -12 42 12 78 29 44 79
68 141 68 46 0 68 16 32 23 -13 2 18 5 67 6 50 1 97 6 105 11 16 10 30 13 30
5z m-30 -90 c-13 -14 -28 -25 -34 -25 -6 0 3 11 19 25 39 31 45 32 15 0z
m-389 -388 c-13 -13 -15 50 -3 80 5 13 8 5 10 -26 2 -24 -2 -49 -7 -54z m490
25 c-7 -2 -18 1 -23 6 -8 8 -4 9 13 5 13 -4 18 -8 10 -11z m-554 -449 c-2 -16
-4 -3 -4 27 0 30 2 43 4 28 2 -16 2 -40 0 -55z m442 -37 c-9 -8 -10 -2 -5 29
3 22 7 47 8 55 1 8 3 -5 5 -29 3 -26 -1 -48 -8 -55z m121 39 c-7 -9 -15 -13
-19 -10 -3 3 1 10 9 15 21 14 24 12 10 -5z m-773 -52 c-3 -10 -5 -4 -5 12 0
17 2 24 5 18 2 -7 2 -21 0 -30z m79 -142 c-10 -15 -69 -22 -129 -15 -38 4 -54
10 -45 15 17 11 181 11 174 0z m-177 -59 c0 -24 -1 -25 -9 -7 -12 28 -12 47 0
40 6 -3 10 -18 9 -33z m451 -96 c-135 -133 -288 -266 -306 -266 -30 0 -72 -35
-105 -89 -32 -50 -36 -48 -14 7 9 20 44 63 78 96 34 32 53 53 42 46 -26 -16
36 42 144 133 48 41 86 67 88 60 3 -7 19 -1 46 17 57 40 69 37 27 -4z m-35
-64 c-28 -26 -108 -100 -178 -165 -70 -66 -127 -124 -127 -129 0 -6 51 39 113
100 112 110 241 222 257 222 12 0 6 -29 -10 -43 -11 -9 -11 -8 0 8 14 19 14
19 -3 6 -9 -8 -15 -16 -12 -19 3 -3 -43 -55 -102 -116 l-108 -110 95 84 c52
46 108 95 123 109 23 21 27 22 21 7 -6 -15 -4 -17 7 -11 12 8 12 6 1 -8 -8 -9
-10 -22 -6 -28 5 -9 10 -5 17 12 l9 24 10 -30 c5 -16 7 -44 4 -62 -6 -39 18
-67 29 -33 4 11 8 37 10 56 2 20 8 41 15 48 8 8 9 6 4 -8 -5 -13 -4 -17 4 -12
15 9 30 -21 24 -51 -7 -37 -144 -170 -257 -250 -55 -39 -148 -95 -206 -125
l-107 -54 -6 44 c-15 109 -2 180 46 249 16 24 42 50 58 58 16 8 93 73 172 145
79 71 145 130 148 130 3 0 -18 -22 -45 -48z m442 16 c-3 -8 -6 -5 -6 6 -1 11
2 17 5 13 3 -3 4 -12 1 -19z m173 -81 c0 -23 -4 -36 -10 -32 -5 3 -10 27 -10
53 0 34 3 43 10 32 5 -8 10 -32 10 -53z m-383 -45 c16 -16 17 -29 2 -38 -8 -5
-8 -9 1 -14 9 -6 10 -12 1 -26 -6 -11 -11 -15 -11 -11 0 5 -21 -18 -47 -50
-54 -67 -171 -173 -246 -222 -63 -41 -244 -128 -274 -133 -26 -4 -35 11 -13
23 8 4 58 29 110 55 184 89 465 318 465 378 0 14 -3 26 -7 26 -5 0 -8 12 -7
28 0 16 3 21 6 12 4 -8 12 -21 20 -28z m522 4 c-7 -7 -31 -9 -69 -6 -31 3 -29
4 15 9 49 6 63 5 54 -3z m-1110 -86 c-9 -5 -70 -26 -135 -46 -176 -53 -322
-113 -363 -148 -20 -17 -45 -38 -56 -46 -19 -14 -19 -14 -6 3 7 9 9 17 4 17
-5 0 -37 -28 -70 -63 -53 -55 -136 -172 -281 -400 -24 -37 -45 -67 -47 -67
-15 0 102 211 174 316 53 76 177 201 249 253 52 37 182 88 357 141 158 49 208
60 174 40z m650 -393 c6 -66 6 -120 0 -141 -6 -22 -6 -43 1 -61 10 -27 7 -45
-6 -32 -22 21 -29 120 -25 337 4 227 4 231 12 120 5 -63 13 -163 18 -223z
m-872 33 c-4 -23 -47 -71 -58 -65 -4 3 -29 -28 -56 -69 -26 -41 -53 -82 -60
-93 -7 -10 -3 5 9 32 52 125 177 272 165 195z m43 -41 c0 -4 -8 -13 -17 -19
-15 -9 -14 -10 9 -6 22 5 26 3 22 -9 -3 -8 -10 -12 -15 -9 -5 3 -9 1 -9 -4 0
-12 -48 -3 -56 10 -9 14 36 57 52 51 8 -3 14 -9 14 -14z m-472 -46 l-30 -58
39 43 c25 27 46 42 62 42 22 0 21 -3 -20 -48 -24 -26 -66 -79 -93 -117 -55
-78 -72 -74 -30 7 16 29 27 56 26 61 -4 16 60 127 74 127 1 0 -11 -26 -28 -57z
m2442 -10 c-29 -47 -109 -143 -94 -113 10 20 115 160 120 160 2 0 -10 -21 -26
-47z m-2015 -14 c4 -6 13 -8 21 -5 18 7 30 -20 16 -37 -5 -6 -15 -30 -22 -52
-7 -22 -23 -56 -35 -76 -22 -35 -23 -38 -7 -52 9 -8 24 -17 32 -20 13 -5 13
-6 -1 -6 -8 -1 -48 10 -87 23 -54 19 -69 21 -65 10 3 -8 11 -14 18 -14 7 0 32
-9 56 -20 27 -12 36 -20 24 -20 -11 0 -39 9 -62 19 l-42 19 -16 -25 c-9 -13
-19 -22 -22 -19 -3 3 -1 11 4 18 6 7 20 46 32 86 12 39 26 72 31 72 6 0 10 7
10 15 0 8 9 19 21 25 11 7 19 14 16 16 -3 3 5 16 17 29 22 26 50 32 61 14z
m1650 -55 c-38 -30 -141 -74 -195 -83 -30 -5 -120 -17 -200 -26 -143 -17 -147
-17 -240 4 -52 12 -101 28 -110 37 -14 15 -13 16 6 10 50 -15 180 -36 222 -36
51 0 218 16 321 30 36 5 94 24 135 44 81 39 89 42 61 20z m-262 -21 c-13 -2
-33 -2 -45 0 -13 2 -3 4 22 4 25 0 35 -2 23 -4z m2807 -88 c11 -13 10 -14 -4
-9 -9 3 -16 10 -16 15 0 13 6 11 20 -6z m45 -25 c3 -5 2 -10 -4 -10 -5 0 -13
5 -16 10 -3 6 -2 10 4 10 5 0 13 -4 16 -10z m-3210 -131 c28 -6 88 -15 135
-19 l85 -7 -79 -2 c-93 -1 -197 15 -223 35 -20 16 -21 16 82 -7z m-1821 -113
c-42 -110 -56 -124 -20 -20 27 80 48 126 53 120 2 -2 -13 -47 -33 -100z m1710
-88 c4 -21 5 -38 2 -38 -10 0 -36 100 -41 160 l-5 65 19 -75 c10 -41 22 -92
25 -112z m181 152 l90 -7 -95 -1 c-61 0 -108 5 -130 14 l-35 14 40 -6 c22 -4
81 -10 130 -14z m-845 -28 c0 -5 -7 -17 -15 -28 -14 -18 -14 -17 -4 9 12 27
19 34 19 19z m-272 -37 c-1 -14 -6 -25 -11 -25 -5 0 -6 7 -3 16 3 9 6 20 6 25
0 5 2 9 5 9 3 0 4 -11 3 -25z m320 -22 c-2 -5 -10 -20 -18 -35 -12 -25 -11
-30 6 -45 32 -30 28 -42 -11 -30 -19 6 -35 15 -35 20 0 17 43 97 52 97 5 0 8
-3 6 -7z m-181 -45 c-3 -7 -5 -2 -5 12 0 14 2 19 5 13 2 -7 2 -19 0 -25z m249
-9 c-4 -26 -3 -38 4 -34 13 8 13 -19 -1 -70 -16 -63 -19 -70 -27 -60 -4 6 -40
21 -79 35 -77 26 -92 40 -44 40 39 0 81 -17 97 -38 11 -14 13 -14 14 -2 0 12
2 12 9 2 5 -8 8 10 8 45 0 99 3 123 14 123 8 0 9 -13 5 -41z m-135 -13 c-14
-36 -22 -33 -9 5 6 16 12 28 14 26 3 -2 0 -16 -5 -31z m89 7 c0 -20 -3 -24
-11 -16 -7 7 -9 19 -6 27 10 24 17 19 17 -11z m655 -221 c-10 -81 -18 -55 -9
30 5 40 10 62 12 49 2 -14 1 -49 -3 -79z m-699 68 c26 -11 44 -23 41 -26 -7
-7 -107 24 -121 37 -18 16 31 9 80 -11z m-344 -52 c-16 -16 -15 -31 1 -23 6 4
1 -3 -13 -14 -24 -19 -40 -26 -40 -17 0 17 14 35 23 29 6 -3 7 -1 3 5 -10 16
1 32 22 32 12 0 13 -3 4 -12z m132 -32 c-10 -20 -21 -36 -26 -36 -5 0 1 18 12
41 26 50 38 46 14 -5z m257 -3 c-10 -17 -10 -16 -11 3 0 23 13 41 18 25 2 -6
-1 -18 -7 -28z m209 -13 c13 -25 13 -25 -36 0 l-39 19 32 1 c22 0 36 -6 43
-20z m-662 -40 c-13 -20 -28 -27 -28 -12 0 10 22 32 32 32 5 0 3 -9 -4 -20z
m452 -137 c-1 -13 -60 -78 -60 -66 0 11 47 73 56 73 2 0 4 -3 4 -7z m255 -172
c-8 -17 -18 -31 -21 -31 -3 0 -3 4 0 9 3 4 10 21 16 36 6 15 13 25 16 22 3 -3
-2 -19 -11 -36z"/>
<path d="M853 2600 c0 -36 2 -50 4 -32 2 17 2 47 0 65 -2 17 -4 3 -4 -33z"/>
<path d="M1570 3701 c0 -6 5 -13 10 -16 6 -3 10 1 10 9 0 9 -4 16 -10 16 -5 0
-10 -4 -10 -9z"/>
<path d="M2508 3573 c7 -3 16 -2 19 1 4 3 -2 6 -13 5 -11 0 -14 -3 -6 -6z"/>
<path d="M2625 3560 c-3 -6 -50 -10 -105 -10 -75 0 -113 -5 -151 -19 -55 -22
-92 -49 -83 -62 9 -15 156 -10 245 7 99 19 211 14 311 -14 37 -11 65 -15 62
-10 -3 4 -31 25 -62 45 -91 58 -200 90 -217 63z m-90 -45 c-23 -8 -83 -10 -79
-3 3 4 24 8 47 7 23 0 38 -2 32 -4z"/>
<path d="M2413 3355 c-38 -19 -59 -37 -78 -69 -34 -58 -31 -66 9 -27 18 18 49
36 67 41 19 5 54 16 79 25 58 22 166 15 235 -14 30 -13 42 -15 31 -6 -42 33
-196 75 -271 75 -11 0 -44 -12 -72 -25z"/>
<path d="M2448 3298 c-16 -5 -28 -14 -28 -19 0 -5 -5 -9 -11 -9 -6 0 -25 -10
-41 -22 l-30 -21 28 -15 c33 -16 65 -47 58 -55 -3 -2 8 -2 23 0 55 9 57 12 29
38 -26 24 -33 58 -17 84 7 11 14 4 29 -26 32 -61 80 -74 140 -35 12 8 22 21
22 28 0 18 -1 18 81 -7 39 -12 73 -19 76 -15 9 8 -92 52 -162 71 -66 17 -156
19 -197 3z m109 -24 c-3 -3 -12 -4 -19 -1 -8 3 -5 6 6 6 11 1 17 -2 13 -5z
m82 -10 c2 -2 -12 -4 -32 -4 -20 0 -37 5 -37 10 0 10 59 5 69 -6z m-225 -33
c4 -5 -3 -7 -14 -4 -23 6 -26 13 -6 13 8 0 17 -4 20 -9z"/>
<path d="M2360 3143 c0 -14 61 -66 68 -58 3 3 3 6 1 8 -2 1 -19 15 -37 31 -17
17 -32 25 -32 19z"/>
<path d="M2575 3020 c17 -4 39 -8 50 -9 16 -1 17 1 5 9 -8 5 -31 9 -50 9 l-35
-1 30 -8z"/>
<path d="M3234 2936 c-8 -35 1 -44 16 -16 8 15 9 25 1 33 -7 7 -12 2 -17 -17z"/>
<path d="M2208 2703 c12 -2 30 -2 40 0 9 3 -1 5 -23 4 -22 0 -30 -2 -17 -4z"/>
<path d="M1533 2615 c0 -33 2 -45 4 -27 2 18 2 45 0 60 -2 15 -4 0 -4 -33z"/>
<path d="M2084 2607 c3 -15 8 -38 11 -50 4 -19 -2 -27 -23 -37 -49 -24 0 -22
88 3 l84 25 -42 7 c-23 4 -42 11 -42 17 0 6 -9 8 -20 5 -13 -3 -21 1 -25 13
-3 10 -13 24 -21 31 -13 11 -14 9 -10 -14z"/>
<path d="M2185 2610 c9 -15 45 -32 45 -22 0 5 -12 14 -26 20 -14 7 -23 8 -19
2z"/>
<path d="M1741 2509 c-38 -48 -124 -122 -132 -114 -2 2 -4 -10 -4 -26 l0 -28
22 28 c22 28 82 73 69 52 -10 -16 31 -8 47 9 9 10 9 11 0 6 -19 -10 -16 2 16
67 15 31 26 57 25 57 -1 0 -20 -23 -43 -51z"/>
<path d="M1700 2505 c-19 -19 -30 -35 -24 -35 5 0 22 16 37 35 36 45 30 45
-13 0z"/>
<path d="M1675 2400 c-3 -5 -1 -10 4 -10 6 0 11 5 11 10 0 6 -2 10 -4 10 -3 0
-8 -4 -11 -10z"/>
<path d="M1554 2366 c-3 -8 -1 -23 5 -33 9 -15 10 -13 11 15 0 34 -7 42 -16
18z"/>
<path d="M3051 2184 c0 -11 3 -14 6 -6 3 7 2 16 -1 19 -3 4 -6 -2 -5 -13z"/>
<path d="M2102 2173 c-16 -30 -25 -83 -14 -83 6 0 15 21 20 47 11 52 9 65 -6
36z"/>
<path d="M2997 2107 l-17 -32 20 24 c17 20 26 41 18 41 -2 0 -11 -15 -21 -33z"/>
<path d="M2525 2081 c28 -30 65 -57 65 -48 0 3 -21 22 -47 43 -46 36 -47 36
-18 5z"/>
<path d="M2893 1975 c-52 -59 -78 -97 -71 -101 6 -4 8 -3 4 4 -3 6 2 13 11 17
24 8 159 176 141 175 -1 0 -40 -43 -85 -95z"/>
<path d="M2530 2036 c0 -3 21 -19 46 -37 26 -17 45 -26 42 -19 -4 13 -88 67
-88 56z"/>
<path d="M2491 1983 c2 -6 31 -35 64 -64 45 -41 54 -47 37 -22 -23 33 -108
106 -101 86z"/>
<path d="M5 1919 c-11 -17 -2 -18 25 -4 24 14 24 14 3 15 -12 0 -25 -5 -28
-11z"/>
<path d="M2470 1922 c0 -9 91 -62 106 -62 10 0 -37 33 -78 56 -16 8 -28 11
-28 6z"/>
<path d="M1952 1880 c0 -14 2 -19 5 -12 2 6 2 18 0 25 -3 6 -5 1 -5 -13z"/>
<path d="M2082 1875 c0 -16 2 -22 5 -12 2 9 2 23 0 30 -3 6 -5 -1 -5 -18z"/>
<path d="M2334 1880 c18 -28 46 -89 46 -99 -1 -3 -9 10 -20 29 -13 23 -19 29
-20 17 0 -31 20 -57 44 -57 12 0 25 3 28 6 8 7 -11 76 -24 89 -7 7 -8 2 -3
-13 6 -20 1 -17 -30 15 -22 22 -31 28 -21 13z"/>
<path d="M40 1875 c-11 -13 -10 -14 4 -9 9 3 16 10 16 15 0 13 -6 11 -20 -6z"/>
<path d="M2111 1853 c-1 -23 3 -44 7 -47 4 -2 6 12 4 32 -5 56 -10 62 -11 15z"/>
<path d="M2487 1849 c-9 -5 -22 -7 -27 -4 -5 3 -7 0 -4 -8 4 -11 14 -13 42 -6
20 5 46 6 57 3 15 -4 14 -1 -5 10 -30 18 -39 19 -63 5z"/>
<path d="M2430 1809 c0 -11 4 -18 10 -14 5 3 7 12 3 20 -7 21 -13 19 -13 -6z"/>
<path d="M3201 1730 c-18 -47 -37 -90 -43 -97 -5 -7 -6 -18 -2 -24 5 -8 3 -9
-6 -4 -10 6 -12 4 -7 -9 4 -10 3 -15 -3 -11 -5 3 -27 -29 -49 -72 -22 -43 -54
-103 -71 -133 l-31 -55 29 33 c17 19 50 74 75 123 24 50 48 89 53 87 11 -3 97
219 91 236 -2 6 -18 -27 -36 -74z"/>
<path d="M3417 1623 c-14 -88 -18 -168 -9 -153 6 8 13 54 17 103 7 88 2 118
-8 50z"/>
<path d="M2545 1575 c-22 -14 -35 -25 -30 -25 6 0 28 11 50 25 22 13 36 24 30
24 -5 0 -28 -11 -50 -24z"/>
<path d="M2735 1528 c-31 -35 -66 -76 -77 -93 -21 -32 30 21 103 108 59 68 41
58 -26 -15z"/>
<path d="M2255 1571 c19 -9 93 -15 84 -7 -2 2 -26 6 -54 10 -34 4 -43 3 -30
-3z"/>
<path d="M3703 1514 c-35 -19 -63 -37 -63 -39 0 -7 114 49 121 59 4 4 10 3 13
-3 4 -6 2 -11 -4 -11 -6 0 -8 -4 -5 -10 3 -5 0 -7 -8 -4 -8 3 -17 -2 -20 -10
-4 -10 -1 -13 7 -10 20 8 25 -7 14 -36 -7 -20 -11 -22 -19 -10 -7 12 -8 9 -7
-9 2 -17 -4 -28 -20 -37 -33 -17 -46 -31 -28 -31 8 0 12 5 9 10 -3 6 -1 7 5 3
22 -13 12 -23 -30 -30 -60 -10 -104 -40 -112 -76 -5 -27 -26 -43 -26 -20 0 6
5 10 10 10 6 0 10 5 10 10 0 19 -17 10 -28 -16 -7 -14 -8 -23 -2 -19 15 9 12
-11 -3 -24 -8 -6 -17 -8 -21 -4 -4 4 -4 0 -1 -9 5 -11 -2 -26 -19 -43 -15 -15
-24 -30 -21 -35 10 -16 -13 -20 -28 -6 -13 13 -16 6 -26 -57 -14 -84 -31 -243
-30 -272 0 -11 11 13 24 53 13 41 32 84 43 95 11 12 26 36 35 52 15 30 154
224 185 258 9 10 17 26 19 36 2 16 -2 18 -32 11 -18 -4 -45 -20 -59 -35 -30
-32 -33 -26 -9 16 17 28 75 59 111 59 10 0 29 11 42 25 13 14 20 25 17 25 -4
0 7 22 23 49 35 56 37 71 13 100 l-18 21 -62 -36z"/>
<path d="M2588 1493 c-9 -10 -21 -29 -28 -43 -11 -21 -11 -23 1 -13 15 12 53
73 46 73 -2 0 -11 -8 -19 -17z"/>
<path d="M2238 1483 c7 -3 16 -2 19 1 4 3 -2 6 -13 5 -11 0 -14 -3 -6 -6z"/>
<path d="M2601 1376 c-17 -18 -19 -26 -10 -31 7 -5 10 -4 5 3 -3 6 4 18 16 26
12 9 19 18 17 21 -3 3 -16 -6 -28 -19z"/>
<path d="M1438 1354 c-49 -41 -65 -68 -22 -37 32 23 81 73 72 73 -3 0 -26 -16
-50 -36z"/>
<path d="M1569 1337 c-32 -40 -50 -73 -43 -80 3 -2 -6 -14 -20 -25 -14 -10
-22 -22 -19 -26 3 -3 1 -6 -5 -6 -7 0 -12 -5 -12 -12 0 -19 51 34 72 77 11 22
29 50 40 62 11 12 19 26 17 32 -2 6 -16 -4 -30 -22z"/>
<path d="M4016 1327 c-15 -19 -26 -42 -26 -53 0 -10 -9 -33 -20 -51 l-19 -32
31 19 c32 19 101 127 92 142 -11 17 -34 7 -58 -25z"/>
<path d="M1519 1333 c-13 -16 -12 -17 4 -4 9 7 17 15 17 17 0 8 -8 3 -21 -13z"/>
<path d="M3022 1315 c-7 -14 -12 -47 -12 -73 0 -34 -7 -58 -26 -85 -14 -21
-37 -70 -50 -109 -28 -83 -35 -95 -103 -168 -28 -29 -53 -62 -57 -72 -3 -10
-10 -18 -15 -18 -5 0 -9 -4 -9 -10 0 -21 27 -9 44 21 36 61 26 20 -18 -72 -60
-126 -65 -132 -113 -125 -38 6 -38 6 -5 -4 17 -6 32 -12 32 -14 0 -2 -23 -48
-52 -102 -36 -69 -68 -115 -106 -151 -30 -29 -58 -53 -63 -53 -4 0 -21 -28
-38 -62 -16 -35 -44 -76 -61 -93 -28 -27 -36 -29 -98 -28 l-67 1 70 -17 c60
-15 67 -19 45 -26 -24 -8 -49 -32 -50 -47 0 -5 42 -8 94 -8 l94 0 12 30 c17
41 32 49 18 10 -23 -68 4 -36 52 61 29 57 71 129 94 159 24 30 51 79 60 108
10 28 21 50 25 47 12 -7 35 22 64 80 14 28 41 68 61 90 20 22 41 56 47 75 6
19 20 49 30 66 25 42 24 63 -2 30 -18 -23 -49 -36 -49 -20 0 3 12 25 28 48 15
22 45 71 67 109 26 44 45 67 58 67 10 0 15 5 12 10 -3 6 3 10 14 10 11 0 23 5
26 10 10 16 22 12 50 -16 16 -16 24 -32 20 -43 -3 -11 3 -25 15 -36 18 -16 19
-26 14 -79 -6 -70 -47 -185 -76 -218 -11 -13 -16 -16 -12 -8 7 13 6 13 -10 1
-22 -19 -110 -191 -96 -191 5 0 20 16 33 35 13 19 27 32 30 28 4 -3 7 -1 7 6
0 7 4 10 9 6 5 -3 12 3 14 12 3 13 5 14 6 3 0 -9 -12 -30 -29 -48 -16 -18 -30
-39 -30 -47 0 -8 -7 -18 -16 -23 -14 -8 -14 -10 -2 -15 10 -3 34 22 74 76 32
45 89 117 127 159 76 87 94 122 103 200 8 69 -15 158 -69 268 -31 64 -61 106
-123 170 -45 47 -79 91 -77 98 8 22 -4 12 -15 -13z m208 -324 c0 -11 -9 -38
-20 -62 -22 -50 -25 -34 -8 40 11 48 28 61 28 22z m-340 -281 c0 -5 -4 -10 -9
-10 -5 0 -18 -3 -28 -6 -16 -5 -16 -4 1 10 23 18 36 20 36 6z m-129 -198 c-5
-10 -18 -25 -28 -33 -12 -10 -11 -5 6 19 24 35 38 43 22 14z"/>
<path d="M1450 1310 c-14 -11 -38 -22 -55 -26 -40 -8 -187 -65 -182 -70 8 -9
214 68 242 91 35 29 31 33 -5 5z"/>
<path d="M2966 1221 c-9 -16 -16 -36 -16 -43 1 -7 10 4 21 25 11 22 18 41 15
44 -2 3 -12 -9 -20 -26z"/>
<path d="M1562 1220 c0 -14 2 -19 5 -12 2 6 2 18 0 25 -3 6 -5 1 -5 -13z"/>
<path d="M1352 1193 c-24 -8 -41 -17 -39 -19 4 -5 97 26 97 32 0 6 -11 4 -58
-13z"/>
<path d="M3995 1193 c-11 -3 -29 -12 -40 -20 l-20 -15 20 6 c11 4 41 10 68 13
43 5 47 4 47 -15 0 -12 6 -25 13 -29 31 -18 22 -76 -10 -66 -6 2 -20 -6 -31
-18 -11 -11 -24 -19 -29 -16 -4 3 -9 -6 -9 -19 -2 -26 6 -30 24 -12 6 6 14 9
18 6 3 -4 -8 -14 -26 -23 -32 -17 -55 -58 -45 -83 6 -17 -22 -52 -42 -52 -7 0
-13 -7 -13 -15 0 -18 12 -19 28 -3 7 7 12 8 12 3 0 -5 -13 -23 -30 -40 -20
-20 -33 -47 -39 -81 -5 -27 -25 -77 -44 -111 -19 -34 -40 -78 -47 -100 -20
-60 -59 -133 -72 -133 -9 0 -9 -3 -1 -11 8 -8 8 -20 3 -35 -5 -13 -7 -24 -4
-24 21 0 67 41 100 91 21 32 42 59 47 59 4 0 7 5 7 11 0 14 40 65 47 61 6 -4
73 93 73 105 0 4 24 55 54 113 65 127 75 160 82 270 l6 85 -39 52 c-39 53 -53
60 -108 46z m115 -203 c0 -5 -4 -10 -10 -10 -5 0 -10 5 -10 10 0 6 5 10 10 10
6 0 10 -4 10 -10z"/>
<path d="M1548 1180 c-52 -129 -58 -159 -13 -69 15 28 25 58 23 67 -3 14 -5
15 -10 2z"/>
<path d="M4553 1164 c1 -10 -2 -19 -8 -19 -10 0 -125 -84 -125 -91 0 -3 13 2
29 11 17 8 45 17 64 20 29 5 35 2 45 -19 14 -30 12 -32 -58 -41 -68 -8 -90
-14 -90 -24 0 -9 77 -4 128 9 17 5 32 5 32 0 0 -4 -12 -11 -27 -14 -117 -28
-128 -34 -130 -69 -5 -62 -25 -331 -30 -392 -3 -33 -10 -63 -17 -67 -8 -5 -5
-20 12 -50 23 -44 28 -68 15 -68 -5 0 -9 -46 -11 -103 -1 -56 -7 -115 -12
-132 -15 -49 -19 -85 -10 -85 16 0 58 63 83 125 38 92 133 400 152 495 11 55
26 96 42 117 14 19 23 36 20 39 -3 3 -10 -3 -16 -14 -16 -30 -41 -36 -40 -9 1
12 -2 42 -6 66 -6 32 -5 42 3 37 15 -9 15 4 2 75 -5 30 -12 85 -14 123 -3 42
-11 75 -20 84 -12 13 -14 12 -13 -4z m-111 -364 c-2 -16 -6 -30 -8 -30 -2 0
-4 14 -4 30 0 17 4 30 8 30 5 0 7 -13 4 -30z"/>
<path d="M4495 1150 c-3 -6 1 -7 9 -4 18 7 21 14 7 14 -6 0 -13 -4 -16 -10z"/>
<path d="M1593 1088 c7 -76 27 -171 34 -164 3 3 0 34 -6 70 -6 36 -9 83 -5
104 5 32 3 40 -11 46 -16 6 -17 1 -12 -56z"/>
<path d="M2883 1023 c-43 -61 -133 -167 -318 -374 -60 -68 -96 -114 -80 -102
17 11 39 30 49 42 11 12 25 21 33 21 7 0 13 5 13 10 0 6 35 45 78 88 43 42
103 113 132 157 30 44 64 93 77 109 23 27 67 106 60 106 -2 0 -22 -26 -44 -57z"/>
<path d="M4513 1073 c-20 -8 -15 -23 7 -23 11 0 20 7 20 15 0 15 -6 17 -27 8z"/>
<path d="M451 1047 c-13 -21 -12 -21 5 -5 10 10 16 20 13 22 -3 3 -11 -5 -18
-17z"/>
<path d="M4890 978 c11 -12 80 -37 80 -29 0 5 -11 12 -24 15 -13 3 -32 9 -43
13 -10 3 -16 4 -13 1z"/>
<path d="M1321 944 c0 -11 3 -14 6 -6 3 7 2 16 -1 19 -3 4 -6 -2 -5 -13z"/>
<path d="M3068 953 c7 -3 16 -2 19 1 4 3 -2 6 -13 5 -11 0 -14 -3 -6 -6z"/>
<path d="M4884 905 c-10 -8 -14 -15 -8 -15 5 0 19 7 30 15 10 8 14 15 8 15 -5
0 -19 -7 -30 -15z"/>
<path d="M3022 895 c13 -13 98 -51 98 -44 0 10 -73 49 -91 49 -7 0 -10 -2 -7
-5z"/>
<path d="M4927 831 c-77 -80 -73 -91 5 -14 34 34 60 65 57 68 -3 3 -31 -22
-62 -54z"/>
<path d="M1480 849 c-25 -12 -40 -23 -33 -26 6 -2 33 7 60 21 58 30 36 34 -27
5z"/>
<path d="M390 830 c-11 -16 -34 -61 -50 -100 -16 -39 -38 -83 -48 -98 -61 -87
-224 -428 -236 -493 l-6 -34 15 30 15 30 -5 -35 c-4 -19 -9 -56 -12 -82 -6
-47 -5 -48 21 -48 14 0 26 1 26 3 0 1 26 95 59 208 36 129 81 258 119 345 84
192 130 304 127 304 -2 0 -13 -13 -25 -30z"/>
<path d="M4792 836 c37 -26 68 -34 68 -18 0 5 -17 14 -37 21 -21 7 -45 15 -53
18 -8 3 2 -7 22 -21z"/>
<path d="M4360 803 c0 -43 5 -41 13 5 4 18 2 32 -3 32 -6 0 -10 -16 -10 -37z"/>
<path d="M3639 825 c-3 -5 -6 -44 -7 -85 -1 -71 0 -73 9 -30 10 46 9 133 -2
115z"/>
<path d="M1360 811 c0 -6 18 -40 40 -75 22 -34 49 -86 61 -115 12 -28 24 -50
26 -48 8 8 -43 125 -79 181 -45 69 -48 73 -48 57z"/>
<path d="M4992 795 c-12 -9 -43 -46 -69 -83 -63 -90 -77 -106 -155 -169 -74
-59 -141 -141 -160 -194 -6 -19 -17 -38 -24 -44 -16 -12 -61 -183 -68 -257 -7
-65 4 -33 30 89 10 50 22 83 30 83 6 0 22 21 34 47 12 27 34 62 49 78 16 17
55 66 88 110 33 44 106 134 161 199 56 66 100 122 97 124 -3 3 0 11 6 19 15
17 9 17 -19 -2z"/>
<path d="M3531 724 c0 -11 3 -14 6 -6 3 7 2 16 -1 19 -3 4 -6 -2 -5 -13z"/>
<path d="M2625 650 c-10 -11 -14 -20 -9 -20 5 0 15 9 22 20 7 11 11 20 9 20
-2 0 -12 -9 -22 -20z"/>
<path d="M3600 654 c0 -16 -2 -17 -10 -4 -9 13 -10 13 -10 0 0 -9 -18 -22 -42
-31 -51 -19 -38 -32 14 -14 40 13 41 8 8 -30 -10 -11 -21 -31 -25 -45 -4 -14
-17 -33 -29 -43 -16 -14 -17 -18 -4 -13 10 3 20 1 23 -4 3 -5 12 -7 20 -3 8 3
15 0 15 -6 0 -6 -12 -13 -27 -16 -67 -14 -103 -27 -103 -36 0 -6 7 -8 16 -5 9
3 34 9 57 12 23 4 50 11 60 16 17 9 18 7 10 -14 -4 -12 -7 -70 -7 -127 1 -57
-2 -98 -5 -92 -5 7 -17 8 -41 1 -19 -6 -105 -11 -190 -11 -146 -2 -151 -2 -80
-11 41 -5 130 -7 198 -5 137 5 132 9 115 -74 -5 -28 -7 -30 -14 -14 -4 11 -8
32 -8 47 -1 29 -3 30 -66 13 -29 -8 -45 -21 -45 -38 0 -5 4 -6 9 -2 5 3 4 -7
-4 -22 -15 -30 -9 -95 6 -71 7 10 9 10 9 1 0 -23 38 -14 43 10 l4 22 2 -22 c1
-20 7 -23 41 -23 40 0 40 0 40 38 0 63 21 152 36 152 7 0 12 -6 9 -12 -2 -7
-6 -49 -9 -93 l-5 -80 29 50 c30 51 38 89 20 100 -5 3 -10 0 -10 -7 0 -10 -2
-10 -9 1 -16 25 -1 41 39 41 68 0 56 20 -12 21 -35 1 -53 4 -40 6 12 2 22 5
22 6 0 1 -7 20 -15 42 -15 44 -18 160 -6 269 6 55 5 65 -5 51 -7 -9 -15 -36
-19 -58 -9 -59 -15 -77 -25 -77 -6 0 -6 9 -1 23 12 30 34 188 27 195 -3 3 -6
-3 -6 -14z m-33 -136 c-3 -8 -6 -5 -6 6 -1 11 2 17 5 13 3 -3 4 -12 1 -19z
m-71 -443 c1 -8 -2 -15 -7 -15 -5 0 -9 10 -9 22 0 23 12 17 16 -7z"/>
<path d="M4363 610 c0 -25 2 -35 4 -22 2 12 2 32 0 45 -2 12 -4 2 -4 -23z"/>
<path d="M4095 588 c-4 -29 -16 -85 -26 -123 -16 -59 -19 -102 -17 -268 l1
-197 64 0 65 0 -6 27 c-3 16 -8 114 -11 218 -5 157 -10 207 -31 290 -14 55
-27 101 -29 103 -2 2 -6 -21 -10 -50z"/>
<path d="M2598 613 c7 -3 16 -2 19 1 4 3 -2 6 -13 5 -11 0 -14 -3 -6 -6z"/>
<path d="M4679 522 c-49 -48 -89 -92 -89 -98 0 -6 43 31 95 83 52 52 95 97 95
99 0 13 -21 -4 -101 -84z"/>
<path d="M2610 550 c0 -5 5 -10 10 -10 6 0 10 5 10 10 0 6 -4 10 -10 10 -5 0
-10 -4 -10 -10z"/>
<path d="M2578 513 c7 -3 16 -2 19 1 4 3 -2 6 -13 5 -11 0 -14 -3 -6 -6z"/>
<path d="M4352 500 c0 -14 2 -19 5 -12 2 6 2 18 0 25 -3 6 -5 1 -5 -13z"/>
<path d="M2835 464 c-19 -46 -38 -129 -33 -145 2 -6 15 31 30 83 28 100 29
124 3 62z"/>
<path d="M3412 465 c-17 -37 -14 -45 4 -12 9 16 14 31 11 33 -2 2 -9 -7 -15
-21z"/>
<path d="M2563 453 c-1 -10 -5 -31 -8 -48 -4 -21 -3 -25 3 -15 14 22 25 80 15
80 -5 0 -9 -8 -10 -17z"/>
<path d="M1582 398 c18 -31 35 -55 36 -53 7 7 -30 73 -50 92 -14 12 -10 0 14
-39z"/>
<path d="M1070 430 c0 -12 8 -16 45 -23 17 -4 24 -4 17 -1 -6 3 -9 11 -5 17 3
7 3 9 -1 5 -5 -4 -19 -3 -32 2 -15 6 -24 6 -24 0z"/>
<path d="M2761 355 c-25 -80 -25 -75 -5 -75 13 0 15 -7 10 -30 -3 -17 -2 -81
2 -143 l7 -112 5 160 c3 88 2 162 -1 165 -4 3 -4 25 1 50 12 67 4 61 -19 -15z"/>
<path d="M3530 401 c-31 -21 -116 -41 -177 -41 -69 0 -48 -8 30 -12 37 -1 67
-4 67 -6 0 -1 -8 -15 -17 -29 l-17 -26 41 5 c39 6 74 -4 61 -17 -3 -3 -70 -9
-149 -13 l-144 -6 95 -8 c52 -5 117 -6 144 -3 39 5 51 3 61 -12 12 -16 13 -15
11 12 -2 17 -6 47 -11 67 -6 30 -3 43 15 68 27 38 23 44 -10 21z m-20 -60 c0
-5 -7 -12 -16 -15 -8 -3 -13 -2 -9 3 3 5 -1 12 -7 14 -7 3 -3 6 10 6 12 1 22
-3 22 -8z"/>
<path d="M3688 373 c7 -3 16 -2 19 1 4 3 -2 6 -13 5 -11 0 -14 -3 -6 -6z"/>
<path d="M4678 333 c-20 -21 -43 -54 -53 -73 l-17 -35 27 30 c29 32 88 115 83
115 -2 0 -20 -17 -40 -37z"/>
<path d="M4764 292 c-58 -68 -184 -262 -184 -284 0 -19 28 -6 39 18 6 14 39
63 71 108 33 44 74 101 91 124 17 24 33 42 36 39 3 -3 -15 -34 -40 -69 -24
-36 -48 -75 -51 -89 l-7 -24 20 25 c22 27 115 185 123 210 4 11 -1 16 -13 17
-12 1 -43 -26 -85 -75z"/>
<path d="M2700 315 c-27 -62 -19 -70 10 -10 12 25 20 49 16 52 -3 3 -15 -16
-26 -42z"/>
<path d="M336 318 c-15 -29 -22 -57 -11 -47 7 8 36 79 31 79 -3 0 -12 -14 -20
-32z"/>
<path d="M575 340 c3 -5 8 -10 11 -10 2 0 4 5 4 10 0 6 -5 10 -11 10 -5 0 -7
-4 -4 -10z"/>
<path d="M2209 321 c-25 -15 -56 -41 -68 -57 -33 -41 -6 -44 32 -3 18 19 48
46 67 61 46 36 26 35 -31 -1z"/>
<path d="M2975 340 c-3 -5 1 -10 9 -10 9 0 16 5 16 10 0 6 -4 10 -9 10 -6 0
-13 -4 -16 -10z"/>
<path d="M498 267 c-33 -54 -83 -153 -108 -217 -20 -50 -20 -50 0 -50 12 0 22
6 24 12 2 7 9 36 15 63 6 28 32 90 57 139 48 96 54 120 12 53z"/>
<path d="M2218 283 c-49 -30 -62 -85 -20 -82 15 1 15 2 0 6 -30 8 -20 30 32
68 38 28 30 34 -12 8z"/>
<path d="M2292 263 c-12 -23 -34 -49 -50 -58 -26 -15 -26 -16 -2 -9 14 3 31
11 38 17 19 15 44 66 39 80 -2 7 -14 -7 -25 -30z"/>
<path d="M3660 283 c0 -15 38 -17 59 -4 9 6 2 10 -23 13 -25 3 -36 0 -36 -9z"/>
<path d="M3468 223 c6 -2 18 -2 25 0 6 3 1 5 -13 5 -14 0 -19 -2 -12 -5z"/>
<path d="M1642 190 c0 -14 2 -19 5 -12 2 6 2 18 0 25 -3 6 -5 1 -5 -13z"/>
<path d="M2612 155 c-29 -60 -30 -83 -1 -56 24 22 49 67 49 87 0 30 -27 12
-48 -31z"/>
<path d="M1296 171 c15 -15 114 -52 114 -42 0 4 -25 18 -56 30 -62 23 -73 26
-58 12z"/>
<path d="M4216 145 c16 -72 22 -109 17 -121 -2 -6 1 -15 8 -20 18 -10 4 109
-16 144 l-16 27 7 -30z"/>
<path d="M742 138 c-16 -20 -55 -129 -48 -135 8 -8 7 -9 39 71 27 67 30 89 9
64z"/>
<path d="M1272 109 c32 -18 98 -38 98 -29 0 4 -21 15 -47 24 -52 18 -77 20
-51 5z"/>
<path d="M3284 73 c3 -21 5 -46 6 -55 0 -19 30 -26 30 -7 0 5 -5 30 -11 55
-14 54 -33 59 -25 7z"/>
<path d="M652 65 c-7 -14 -12 -31 -12 -38 1 -7 7 3 16 22 17 39 13 54 -4 16z"/>
<path d="M1207 55 c-19 -39 -21 -55 -9 -55 7 0 34 82 28 87 -1 2 -10 -13 -19
-32z"/>
<path d="M3220 40 c0 -22 5 -40 10 -40 6 0 10 18 10 40 0 22 -4 40 -10 40 -5
0 -10 -18 -10 -40z"/>
<path d="M3250 54 c0 -8 5 -12 10 -9 6 4 8 11 5 16 -9 14 -15 11 -15 -7z"/>
<path d="M1335 50 c-16 -7 -17 -9 -3 -9 9 -1 20 4 23 9 7 11 7 11 -20 0z"/>
<path d="M737 43 c-4 -3 -7 -16 -6 -27 0 -19 1 -19 10 3 10 24 8 36 -4 24z"/>
<path d="M2620 23 c0 -22 2 -25 10 -13 13 20 13 40 0 40 -5 0 -10 -12 -10 -27z"/>
<path d="M3768 43 c7 -3 16 -2 19 1 4 3 -2 6 -13 5 -11 0 -14 -3 -6 -6z"/>
<path d="M2210 15 c0 -8 5 -15 10 -15 6 0 10 7 10 15 0 8 -4 15 -10 15 -5 0
-10 -7 -10 -15z"/>
<path d="M2701 14 c0 -11 3 -14 6 -6 3 7 2 16 -1 19 -3 4 -6 -2 -5 -13z"/>
<path d="M3256 15 c-3 -8 -1 -15 4 -15 6 0 10 7 10 15 0 19 -6 19 -14 0z"/>
<path d="M3411 14 c0 -11 3 -14 6 -6 3 7 2 16 -1 19 -3 4 -6 -2 -5 -13z"/>
</g>
</svg>
