<svg version="1.2" baseProfile="tiny-ps" xmlns="http://www.w3.org/2000/svg" viewBox="0 0 2048 2048" width="700" height="700">
	<title>cachiql (1)-svg-svg</title>
	<style>
		tspan { white-space:pre }
		.shp0 { fill: #000000 } 
		.shp1 { fill: #117ebd } 
	</style>
	<path id="Shape 6" fill-rule="evenodd" class="shp0" d="M1023 2019C470.55 2019 24 1573.12 24 1021.5C24 856.81 63.8 701.55 134.35 564.76C76.37 688.19 43.98 826.07 43.98 971.63C43.98 1501.18 472.67 1929.23 1003.02 1929.23C1533.37 1929.23 1962.06 1501.18 1962.06 971.63C1962.06 564.91 1709.18 218.07 1351.59 79.04C1742.22 214.49 2022 584.87 2022 1021.5C2022 1573.12 1575.45 2019 1023 2019Z" />
	<path id="Shape 1" fill-rule="evenodd" class="shp1" d="M1003.02 1907.28C485.93 1907.28 67.96 1489.49 67.96 972.62C67.96 455.76 485.93 37.96 1003.02 37.96C1087.2 37.96 1168.75 49.04 1246.3 69.81C1185.27 56.79 1121.93 49.93 1056.97 49.93C559.76 49.93 157.87 451.23 157.87 947.69C157.87 1444.14 559.76 1845.44 1056.97 1845.44C1394.99 1845.44 1688.97 1659.96 1842.55 1385.19C1690.3 1694.69 1371.88 1907.28 1003.02 1907.28Z" />
	<path id="CachiQL" fill-rule="evenodd" class="shp0" d="M579.13 1139L399.91 1139C389.92 1139 381.43 1135.51 374.44 1128.53C367.45 1121.54 363.95 1113.06 363.95 1103.09L363.95 959.45C363.95 949.48 367.45 941 374.44 934.01C381.43 927.03 389.92 923.54 399.91 923.54L579.13 923.54L579.13 947.78L399.91 947.78C396.72 947.78 393.92 948.98 391.52 951.37C389.32 953.56 388.22 956.26 388.22 959.45L388.22 1103.09C388.22 1106.28 389.32 1109.08 391.52 1111.47C393.92 1113.66 396.72 1114.76 399.91 1114.76L579.13 1114.76L579.13 1139ZM786.22 1139L645.36 1139C635.37 1139 626.78 1135.51 619.59 1128.53C612.6 1121.34 609.1 1112.76 609.1 1102.79L609.1 1039.95L761.35 1039.95L761.35 1001.64C761.35 998.45 760.15 995.76 757.75 993.56C755.56 991.17 752.86 989.97 749.66 989.97L609.1 989.97L609.1 965.43L749.66 965.43C759.85 965.43 768.44 969.02 775.43 976.21C782.62 983.19 786.22 991.67 786.22 1001.64L786.22 1139ZM645.36 1114.46L761.35 1114.46L761.35 1064.49L633.68 1064.49L633.68 1102.79C633.68 1105.98 634.78 1108.78 636.97 1111.17C639.37 1113.36 642.17 1114.46 645.36 1114.46ZM990.92 1139L850.06 1139C840.07 1139 831.48 1135.51 824.29 1128.53C817.3 1121.34 813.8 1112.76 813.8 1102.79L813.8 1001.64C813.8 991.67 817.3 983.19 824.29 976.21C831.48 969.02 840.07 965.43 850.06 965.43L990.32 965.43L990.32 989.97L850.06 989.97C846.86 989.97 844.06 991.17 841.67 993.56C839.47 995.76 838.37 998.45 838.37 1001.64L838.37 1102.79C838.37 1105.98 839.47 1108.78 841.67 1111.17C844.06 1113.36 846.86 1114.46 850.06 1114.46L990.92 1114.46L990.92 1139ZM1043.07 1139L1018.49 1139L1018.49 908.58L1043.07 908.58L1043.07 965.43L1159.35 965.43C1169.14 965.43 1177.63 969.02 1184.82 976.21C1192.01 983.19 1195.61 991.67 1195.61 1001.64L1195.61 1139L1171.04 1139L1171.04 1001.64C1171.04 998.45 1169.84 995.76 1167.44 993.56C1165.25 991.17 1162.55 989.97 1159.35 989.97L1055.05 989.97C1051.86 989.97 1049.06 991.17 1046.66 993.56C1044.27 995.76 1043.07 998.45 1043.07 1001.64L1043.07 1139ZM1244.17 1139L1219.59 1139L1219.59 965.43L1244.17 965.43L1244.17 1139ZM1244.17 933.12L1219.59 933.12L1219.59 908.58L1244.17 908.58L1244.17 933.12ZM1526.48 1139L1318.49 1139C1308.5 1139 1300.01 1135.51 1293.02 1128.53C1286.03 1121.54 1282.53 1113.06 1282.53 1103.09L1282.53 959.45C1282.53 949.48 1286.03 941 1293.02 934.01C1300.01 927.03 1308.5 923.54 1318.49 923.54L1462.35 923.54C1472.34 923.54 1480.83 927.03 1487.82 934.01C1494.81 941 1498.31 949.48 1498.31 959.45L1498.31 1114.76L1526.48 1114.76L1526.48 1139ZM1318.49 1114.76L1462.35 1114.76C1465.54 1114.76 1468.24 1113.66 1470.44 1111.47C1472.84 1109.08 1474.04 1106.28 1474.04 1103.09L1474.04 959.45C1474.04 956.26 1472.84 953.56 1470.44 951.37C1468.24 948.98 1465.54 947.78 1462.35 947.78L1318.49 947.78C1315.3 947.78 1312.5 948.98 1310.1 951.37C1307.9 953.56 1306.8 956.26 1306.8 959.45L1306.8 1103.09C1306.8 1106.28 1307.9 1109.08 1310.1 1111.47C1312.5 1113.66 1315.3 1114.76 1318.49 1114.76ZM1764.15 1139L1548.36 1139L1548.36 923.24L1572.64 923.24L1572.64 1114.76L1764.15 1114.76L1764.15 1139Z" />
	<text id=" " style="transform: matrix(1,0,0,1,1032,743)" >
	</text>
</svg>